<?xml version="1.0" encoding="utf-8" standalone="no"?>
<!DOCTYPE svg PUBLIC "-//W3C//DTD SVG 1.1//EN"
  "http://www.w3.org/Graphics/SVG/1.1/DTD/svg11.dtd">
<!-- Created with matplotlib (https://matplotlib.org/) -->
<svg height="216pt" version="1.1" viewBox="0 0 432 216" width="432pt" xmlns="http://www.w3.org/2000/svg" xmlns:xlink="http://www.w3.org/1999/xlink">
 <defs>
  <style type="text/css">
*{stroke-linecap:butt;stroke-linejoin:round;}
  </style>
 </defs>
 <g id="figure_1">
  <g id="patch_1">
   <path d="M 0 216 
L 432 216 
L 432 0 
L 0 0 
z
" style="fill:#ffffff;"/>
  </g>
  <g id="axes_1">
   <g id="patch_2">
    <path d="M 58.665 164.96 
L 208.98 164.96 
L 208.98 32.04 
L 58.665 32.04 
z
" style="fill:#ffffff;"/>
   </g>
   <g id="matplotlib.axis_1">
    <g id="xtick_1">
     <g id="line2d_1">
      <defs>
       <path d="M 0 0 
L 0 3.5 
" id="m9da544528f" style="stroke:#262626;stroke-width:0.8;"/>
      </defs>
      <g>
       <use style="fill:#262626;stroke:#262626;stroke-width:0.8;" x="96.24375" xlink:href="#m9da544528f" y="164.96"/>
      </g>
     </g>
     <g id="text_1">
      <text style="fill:#262626;font-family:DejaVu Sans;font-size:13px;font-style:normal;font-weight:normal;text-anchor:middle;" transform="rotate(-0, 96.24375, 181.837969)" x="96.24375" y="181.837969">distal</text>
     </g>
    </g>
    <g id="xtick_2">
     <g id="line2d_2">
      <g>
       <use style="fill:#262626;stroke:#262626;stroke-width:0.8;" x="171.40125" xlink:href="#m9da544528f" y="164.96"/>
      </g>
     </g>
     <g id="text_2">
      <text style="fill:#262626;font-family:DejaVu Sans;font-size:13px;font-style:normal;font-weight:normal;text-anchor:middle;" transform="rotate(-0, 171.40125, 181.837969)" x="171.40125" y="181.837969">proximal</text>
     </g>
    </g>
    <g id="text_3">
     <text style="fill:#262626;font-family:DejaVu Sans;font-size:13px;font-style:normal;font-weight:normal;text-anchor:middle;" transform="rotate(-0, 133.8225, 198.419531)" x="133.8225" y="198.419531">TSS distance</text>
    </g>
   </g>
   <g id="matplotlib.axis_2">
    <g id="ytick_1">
     <g id="line2d_3">
      <defs>
       <path d="M 0 0 
L -3.5 0 
" id="m882756b8d7" style="stroke:#262626;stroke-width:0.8;"/>
      </defs>
      <g>
       <use style="fill:#262626;stroke:#262626;stroke-width:0.8;" x="58.665" xlink:href="#m882756b8d7" y="151.69539"/>
      </g>
     </g>
     <g id="text_4">
      <text style="fill:#262626;font-family:DejaVu Sans;font-size:13px;font-style:normal;font-weight:normal;text-anchor:end;" transform="rotate(-0, 51.665, 156.634375)" x="51.665" y="156.634375">0.0</text>
     </g>
    </g>
    <g id="ytick_2">
     <g id="line2d_4">
      <g>
       <use style="fill:#262626;stroke:#262626;stroke-width:0.8;" x="58.665" xlink:href="#m882756b8d7" y="122.009274"/>
      </g>
     </g>
     <g id="text_5">
      <text style="fill:#262626;font-family:DejaVu Sans;font-size:13px;font-style:normal;font-weight:normal;text-anchor:end;" transform="rotate(-0, 51.665, 126.948258)" x="51.665" y="126.948258">0.1</text>
     </g>
    </g>
    <g id="ytick_3">
     <g id="line2d_5">
      <g>
       <use style="fill:#262626;stroke:#262626;stroke-width:0.8;" x="58.665" xlink:href="#m882756b8d7" y="92.323157"/>
      </g>
     </g>
     <g id="text_6">
      <text style="fill:#262626;font-family:DejaVu Sans;font-size:13px;font-style:normal;font-weight:normal;text-anchor:end;" transform="rotate(-0, 51.665, 97.262141)" x="51.665" y="97.262141">0.2</text>
     </g>
    </g>
    <g id="ytick_4">
     <g id="line2d_6">
      <g>
       <use style="fill:#262626;stroke:#262626;stroke-width:0.8;" x="58.665" xlink:href="#m882756b8d7" y="62.637041"/>
      </g>
     </g>
     <g id="text_7">
      <text style="fill:#262626;font-family:DejaVu Sans;font-size:13px;font-style:normal;font-weight:normal;text-anchor:end;" transform="rotate(-0, 51.665, 67.576025)" x="51.665" y="67.576025">0.3</text>
     </g>
    </g>
    <g id="ytick_5">
     <g id="line2d_7">
      <g>
       <use style="fill:#262626;stroke:#262626;stroke-width:0.8;" x="58.665" xlink:href="#m882756b8d7" y="32.950924"/>
      </g>
     </g>
     <g id="text_8">
      <text style="fill:#262626;font-family:DejaVu Sans;font-size:13px;font-style:normal;font-weight:normal;text-anchor:end;" transform="rotate(-0, 51.665, 37.889908)" x="51.665" y="37.889908">0.4</text>
     </g>
    </g>
    <g id="text_9">
     <text style="fill:#262626;font-family:DejaVu Sans;font-size:13px;font-style:normal;font-weight:normal;text-anchor:middle;" transform="rotate(-90, 24.287344, 98.5)" x="24.287344" y="98.5">10% quantile diff.</text>
    </g>
   </g>
   <g id="PolyCollection_1">
    <defs>
     <path d="M 96.317078 -74.298266 
L 96.170422 -74.298266 
L 96.11457 -75.344932 
L 96.025592 -76.391598 
L 95.890009 -77.438264 
L 95.692032 -78.48493 
L 95.414412 -79.531595 
L 95.039614 -80.578261 
L 94.551124 -81.624927 
L 93.934673 -82.671593 
L 93.17924 -83.718259 
L 92.277846 -84.764925 
L 91.228261 -85.81159 
L 90.033801 -86.858256 
L 88.704246 -87.904922 
L 87.256688 -88.951588 
L 85.715884 -89.998254 
L 84.113561 -91.044919 
L 82.486278 -92.091585 
L 80.871887 -93.138251 
L 79.305253 -94.184917 
L 77.814424 -95.231583 
L 76.418605 -96.278248 
L 75.128835 -97.324914 
L 73.951253 -98.37158 
L 72.891654 -99.418246 
L 71.959241 -100.464912 
L 71.167535 -101.511578 
L 70.531551 -102.558243 
L 70.062131 -103.604909 
L 69.759951 -104.651575 
L 69.612467 -105.698241 
L 69.59615 -106.744907 
L 69.684257 -107.791572 
L 69.857681 -108.838238 
L 70.114535 -109.884904 
L 70.473999 -110.93157 
L 70.971921 -111.978236 
L 71.648985 -113.024901 
L 72.535432 -114.071567 
L 73.637968 -115.118233 
L 74.933629 -116.164899 
L 76.372509 -117.211565 
L 77.887778 -118.258231 
L 79.408845 -119.304896 
L 80.87314 -120.351562 
L 82.233503 -121.398228 
L 83.460642 -122.444894 
L 84.54213 -123.49156 
L 85.479994 -124.538225 
L 86.288271 -125.584891 
L 86.990548 -126.631557 
L 87.616702 -127.678223 
L 88.198156 -128.724889 
L 88.762002 -129.771554 
L 89.325435 -130.81822 
L 89.892437 -131.864886 
L 90.454055 -132.911552 
L 90.992351 -133.958218 
L 91.486649 -135.004884 
L 91.919961 -136.051549 
L 92.283585 -137.098215 
L 92.578721 -138.144881 
L 92.815091 -139.191547 
L 93.007453 -140.238213 
L 93.17135 -141.284878 
L 93.319387 -142.331544 
L 93.45895 -143.37821 
L 93.591796 -144.424876 
L 93.715388 -145.471542 
L 93.825441 -146.518207 
L 93.918854 -147.564873 
L 93.996079 -148.611539 
L 94.0622 -149.658205 
L 94.126336 -150.704871 
L 94.199582 -151.751537 
L 94.292129 -152.798202 
L 94.410519 -153.844868 
L 94.555824 -154.891534 
L 94.723235 -155.9382 
L 94.903034 -156.984866 
L 95.082573 -158.031531 
L 95.248723 -159.078197 
L 95.390266 -160.124863 
L 95.499823 -161.171529 
L 95.57506 -162.218195 
L 95.618969 -163.26486 
L 95.639171 -164.311526 
L 95.646311 -165.358192 
L 95.65187 -166.404858 
L 95.665832 -167.451524 
L 95.694797 -168.49819 
L 95.740982 -169.544855 
L 95.802321 -170.591521 
L 95.873557 -171.638187 
L 95.947906 -172.684853 
L 96.018789 -173.731519 
L 96.081153 -174.778184 
L 96.132126 -175.82485 
L 96.171005 -176.871516 
L 96.198767 -177.918182 
L 96.288733 -177.918182 
L 96.288733 -177.918182 
L 96.316495 -176.871516 
L 96.355374 -175.82485 
L 96.406347 -174.778184 
L 96.468711 -173.731519 
L 96.539594 -172.684853 
L 96.613943 -171.638187 
L 96.685179 -170.591521 
L 96.746518 -169.544855 
L 96.792703 -168.49819 
L 96.821668 -167.451524 
L 96.83563 -166.404858 
L 96.841189 -165.358192 
L 96.848329 -164.311526 
L 96.868531 -163.26486 
L 96.91244 -162.218195 
L 96.987677 -161.171529 
L 97.097234 -160.124863 
L 97.238777 -159.078197 
L 97.404927 -158.031531 
L 97.584466 -156.984866 
L 97.764265 -155.9382 
L 97.931676 -154.891534 
L 98.076981 -153.844868 
L 98.195371 -152.798202 
L 98.287918 -151.751537 
L 98.361164 -150.704871 
L 98.4253 -149.658205 
L 98.491421 -148.611539 
L 98.568646 -147.564873 
L 98.662059 -146.518207 
L 98.772112 -145.471542 
L 98.895704 -144.424876 
L 99.02855 -143.37821 
L 99.168113 -142.331544 
L 99.31615 -141.284878 
L 99.480047 -140.238213 
L 99.672409 -139.191547 
L 99.908779 -138.144881 
L 100.203915 -137.098215 
L 100.567539 -136.051549 
L 101.000851 -135.004884 
L 101.495149 -133.958218 
L 102.033445 -132.911552 
L 102.595063 -131.864886 
L 103.162065 -130.81822 
L 103.725498 -129.771554 
L 104.289344 -128.724889 
L 104.870798 -127.678223 
L 105.496952 -126.631557 
L 106.199229 -125.584891 
L 107.007506 -124.538225 
L 107.94537 -123.49156 
L 109.026858 -122.444894 
L 110.253997 -121.398228 
L 111.61436 -120.351562 
L 113.078655 -119.304896 
L 114.599722 -118.258231 
L 116.114991 -117.211565 
L 117.553871 -116.164899 
L 118.849532 -115.118233 
L 119.952068 -114.071567 
L 120.838515 -113.024901 
L 121.515579 -111.978236 
L 122.013501 -110.93157 
L 122.372965 -109.884904 
L 122.629819 -108.838238 
L 122.803243 -107.791572 
L 122.89135 -106.744907 
L 122.875033 -105.698241 
L 122.727549 -104.651575 
L 122.425369 -103.604909 
L 121.955949 -102.558243 
L 121.319965 -101.511578 
L 120.528259 -100.464912 
L 119.595846 -99.418246 
L 118.536247 -98.37158 
L 117.358665 -97.324914 
L 116.068895 -96.278248 
L 114.673076 -95.231583 
L 113.182247 -94.184917 
L 111.615613 -93.138251 
L 110.001222 -92.091585 
L 108.373939 -91.044919 
L 106.771616 -89.998254 
L 105.230812 -88.951588 
L 103.783254 -87.904922 
L 102.453699 -86.858256 
L 101.259239 -85.81159 
L 100.209654 -84.764925 
L 99.30826 -83.718259 
L 98.552827 -82.671593 
L 97.936376 -81.624927 
L 97.447886 -80.578261 
L 97.073088 -79.531595 
L 96.795468 -78.48493 
L 96.597491 -77.438264 
L 96.461908 -76.391598 
L 96.37293 -75.344932 
L 96.317078 -74.298266 
z
" id="mc0a1f73194" style="stroke:#3f3f3f;stroke-width:1.5;"/>
    </defs>
    <g clip-path="url(#p14fc097458)">
     <use style="fill:#3274a1;stroke:#3f3f3f;stroke-width:1.5;" x="0" xlink:href="#mc0a1f73194" y="216"/>
    </g>
   </g>
   <g id="PolyCollection_2">
    <defs>
     <path d="M 171.445892 -57.081818 
L 171.356608 -57.081818 
L 171.31897 -58.286376 
L 171.265563 -59.490934 
L 171.201049 -60.695491 
L 171.136959 -61.900049 
L 171.089086 -63.104607 
L 171.071354 -64.309165 
L 171.089297 -65.513722 
L 171.137226 -66.71828 
L 171.200962 -67.922838 
L 171.264098 -69.127396 
L 171.313482 -70.331953 
L 171.340569 -71.536511 
L 171.338166 -72.741069 
L 171.294442 -73.945627 
L 171.186617 -75.150184 
L 170.976222 -76.354742 
L 170.607267 -77.5593 
L 170.008709 -78.763858 
L 169.102788 -79.968415 
L 167.820239 -81.172973 
L 166.120995 -82.377531 
L 164.014767 -83.582089 
L 161.571959 -84.786646 
L 158.915466 -85.991204 
L 156.191378 -87.195762 
L 153.529934 -88.40032 
L 151.018622 -89.604877 
L 148.705266 -90.809435 
L 146.627197 -92.013993 
L 144.83858 -93.218551 
L 143.406447 -94.423108 
L 142.374681 -95.627666 
L 141.729833 -96.832224 
L 141.406878 -98.036782 
L 141.33825 -99.241339 
L 141.507372 -100.445897 
L 141.95954 -101.650455 
L 142.757219 -102.855013 
L 143.912501 -104.05957 
L 145.3472 -105.264128 
L 146.909105 -106.468686 
L 148.432404 -107.673244 
L 149.803308 -108.877801 
L 150.994346 -110.082359 
L 152.054996 -111.286917 
L 153.0722 -112.491474 
L 154.12625 -113.696032 
L 155.262559 -114.90059 
L 156.485745 -116.105148 
L 157.769652 -117.309705 
L 159.072299 -118.514263 
L 160.348049 -119.718821 
L 161.555505 -120.923379 
L 162.663207 -122.127936 
L 163.654301 -123.332494 
L 164.528749 -124.537052 
L 165.300537 -125.74161 
L 165.989259 -126.946167 
L 166.609049 -128.150725 
L 167.16078 -129.355283 
L 167.633228 -130.559841 
L 168.014415 -131.764398 
L 168.307329 -132.968956 
L 168.539475 -134.173514 
L 168.757881 -135.378072 
L 169.010173 -136.582629 
L 169.322161 -137.787187 
L 169.685471 -138.991745 
L 170.062462 -140.196303 
L 170.404648 -141.40086 
L 170.673291 -142.605418 
L 170.851536 -143.809976 
L 170.944552 -145.014534 
L 170.97156 -146.219091 
L 170.956458 -147.423649 
L 170.921493 -148.628207 
L 170.884521 -149.832765 
L 170.858332 -151.037322 
L 170.850879 -152.24188 
L 170.866082 -153.446438 
L 170.904722 -154.650996 
L 170.964671 -155.855553 
L 171.040374 -157.060111 
L 171.122733 -158.264669 
L 171.200556 -159.469227 
L 171.263341 -160.673784 
L 171.303973 -161.878342 
L 171.3201 -163.0829 
L 171.314192 -164.287458 
L 171.292914 -165.492015 
L 171.265988 -166.696573 
L 171.244118 -167.901131 
L 171.235933 -169.105689 
L 171.24506 -170.310246 
L 171.269074 -171.514804 
L 171.301139 -172.719362 
L 171.333401 -173.92392 
L 171.360106 -175.128477 
L 171.378927 -176.333035 
L 171.423573 -176.333035 
L 171.423573 -176.333035 
L 171.442394 -175.128477 
L 171.469099 -173.92392 
L 171.501361 -172.719362 
L 171.533426 -171.514804 
L 171.55744 -170.310246 
L 171.566567 -169.105689 
L 171.558382 -167.901131 
L 171.536512 -166.696573 
L 171.509586 -165.492015 
L 171.488308 -164.287458 
L 171.4824 -163.0829 
L 171.498527 -161.878342 
L 171.539159 -160.673784 
L 171.601944 -159.469227 
L 171.679767 -158.264669 
L 171.762126 -157.060111 
L 171.837829 -155.855553 
L 171.897778 -154.650996 
L 171.936418 -153.446438 
L 171.951621 -152.24188 
L 171.944168 -151.037322 
L 171.917979 -149.832765 
L 171.881007 -148.628207 
L 171.846042 -147.423649 
L 171.83094 -146.219091 
L 171.857948 -145.014534 
L 171.950964 -143.809976 
L 172.129209 -142.605418 
L 172.397852 -141.40086 
L 172.740038 -140.196303 
L 173.117029 -138.991745 
L 173.480339 -137.787187 
L 173.792327 -136.582629 
L 174.044619 -135.378072 
L 174.263025 -134.173514 
L 174.495171 -132.968956 
L 174.788085 -131.764398 
L 175.169272 -130.559841 
L 175.64172 -129.355283 
L 176.193451 -128.150725 
L 176.813241 -126.946167 
L 177.501963 -125.74161 
L 178.273751 -124.537052 
L 179.148199 -123.332494 
L 180.139293 -122.127936 
L 181.246995 -120.923379 
L 182.454451 -119.718821 
L 183.730201 -118.514263 
L 185.032848 -117.309705 
L 186.316755 -116.105148 
L 187.539941 -114.90059 
L 188.67625 -113.696032 
L 189.7303 -112.491474 
L 190.747504 -111.286917 
L 191.808154 -110.082359 
L 192.999192 -108.877801 
L 194.370096 -107.673244 
L 195.893395 -106.468686 
L 197.4553 -105.264128 
L 198.889999 -104.05957 
L 200.045281 -102.855013 
L 200.84296 -101.650455 
L 201.295128 -100.445897 
L 201.46425 -99.241339 
L 201.395622 -98.036782 
L 201.072667 -96.832224 
L 200.427819 -95.627666 
L 199.396053 -94.423108 
L 197.96392 -93.218551 
L 196.175303 -92.013993 
L 194.097234 -90.809435 
L 191.783878 -89.604877 
L 189.272566 -88.40032 
L 186.611122 -87.195762 
L 183.887034 -85.991204 
L 181.230541 -84.786646 
L 178.787733 -83.582089 
L 176.681505 -82.377531 
L 174.982261 -81.172973 
L 173.699712 -79.968415 
L 172.793791 -78.763858 
L 172.195233 -77.5593 
L 171.826278 -76.354742 
L 171.615883 -75.150184 
L 171.508058 -73.945627 
L 171.464334 -72.741069 
L 171.461931 -71.536511 
L 171.489018 -70.331953 
L 171.538402 -69.127396 
L 171.601538 -67.922838 
L 171.665274 -66.71828 
L 171.713203 -65.513722 
L 171.731146 -64.309165 
L 171.713414 -63.104607 
L 171.665541 -61.900049 
L 171.601451 -60.695491 
L 171.536937 -59.490934 
L 171.48353 -58.286376 
L 171.445892 -57.081818 
z
" id="m1162e53640" style="stroke:#3f3f3f;stroke-width:1.5;"/>
    </defs>
    <g clip-path="url(#p14fc097458)">
     <use style="fill:#e1812c;stroke:#3f3f3f;stroke-width:1.5;" x="0" xlink:href="#m1162e53640" y="216"/>
    </g>
   </g>
   <g id="line2d_8">
    <path clip-path="url(#p14fc097458)" d="M 96.24375 132.834465 
L 96.24375 73.765181 
" style="fill:none;stroke:#3f3f3f;stroke-linecap:round;stroke-width:1.5;"/>
   </g>
   <g id="line2d_9">
    <path clip-path="url(#p14fc097458)" d="M 96.24375 115.8073 
L 96.24375 98.434499 
" style="fill:none;stroke:#3f3f3f;stroke-linecap:round;stroke-width:4.5;"/>
   </g>
   <g id="line2d_10">
    <path clip-path="url(#p14fc097458)" d="M 171.40125 135.124856 
L 171.40125 78.852979 
" style="fill:none;stroke:#3f3f3f;stroke-linecap:round;stroke-width:1.5;"/>
   </g>
   <g id="line2d_11">
    <path clip-path="url(#p14fc097458)" d="M 171.40125 121.274068 
L 171.40125 104.298756 
" style="fill:none;stroke:#3f3f3f;stroke-linecap:round;stroke-width:4.5;"/>
   </g>
   <g id="patch_3">
    <path d="M 58.665 164.96 
L 58.665 32.04 
" style="fill:none;stroke:#262626;stroke-linecap:square;stroke-linejoin:miter;stroke-width:0.8;"/>
   </g>
   <g id="patch_4">
    <path d="M 58.665 164.96 
L 208.98 164.96 
" style="fill:none;stroke:#262626;stroke-linecap:square;stroke-linejoin:miter;stroke-width:0.8;"/>
   </g>
   <g id="PathCollection_1">
    <defs>
     <path d="M 0 1.5 
C 0.397805 1.5 0.77937 1.341951 1.06066 1.06066 
C 1.341951 0.77937 1.5 0.397805 1.5 0 
C 1.5 -0.397805 1.341951 -0.77937 1.06066 -1.06066 
C 0.77937 -1.341951 0.397805 -1.5 0 -1.5 
C -0.397805 -1.5 -0.77937 -1.341951 -1.06066 -1.06066 
C -1.341951 -0.77937 -1.5 -0.397805 -1.5 0 
C -1.5 0.397805 -1.341951 0.77937 -1.06066 1.06066 
C -0.77937 1.341951 -0.397805 1.5 0 1.5 
z
" id="m2476f59d32" style="stroke:#3f3f3f;"/>
    </defs>
    <g clip-path="url(#p14fc097458)">
     <use style="fill:#ffffff;stroke:#3f3f3f;" x="96.24375" xlink:href="#m2476f59d32" y="107.397172"/>
    </g>
   </g>
   <g id="PathCollection_2">
    <g clip-path="url(#p14fc097458)">
     <use style="fill:#ffffff;stroke:#3f3f3f;" x="171.40125" xlink:href="#m2476f59d32" y="113.716559"/>
    </g>
   </g>
   <g id="text_10">
    <text style="fill:#262626;font-family:DejaVu Sans;font-size:15.6px;font-style:normal;font-weight:normal;text-anchor:middle;" transform="rotate(-0, 133.8225, 26.04)" x="133.8225" y="26.04">Het. effect size</text>
   </g>
  </g>
  <g id="axes_2">
   <g id="patch_5">
    <path d="M 267.645 164.96 
L 417.96 164.96 
L 417.96 32.04 
L 267.645 32.04 
z
" style="fill:#ffffff;"/>
   </g>
   <g id="matplotlib.axis_3">
    <g id="xtick_3">
     <g id="line2d_12">
      <g>
       <use style="fill:#262626;stroke:#262626;stroke-width:0.8;" x="305.22375" xlink:href="#m9da544528f" y="164.96"/>
      </g>
     </g>
     <g id="text_11">
      <text style="fill:#262626;font-family:DejaVu Sans;font-size:13px;font-style:normal;font-weight:normal;text-anchor:middle;" transform="rotate(-0, 305.22375, 181.837969)" x="305.22375" y="181.837969">distal</text>
     </g>
    </g>
    <g id="xtick_4">
     <g id="line2d_13">
      <g>
       <use style="fill:#262626;stroke:#262626;stroke-width:0.8;" x="380.38125" xlink:href="#m9da544528f" y="164.96"/>
      </g>
     </g>
     <g id="text_12">
      <text style="fill:#262626;font-family:DejaVu Sans;font-size:13px;font-style:normal;font-weight:normal;text-anchor:middle;" transform="rotate(-0, 380.38125, 181.837969)" x="380.38125" y="181.837969">proximal</text>
     </g>
    </g>
    <g id="text_13">
     <text style="fill:#262626;font-family:DejaVu Sans;font-size:13px;font-style:normal;font-weight:normal;text-anchor:middle;" transform="rotate(-0, 342.8025, 198.419531)" x="342.8025" y="198.419531">TSS distance</text>
    </g>
   </g>
   <g id="matplotlib.axis_4">
    <g id="ytick_6">
     <g id="line2d_14">
      <g>
       <use style="fill:#262626;stroke:#262626;stroke-width:0.8;" x="267.645" xlink:href="#m882756b8d7" y="155.70428"/>
      </g>
     </g>
     <g id="text_14">
      <text style="fill:#262626;font-family:DejaVu Sans;font-size:13px;font-style:normal;font-weight:normal;text-anchor:end;" transform="rotate(-0, 260.645, 160.643265)" x="260.645" y="160.643265">0.0</text>
     </g>
    </g>
    <g id="ytick_7">
     <g id="line2d_15">
      <g>
       <use style="fill:#262626;stroke:#262626;stroke-width:0.8;" x="267.645" xlink:href="#m882756b8d7" y="104.15948"/>
      </g>
     </g>
     <g id="text_15">
      <text style="fill:#262626;font-family:DejaVu Sans;font-size:13px;font-style:normal;font-weight:normal;text-anchor:end;" transform="rotate(-0, 260.645, 109.098465)" x="260.645" y="109.098465">0.2</text>
     </g>
    </g>
    <g id="ytick_8">
     <g id="line2d_16">
      <g>
       <use style="fill:#262626;stroke:#262626;stroke-width:0.8;" x="267.645" xlink:href="#m882756b8d7" y="52.61468"/>
      </g>
     </g>
     <g id="text_16">
      <text style="fill:#262626;font-family:DejaVu Sans;font-size:13px;font-style:normal;font-weight:normal;text-anchor:end;" transform="rotate(-0, 260.645, 57.553665)" x="260.645" y="57.553665">0.4</text>
     </g>
    </g>
    <g id="text_17">
     <text style="fill:#262626;font-family:DejaVu Sans;font-size:13px;font-style:normal;font-weight:normal;text-anchor:middle;" transform="rotate(-90, 233.267344, 98.5)" x="233.267344" y="98.5">Absolute global rate</text>
    </g>
   </g>
   <g id="PolyCollection_3">
    <defs>
     <path d="M 305.227747 -57.081818 
L 305.219753 -57.081818 
L 305.210735 -58.26369 
L 305.184478 -59.445562 
L 305.108245 -60.627434 
L 304.896142 -61.809306 
L 304.364289 -62.991178 
L 303.203568 -64.17305 
L 301.029019 -65.354922 
L 297.558464 -66.536794 
L 292.883467 -67.718666 
L 287.646217 -68.900539 
L 282.896822 -70.082411 
L 279.628716 -71.264283 
L 278.302241 -72.446155 
L 278.714626 -73.628027 
L 280.291928 -74.809899 
L 282.518928 -75.991771 
L 285.130636 -77.173643 
L 287.985361 -78.355515 
L 290.875398 -79.537387 
L 293.526515 -80.719259 
L 295.755311 -81.901131 
L 297.556397 -83.083003 
L 299.024884 -84.264875 
L 300.245296 -85.446747 
L 301.253323 -86.628619 
L 302.049881 -87.810491 
L 302.635432 -88.992363 
L 303.040713 -90.174235 
L 303.319882 -91.356107 
L 303.517157 -92.537979 
L 303.655988 -93.719851 
L 303.756298 -94.901723 
L 303.840861 -96.083595 
L 303.922477 -97.265467 
L 303.997778 -98.447339 
L 304.057198 -99.629211 
L 304.102729 -100.811083 
L 304.157933 -101.992955 
L 304.252126 -103.174827 
L 304.389412 -104.356699 
L 304.541129 -105.538572 
L 304.67344 -106.720444 
L 304.774083 -107.902316 
L 304.84725 -109.084188 
L 304.894008 -110.26606 
L 304.911455 -111.447932 
L 304.907653 -112.629804 
L 304.901724 -113.811676 
L 304.905544 -114.993548 
L 304.917466 -116.17542 
L 304.935829 -117.357292 
L 304.965805 -118.539164 
L 305.010155 -119.721036 
L 305.061759 -120.902908 
L 305.107482 -122.08478 
L 305.135971 -123.266652 
L 305.141943 -124.448524 
L 305.126285 -125.630396 
L 305.095519 -126.812268 
L 305.062681 -127.99414 
L 305.044747 -129.176012 
L 305.052456 -130.357884 
L 305.0809 -131.539756 
L 305.113152 -132.721628 
L 305.135099 -133.9035 
L 305.145546 -135.085372 
L 305.151162 -136.267244 
L 305.154713 -137.449116 
L 305.152647 -138.630988 
L 305.143648 -139.81286 
L 305.13386 -140.994733 
L 305.131054 -142.176605 
L 305.136786 -143.358477 
L 305.145857 -144.540349 
L 305.151234 -145.722221 
L 305.148856 -146.904093 
L 305.139765 -148.085965 
L 305.128419 -149.267837 
L 305.117794 -150.449709 
L 305.107188 -151.631581 
L 305.097334 -152.813453 
L 305.094892 -153.995325 
L 305.106626 -155.177197 
L 305.13055 -156.359069 
L 305.156491 -157.540941 
L 305.173463 -158.722813 
L 305.175599 -159.904685 
L 305.165609 -161.086557 
L 305.154027 -162.268429 
L 305.150644 -163.450301 
L 305.155256 -164.632173 
L 305.159863 -165.814045 
L 305.159733 -166.995917 
L 305.158924 -168.177789 
L 305.164723 -169.359661 
L 305.179082 -170.541533 
L 305.19676 -171.723405 
L 305.210996 -172.905277 
L 305.219093 -174.087149 
L 305.228407 -174.087149 
L 305.228407 -174.087149 
L 305.236504 -172.905277 
L 305.25074 -171.723405 
L 305.268418 -170.541533 
L 305.282777 -169.359661 
L 305.288576 -168.177789 
L 305.287767 -166.995917 
L 305.287637 -165.814045 
L 305.292244 -164.632173 
L 305.296856 -163.450301 
L 305.293473 -162.268429 
L 305.281891 -161.086557 
L 305.271901 -159.904685 
L 305.274037 -158.722813 
L 305.291009 -157.540941 
L 305.31695 -156.359069 
L 305.340874 -155.177197 
L 305.352608 -153.995325 
L 305.350166 -152.813453 
L 305.340312 -151.631581 
L 305.329706 -150.449709 
L 305.319081 -149.267837 
L 305.307735 -148.085965 
L 305.298644 -146.904093 
L 305.296266 -145.722221 
L 305.301643 -144.540349 
L 305.310714 -143.358477 
L 305.316446 -142.176605 
L 305.31364 -140.994733 
L 305.303852 -139.81286 
L 305.294853 -138.630988 
L 305.292787 -137.449116 
L 305.296338 -136.267244 
L 305.301954 -135.085372 
L 305.312401 -133.9035 
L 305.334348 -132.721628 
L 305.3666 -131.539756 
L 305.395044 -130.357884 
L 305.402753 -129.176012 
L 305.384819 -127.99414 
L 305.351981 -126.812268 
L 305.321215 -125.630396 
L 305.305557 -124.448524 
L 305.311529 -123.266652 
L 305.340018 -122.08478 
L 305.385741 -120.902908 
L 305.437345 -119.721036 
L 305.481695 -118.539164 
L 305.511671 -117.357292 
L 305.530034 -116.17542 
L 305.541956 -114.993548 
L 305.545776 -113.811676 
L 305.539847 -112.629804 
L 305.536045 -111.447932 
L 305.553492 -110.26606 
L 305.60025 -109.084188 
L 305.673417 -107.902316 
L 305.77406 -106.720444 
L 305.906371 -105.538572 
L 306.058088 -104.356699 
L 306.195374 -103.174827 
L 306.289567 -101.992955 
L 306.344771 -100.811083 
L 306.390302 -99.629211 
L 306.449722 -98.447339 
L 306.525023 -97.265467 
L 306.606639 -96.083595 
L 306.691202 -94.901723 
L 306.791512 -93.719851 
L 306.930343 -92.537979 
L 307.127618 -91.356107 
L 307.406787 -90.174235 
L 307.812068 -88.992363 
L 308.397619 -87.810491 
L 309.194177 -86.628619 
L 310.202204 -85.446747 
L 311.422616 -84.264875 
L 312.891103 -83.083003 
L 314.692189 -81.901131 
L 316.920985 -80.719259 
L 319.572102 -79.537387 
L 322.462139 -78.355515 
L 325.316864 -77.173643 
L 327.928572 -75.991771 
L 330.155572 -74.809899 
L 331.732874 -73.628027 
L 332.145259 -72.446155 
L 330.818784 -71.264283 
L 327.550678 -70.082411 
L 322.801283 -68.900539 
L 317.564033 -67.718666 
L 312.889036 -66.536794 
L 309.418481 -65.354922 
L 307.243932 -64.17305 
L 306.083211 -62.991178 
L 305.551358 -61.809306 
L 305.339255 -60.627434 
L 305.263022 -59.445562 
L 305.236765 -58.26369 
L 305.227747 -57.081818 
z
" id="m14936c0087" style="stroke:#3f3f3f;stroke-width:1.5;"/>
    </defs>
    <g clip-path="url(#pb8d91a53a8)">
     <use style="fill:#3274a1;stroke:#3f3f3f;stroke-width:1.5;" x="0" xlink:href="#m14936c0087" y="216"/>
    </g>
   </g>
   <g id="PolyCollection_4">
    <defs>
     <path d="M 380.404421 -59.774334 
L 380.358079 -59.774334 
L 380.263486 -60.967706 
L 379.915285 -62.161078 
L 378.902745 -63.35445 
L 376.584758 -64.547823 
L 372.444512 -65.741195 
L 366.646737 -66.934567 
L 360.195302 -68.127939 
L 354.545813 -69.321311 
L 351.044525 -70.514684 
L 350.31825 -71.708056 
L 351.937417 -72.901428 
L 354.863536 -74.0948 
L 358.237885 -75.288172 
L 361.69976 -76.481545 
L 365.06988 -77.674917 
L 368.031131 -78.868289 
L 370.405472 -80.061661 
L 372.328301 -81.255033 
L 373.914859 -82.448406 
L 375.155432 -83.641778 
L 376.081772 -84.83515 
L 376.789568 -86.028522 
L 377.361029 -87.221894 
L 377.84561 -88.415267 
L 378.279514 -89.608639 
L 378.645264 -90.802011 
L 378.884023 -91.995383 
L 379.009213 -93.188755 
L 379.089556 -94.382128 
L 379.150289 -95.5755 
L 379.211079 -96.768872 
L 379.306692 -97.962244 
L 379.427959 -99.155616 
L 379.544193 -100.348989 
L 379.646935 -101.542361 
L 379.732101 -102.735733 
L 379.800629 -103.929105 
L 379.864743 -105.122477 
L 379.91972 -106.31585 
L 379.957865 -107.509222 
L 379.993307 -108.702594 
L 380.038989 -109.895966 
L 380.090793 -111.089339 
L 380.142616 -112.282711 
L 380.199415 -113.476083 
L 380.257036 -114.669455 
L 380.29432 -115.862827 
L 380.306133 -117.0562 
L 380.312292 -118.249572 
L 380.326058 -119.442944 
L 380.338309 -120.636316 
L 380.336842 -121.829688 
L 380.328183 -123.023061 
L 380.32913 -124.216433 
L 380.339546 -125.409805 
L 380.342081 -126.603177 
L 380.326704 -127.796549 
L 380.29864 -128.989922 
L 380.27121 -130.183294 
L 380.261058 -131.376666 
L 380.278143 -132.570038 
L 380.312438 -133.76341 
L 380.341191 -134.956783 
L 380.355461 -136.150155 
L 380.363842 -137.343527 
L 380.371992 -138.536899 
L 380.377349 -139.730271 
L 380.37701 -140.923644 
L 380.369188 -142.117016 
L 380.355312 -143.310388 
L 380.345545 -144.50376 
L 380.350032 -145.697132 
L 380.363916 -146.890505 
L 380.375098 -148.083877 
L 380.379518 -149.277249 
L 380.379062 -150.470621 
L 380.374109 -151.663993 
L 380.36421 -152.857366 
L 380.352954 -154.050738 
L 380.346694 -155.24411 
L 380.347239 -156.437482 
L 380.351139 -157.630854 
L 380.356086 -158.824227 
L 380.359949 -160.017599 
L 380.357184 -161.210971 
L 380.347884 -162.404343 
L 380.340953 -163.597715 
L 380.335482 -164.791088 
L 380.316203 -165.98446 
L 380.283164 -167.177832 
L 380.261132 -168.371204 
L 380.26514 -169.564576 
L 380.28688 -170.757949 
L 380.313972 -171.951321 
L 380.337072 -173.144693 
L 380.352597 -174.338065 
L 380.364117 -175.531437 
L 380.373358 -176.72481 
L 380.378768 -177.918182 
L 380.383732 -177.918182 
L 380.383732 -177.918182 
L 380.389142 -176.72481 
L 380.398383 -175.531437 
L 380.409903 -174.338065 
L 380.425428 -173.144693 
L 380.448528 -171.951321 
L 380.47562 -170.757949 
L 380.49736 -169.564576 
L 380.501368 -168.371204 
L 380.479336 -167.177832 
L 380.446297 -165.98446 
L 380.427018 -164.791088 
L 380.421547 -163.597715 
L 380.414616 -162.404343 
L 380.405316 -161.210971 
L 380.402551 -160.017599 
L 380.406414 -158.824227 
L 380.411361 -157.630854 
L 380.415261 -156.437482 
L 380.415806 -155.24411 
L 380.409546 -154.050738 
L 380.39829 -152.857366 
L 380.388391 -151.663993 
L 380.383438 -150.470621 
L 380.382982 -149.277249 
L 380.387402 -148.083877 
L 380.398584 -146.890505 
L 380.412468 -145.697132 
L 380.416955 -144.50376 
L 380.407188 -143.310388 
L 380.393312 -142.117016 
L 380.38549 -140.923644 
L 380.385151 -139.730271 
L 380.390508 -138.536899 
L 380.398658 -137.343527 
L 380.407039 -136.150155 
L 380.421309 -134.956783 
L 380.450062 -133.76341 
L 380.484357 -132.570038 
L 380.501442 -131.376666 
L 380.49129 -130.183294 
L 380.46386 -128.989922 
L 380.435796 -127.796549 
L 380.420419 -126.603177 
L 380.422954 -125.409805 
L 380.43337 -124.216433 
L 380.434317 -123.023061 
L 380.425658 -121.829688 
L 380.424191 -120.636316 
L 380.436442 -119.442944 
L 380.450208 -118.249572 
L 380.456367 -117.0562 
L 380.46818 -115.862827 
L 380.505464 -114.669455 
L 380.563085 -113.476083 
L 380.619884 -112.282711 
L 380.671707 -111.089339 
L 380.723511 -109.895966 
L 380.769193 -108.702594 
L 380.804635 -107.509222 
L 380.84278 -106.31585 
L 380.897757 -105.122477 
L 380.961871 -103.929105 
L 381.030399 -102.735733 
L 381.115565 -101.542361 
L 381.218307 -100.348989 
L 381.334541 -99.155616 
L 381.455808 -97.962244 
L 381.551421 -96.768872 
L 381.612211 -95.5755 
L 381.672944 -94.382128 
L 381.753287 -93.188755 
L 381.878477 -91.995383 
L 382.117236 -90.802011 
L 382.482986 -89.608639 
L 382.91689 -88.415267 
L 383.401471 -87.221894 
L 383.972932 -86.028522 
L 384.680728 -84.83515 
L 385.607068 -83.641778 
L 386.847641 -82.448406 
L 388.434199 -81.255033 
L 390.357028 -80.061661 
L 392.731369 -78.868289 
L 395.69262 -77.674917 
L 399.06274 -76.481545 
L 402.524615 -75.288172 
L 405.898964 -74.0948 
L 408.825083 -72.901428 
L 410.44425 -71.708056 
L 409.717975 -70.514684 
L 406.216687 -69.321311 
L 400.567198 -68.127939 
L 394.115763 -66.934567 
L 388.317988 -65.741195 
L 384.177742 -64.547823 
L 381.859755 -63.35445 
L 380.847215 -62.161078 
L 380.499014 -60.967706 
L 380.404421 -59.774334 
z
" id="m7ef42d3007" style="stroke:#3f3f3f;stroke-width:1.5;"/>
    </defs>
    <g clip-path="url(#pb8d91a53a8)">
     <use style="fill:#e1812c;stroke:#3f3f3f;stroke-width:1.5;" x="0" xlink:href="#m7ef42d3007" y="216"/>
    </g>
   </g>
   <g id="line2d_17">
    <path clip-path="url(#pb8d91a53a8)" d="M 305.22375 154.470241 
L 305.22375 125.12182 
" style="fill:none;stroke:#3f3f3f;stroke-linecap:round;stroke-width:1.5;"/>
   </g>
   <g id="line2d_18">
    <path clip-path="url(#pb8d91a53a8)" d="M 305.22375 144.565714 
L 305.22375 136.774397 
" style="fill:none;stroke:#3f3f3f;stroke-linecap:round;stroke-width:4.5;"/>
   </g>
   <g id="line2d_19">
    <path clip-path="url(#pb8d91a53a8)" d="M 380.38125 152.684369 
L 380.38125 127.520096 
" style="fill:none;stroke:#3f3f3f;stroke-linecap:round;stroke-width:1.5;"/>
   </g>
   <g id="line2d_20">
    <path clip-path="url(#pb8d91a53a8)" d="M 380.38125 145.713852 
L 380.38125 138.419175 
" style="fill:none;stroke:#3f3f3f;stroke-linecap:round;stroke-width:4.5;"/>
   </g>
   <g id="patch_6">
    <path d="M 267.645 164.96 
L 267.645 32.04 
" style="fill:none;stroke:#262626;stroke-linecap:square;stroke-linejoin:miter;stroke-width:0.8;"/>
   </g>
   <g id="patch_7">
    <path d="M 267.645 164.96 
L 417.96 164.96 
" style="fill:none;stroke:#262626;stroke-linecap:square;stroke-linejoin:miter;stroke-width:0.8;"/>
   </g>
   <g id="PathCollection_3">
    <g clip-path="url(#pb8d91a53a8)">
     <use style="fill:#ffffff;stroke:#3f3f3f;" x="305.22375" xlink:href="#m2476f59d32" y="141.274073"/>
    </g>
   </g>
   <g id="PathCollection_4">
    <g clip-path="url(#pb8d91a53a8)">
     <use style="fill:#ffffff;stroke:#3f3f3f;" x="380.38125" xlink:href="#m2476f59d32" y="142.715923"/>
    </g>
   </g>
   <g id="text_18">
    <text style="fill:#262626;font-family:DejaVu Sans;font-size:15.6px;font-style:normal;font-weight:normal;text-anchor:middle;" transform="rotate(-0, 342.8025, 26.04)" x="342.8025" y="26.04">Hom. effect size</text>
   </g>
  </g>
  <g id="text_19">
   <text style="fill:#262626;font-family:DejaVu Sans;font-size:15.6px;font-style:normal;font-weight:normal;text-anchor:middle;" transform="rotate(-0, 216, 1.053562)" x="216" y="1.053562">Effect size by gene distance</text>
  </g>
 </g>
 <defs>
  <clipPath id="p14fc097458">
   <rect height="132.92" width="150.315" x="58.665" y="32.04"/>
  </clipPath>
  <clipPath id="pb8d91a53a8">
   <rect height="132.92" width="150.315" x="267.645" y="32.04"/>
  </clipPath>
 </defs>
</svg>
