<?xml version="1.0" encoding="utf-8" standalone="no"?>
<!DOCTYPE svg PUBLIC "-//W3C//DTD SVG 1.1//EN"
  "http://www.w3.org/Graphics/SVG/1.1/DTD/svg11.dtd">
<!-- Created with matplotlib (https://matplotlib.org/) -->
<svg height="290.483125pt" version="1.1" viewBox="0 0 446.715515 290.483125" width="446.715515pt" xmlns="http://www.w3.org/2000/svg" xmlns:xlink="http://www.w3.org/1999/xlink">
 <defs>
  <style type="text/css">
*{stroke-linecap:butt;stroke-linejoin:round;}
  </style>
 </defs>
 <g id="figure_1">
  <g id="patch_1">
   <path d="M 0 290.483125 
L 446.715515 290.483125 
L 446.715515 0 
L 0 0 
z
" style="fill:#ffffff;"/>
  </g>
  <g id="axes_1">
   <g id="patch_2">
    <path d="M 51.455625 247.12 
L 314.495551 247.12 
L 314.495551 91.877647 
L 51.455625 91.877647 
z
" style="fill:#ffffff;"/>
   </g>
   <g id="matplotlib.axis_1">
    <g id="xtick_1">
     <g id="line2d_1">
      <defs>
       <path d="M 0 0 
L 0 3.5 
" id="m3c09e05e3c" style="stroke:#262626;stroke-width:0.8;"/>
      </defs>
      <g>
       <use style="fill:#262626;stroke:#262626;stroke-width:0.8;" x="63.411985" xlink:href="#m3c09e05e3c" y="247.12"/>
      </g>
     </g>
     <g id="text_1">
      <text style="fill:#262626;font-family:DejaVu Sans;font-size:13px;font-style:normal;font-weight:normal;text-anchor:middle;" transform="rotate(-0, 63.411985, 263.997969)" x="63.411985" y="263.997969">0</text>
     </g>
    </g>
    <g id="xtick_2">
     <g id="line2d_2">
      <g>
       <use style="fill:#262626;stroke:#262626;stroke-width:0.8;" x="137.790587" xlink:href="#m3c09e05e3c" y="247.12"/>
      </g>
     </g>
     <g id="text_2">
      <text style="fill:#262626;font-family:DejaVu Sans;font-size:13px;font-style:normal;font-weight:normal;text-anchor:middle;" transform="rotate(-0, 137.790587, 263.997969)" x="137.790587" y="263.997969">200</text>
     </g>
    </g>
    <g id="xtick_3">
     <g id="line2d_3">
      <g>
       <use style="fill:#262626;stroke:#262626;stroke-width:0.8;" x="212.16919" xlink:href="#m3c09e05e3c" y="247.12"/>
      </g>
     </g>
     <g id="text_3">
      <text style="fill:#262626;font-family:DejaVu Sans;font-size:13px;font-style:normal;font-weight:normal;text-anchor:middle;" transform="rotate(-0, 212.16919, 263.997969)" x="212.16919" y="263.997969">400</text>
     </g>
    </g>
    <g id="xtick_4">
     <g id="line2d_4">
      <g>
       <use style="fill:#262626;stroke:#262626;stroke-width:0.8;" x="286.547792" xlink:href="#m3c09e05e3c" y="247.12"/>
      </g>
     </g>
     <g id="text_4">
      <text style="fill:#262626;font-family:DejaVu Sans;font-size:13px;font-style:normal;font-weight:normal;text-anchor:middle;" transform="rotate(-0, 286.547792, 263.997969)" x="286.547792" y="263.997969">600</text>
     </g>
    </g>
    <g id="text_5">
     <text style="fill:#262626;font-family:DejaVu Sans;font-size:13px;font-style:normal;font-weight:normal;text-anchor:middle;" transform="rotate(-0, 182.975588, 280.579531)" x="182.975588" y="280.579531">Cell order</text>
    </g>
   </g>
   <g id="matplotlib.axis_2">
    <g id="ytick_1">
     <g id="line2d_5">
      <defs>
       <path d="M 0 0 
L -3.5 0 
" id="m8d4d6b3691" style="stroke:#262626;stroke-width:0.8;"/>
      </defs>
      <g>
       <use style="fill:#262626;stroke:#262626;stroke-width:0.8;" x="51.455625" xlink:href="#m8d4d6b3691" y="247.12"/>
      </g>
     </g>
     <g id="text_6">
      <text style="fill:#262626;font-family:DejaVu Sans;font-size:13px;font-style:normal;font-weight:normal;text-anchor:end;" transform="rotate(-0, 44.455625, 252.058984)" x="44.455625" y="252.058984">0.0</text>
     </g>
    </g>
    <g id="ytick_2">
     <g id="line2d_6">
      <g>
       <use style="fill:#262626;stroke:#262626;stroke-width:0.8;" x="51.455625" xlink:href="#m8d4d6b3691" y="216.071529"/>
      </g>
     </g>
     <g id="text_7">
      <text style="fill:#262626;font-family:DejaVu Sans;font-size:13px;font-style:normal;font-weight:normal;text-anchor:end;" transform="rotate(-0, 44.455625, 221.010514)" x="44.455625" y="221.010514">0.2</text>
     </g>
    </g>
    <g id="ytick_3">
     <g id="line2d_7">
      <g>
       <use style="fill:#262626;stroke:#262626;stroke-width:0.8;" x="51.455625" xlink:href="#m8d4d6b3691" y="185.023059"/>
      </g>
     </g>
     <g id="text_8">
      <text style="fill:#262626;font-family:DejaVu Sans;font-size:13px;font-style:normal;font-weight:normal;text-anchor:end;" transform="rotate(-0, 44.455625, 189.962043)" x="44.455625" y="189.962043">0.4</text>
     </g>
    </g>
    <g id="ytick_4">
     <g id="line2d_8">
      <g>
       <use style="fill:#262626;stroke:#262626;stroke-width:0.8;" x="51.455625" xlink:href="#m8d4d6b3691" y="153.974588"/>
      </g>
     </g>
     <g id="text_9">
      <text style="fill:#262626;font-family:DejaVu Sans;font-size:13px;font-style:normal;font-weight:normal;text-anchor:end;" transform="rotate(-0, 44.455625, 158.913573)" x="44.455625" y="158.913573">0.6</text>
     </g>
    </g>
    <g id="ytick_5">
     <g id="line2d_9">
      <g>
       <use style="fill:#262626;stroke:#262626;stroke-width:0.8;" x="51.455625" xlink:href="#m8d4d6b3691" y="122.926118"/>
      </g>
     </g>
     <g id="text_10">
      <text style="fill:#262626;font-family:DejaVu Sans;font-size:13px;font-style:normal;font-weight:normal;text-anchor:end;" transform="rotate(-0, 44.455625, 127.865102)" x="44.455625" y="127.865102">0.8</text>
     </g>
    </g>
    <g id="ytick_6">
     <g id="line2d_10">
      <g>
       <use style="fill:#262626;stroke:#262626;stroke-width:0.8;" x="51.455625" xlink:href="#m8d4d6b3691" y="91.877647"/>
      </g>
     </g>
     <g id="text_11">
      <text style="fill:#262626;font-family:DejaVu Sans;font-size:13px;font-style:normal;font-weight:normal;text-anchor:end;" transform="rotate(-0, 44.455625, 96.816631)" x="44.455625" y="96.816631">1.0</text>
     </g>
    </g>
    <g id="text_12">
     <text style="fill:#262626;font-family:DejaVu Sans;font-size:13px;font-style:normal;font-weight:normal;text-anchor:middle;" transform="rotate(-90, 17.077969, 169.498824)" x="17.077969" y="169.498824">Estimated rate</text>
    </g>
   </g>
   <g id="line2d_11">
    <path clip-path="url(#p0d337deaf6)" d="M 63.411985 205.43178 
L 63.783878 204.891689 
L 64.155771 203.819537 
L 64.527664 199.611026 
L 64.899557 197.696177 
L 65.27145 196.857995 
L 65.643343 196.839666 
L 66.015236 196.326956 
L 66.387129 191.148522 
L 66.759022 190.499037 
L 67.130915 190.357553 
L 67.874701 187.943165 
L 68.246594 187.812678 
L 68.99038 186.993091 
L 69.734166 186.804748 
L 70.106059 185.806452 
L 70.477952 185.143339 
L 70.849846 185.044667 
L 71.221739 184.789384 
L 71.593632 184.329187 
L 72.337418 183.972205 
L 72.709311 183.311041 
L 73.081204 183.084803 
L 73.453097 183.058571 
L 73.82499 182.59385 
L 74.196883 182.51168 
L 75.312562 181.815445 
L 76.056348 181.724922 
L 76.800134 181.10791 
L 78.659599 180.800703 
L 80.519064 179.980945 
L 81.634743 179.764032 
L 84.609887 178.830258 
L 85.353673 178.376244 
L 86.841245 178.173652 
L 87.213138 177.852036 
L 87.585031 177.79345 
L 89.072603 177.101675 
L 89.444496 177.060618 
L 90.188282 176.785053 
L 96.13857 175.867175 
L 96.882356 175.652556 
L 97.626142 175.51246 
L 97.998035 175.503163 
L 98.369928 175.265635 
L 99.485607 175.146988 
L 100.229393 174.909132 
L 100.601286 174.892556 
L 101.345072 174.63415 
L 101.716965 174.607041 
L 102.088858 174.377048 
L 103.57643 174.159685 
L 104.320216 173.819065 
L 105.064002 173.720884 
L 105.807789 173.459273 
L 108.782933 173.225574 
L 109.154826 173.0488 
L 110.270505 172.823255 
L 111.014291 172.71178 
L 111.758077 172.56409 
L 112.501863 172.379627 
L 112.873756 172.073694 
L 113.989435 171.866226 
L 115.105114 171.663281 
L 115.477007 171.291507 
L 118.080258 170.536156 
L 119.195937 170.192607 
L 119.56783 169.889868 
L 119.939723 169.886606 
L 121.427295 169.259724 
L 122.171081 169.100647 
L 122.542974 168.951013 
L 123.28676 168.841102 
L 124.030546 168.721347 
L 124.402439 168.287824 
L 127.749476 167.72059 
L 128.493262 167.090801 
L 128.865155 167.040499 
L 129.237048 166.656645 
L 129.608941 166.57495 
L 129.980834 166.074733 
L 130.352727 166.028983 
L 130.72462 165.761159 
L 131.096513 165.690944 
L 132.212192 165.108922 
L 132.584085 164.781556 
L 133.699764 164.309213 
L 134.071657 163.500815 
L 134.44355 163.124728 
L 135.559229 163.098098 
L 136.303015 162.582146 
L 136.674908 162.556178 
L 137.046801 162.301654 
L 137.418694 161.585197 
L 137.790587 161.357564 
L 138.16248 161.349294 
L 138.534373 160.843482 
L 139.278159 160.715939 
L 139.650052 159.838362 
L 140.021945 159.789406 
L 140.765732 159.420039 
L 141.509518 159.364877 
L 141.881411 158.907294 
L 143.368983 158.399773 
L 144.112769 157.944719 
L 144.484662 157.286378 
L 144.856555 156.941982 
L 146.344127 156.432585 
L 146.71602 156.426737 
L 147.087913 156.156776 
L 147.459806 156.148888 
L 147.831699 155.920457 
L 148.575485 155.856095 
L 148.947378 155.61781 
L 150.063057 155.475538 
L 154.525773 153.942701 
L 161.219847 153.01845 
L 161.59174 152.745196 
L 164.566884 152.016461 
L 164.938777 152.013779 
L 166.426349 151.650843 
L 167.170135 151.623653 
L 167.542028 151.409966 
L 168.285814 151.382002 
L 169.401493 151.111338 
L 171.260958 150.830981 
L 172.376637 150.373097 
L 173.492316 150.269337 
L 174.236102 150.135709 
L 174.979889 150.030993 
L 175.723675 149.905421 
L 177.211247 149.673509 
L 178.698819 149.233625 
L 180.186391 149.089702 
L 183.905321 148.277395 
L 184.277214 148.267913 
L 185.392893 147.939122 
L 186.136679 147.826539 
L 190.599395 147.163967 
L 190.971288 146.899707 
L 191.343181 146.899265 
L 192.086967 146.758946 
L 193.574539 146.643663 
L 195.434004 146.23905 
L 195.805897 146.113782 
L 197.293469 146.002757 
L 198.409148 145.834343 
L 198.781041 145.655202 
L 201.384292 145.429809 
L 203.987543 144.580599 
L 205.847008 144.383802 
L 206.590794 144.132305 
L 206.962687 144.124203 
L 208.450259 143.602766 
L 212.16919 143.111563 
L 214.028655 142.497166 
L 214.400548 142.29447 
L 214.772441 142.26893 
L 216.260013 141.683118 
L 217.003799 141.585499 
L 217.747585 141.434792 
L 218.119478 141.420751 
L 218.491371 141.248614 
L 222.210301 140.91799 
L 222.582194 140.596722 
L 226.301124 140.125845 
L 227.04491 139.972123 
L 228.160589 139.738488 
L 228.532482 139.535107 
L 228.904375 139.530931 
L 229.648161 139.261282 
L 232.995198 138.688342 
L 237.829807 138.270587 
L 239.689272 137.930806 
L 240.804951 137.804677 
L 241.92063 137.350198 
L 242.292523 137.159123 
L 243.780095 137.053703 
L 244.523882 137.007892 
L 244.895775 136.719233 
L 246.383347 136.526586 
L 247.127133 136.476217 
L 247.499026 136.253844 
L 251.961742 135.504564 
L 252.333635 135.326338 
L 252.705528 135.305166 
L 253.077421 135.022266 
L 254.1931 134.764842 
L 254.564993 134.629254 
L 254.936886 134.62604 
L 255.680672 134.398835 
L 256.424458 134.357937 
L 256.796351 134.185247 
L 259.399602 133.99252 
L 262.002853 133.453655 
L 262.374746 133.046194 
L 265.34989 132.662992 
L 268.325034 130.91306 
L 268.696927 130.707238 
L 269.812606 130.542359 
L 270.184499 130.379484 
L 270.556392 130.370296 
L 271.300178 130.087097 
L 271.672071 130.082724 
L 273.159643 129.428754 
L 273.531536 129.036639 
L 273.903429 128.460465 
L 274.275322 128.417488 
L 274.647215 128.158038 
L 275.019108 128.152139 
L 275.391001 127.839899 
L 276.50668 127.616521 
L 277.622359 127.474789 
L 277.994252 127.135508 
L 279.853718 126.835363 
L 280.597504 126.540666 
L 280.969397 126.43433 
L 281.34129 125.939393 
L 281.713183 125.677949 
L 282.828862 125.588573 
L 283.200755 125.372817 
L 285.432113 125.122612 
L 285.804006 124.896909 
L 286.175899 124.806165 
L 286.547792 124.536366 
L 287.663471 124.307229 
L 288.77915 123.710618 
L 291.010508 123.275686 
L 291.754294 122.904515 
L 292.869973 122.486583 
L 293.241866 122.09895 
L 293.985652 121.8642 
L 294.729438 121.213783 
L 295.473224 121.004772 
L 295.845117 120.964019 
L 296.21701 120.771356 
L 296.588903 120.763509 
L 296.960796 120.641471 
L 297.332689 120.096728 
L 298.076475 120.040965 
L 299.192154 119.654493 
L 299.564047 119.256784 
L 301.051619 118.936601 
L 301.423512 118.104714 
L 301.795405 115.850575 
L 302.167298 112.235446 
L 302.167298 112.235446 
" style="fill:none;stroke:#696969;stroke-linecap:round;stroke-width:2.25;"/>
   </g>
   <g id="line2d_12">
    <path clip-path="url(#p0d337deaf6)" d="M 87.324706 247.12 
L 87.324706 91.877647 
" style="fill:none;stroke:#808080;stroke-dasharray:5.55,2.4;stroke-dashoffset:0;stroke-width:1.5;"/>
   </g>
   <g id="line2d_13">
    <path clip-path="url(#p0d337deaf6)" d="M 278.626471 247.12 
L 278.626471 91.877647 
" style="fill:none;stroke:#808080;stroke-dasharray:5.55,2.4;stroke-dashoffset:0;stroke-width:1.5;"/>
   </g>
   <g id="line2d_14">
    <path clip-path="url(#p0d337deaf6)" d="M 51.455625 177.840319 
L 314.495551 177.840319 
" style="fill:none;stroke:#808080;stroke-dasharray:5.55,2.4;stroke-dashoffset:0;stroke-width:1.5;"/>
   </g>
   <g id="line2d_15">
    <path clip-path="url(#p0d337deaf6)" d="M 51.455625 127.097045 
L 314.495551 127.097045 
" style="fill:none;stroke:#808080;stroke-dasharray:5.55,2.4;stroke-dashoffset:0;stroke-width:1.5;"/>
   </g>
   <g id="patch_3">
    <path d="M 51.455625 247.12 
L 51.455625 91.877647 
" style="fill:none;stroke:#262626;stroke-linecap:square;stroke-linejoin:miter;stroke-width:0.8;"/>
   </g>
   <g id="patch_4">
    <path d="M 51.455625 247.12 
L 314.495551 247.12 
" style="fill:none;stroke:#262626;stroke-linecap:square;stroke-linejoin:miter;stroke-width:0.8;"/>
   </g>
   <g id="patch_5">
    <path d="M 301.941373 130.212724 
Q 301.941373 152.466351 301.941373 174.719978 
" style="fill:none;stroke:#ff0000;stroke-linecap:round;"/>
    <path d="M 299.341373 135.412724 
L 301.941373 130.212724 
L 304.541373 135.412724 
" style="fill:none;stroke:#ff0000;stroke-linecap:round;"/>
    <path d="M 304.541373 169.519978 
L 301.941373 174.719978 
L 299.341373 169.519978 
" style="fill:none;stroke:#ff0000;stroke-linecap:round;"/>
   </g>
   <g id="text_13">
    <text style="fill:#262626;font-family:DejaVu Sans;font-size:13px;font-style:normal;font-weight:normal;" transform="translate(311.238698 128.428697)">10% quantile </text>
    <text style="fill:#262626;font-family:DejaVu Sans;font-size:13px;font-style:normal;font-weight:normal;" transform="translate(311.238698 142.985853)">difference </text>
    <text style="fill:#262626;font-family:DejaVu Sans;font-size:13px;font-style:normal;font-weight:normal;" transform="translate(311.238698 157.54301)">(effect size)</text>
   </g>
  </g>
  <g id="axes_2">
   <g id="patch_6">
    <path d="M 51.455625 77.764706 
L 314.495551 77.764706 
L 314.495551 7.2 
L 51.455625 7.2 
z
" style="fill:#ffffff;"/>
   </g>
   <g id="matplotlib.axis_3">
    <g id="xtick_5">
     <g id="line2d_16">
      <g>
       <use style="fill:#262626;stroke:#262626;stroke-width:0.8;" x="63.411985" xlink:href="#m3c09e05e3c" y="77.764706"/>
      </g>
     </g>
    </g>
    <g id="xtick_6">
     <g id="line2d_17">
      <g>
       <use style="fill:#262626;stroke:#262626;stroke-width:0.8;" x="137.790587" xlink:href="#m3c09e05e3c" y="77.764706"/>
      </g>
     </g>
    </g>
    <g id="xtick_7">
     <g id="line2d_18">
      <g>
       <use style="fill:#262626;stroke:#262626;stroke-width:0.8;" x="212.16919" xlink:href="#m3c09e05e3c" y="77.764706"/>
      </g>
     </g>
    </g>
    <g id="xtick_8">
     <g id="line2d_19">
      <g>
       <use style="fill:#262626;stroke:#262626;stroke-width:0.8;" x="286.547792" xlink:href="#m3c09e05e3c" y="77.764706"/>
      </g>
     </g>
    </g>
   </g>
   <g id="matplotlib.axis_4">
    <g id="ytick_7"/>
    <g id="ytick_8"/>
   </g>
   <g id="PolyCollection_1">
    <defs>
     <path d="M 63.411985 -217.964291 
L 63.411985 -212.718419 
L 64.61363 -212.718419 
L 65.815274 -212.718419 
L 67.016918 -212.718419 
L 68.218562 -212.718419 
L 69.420207 -212.718419 
L 70.621851 -212.718419 
L 71.823495 -212.718419 
L 73.025139 -212.718419 
L 74.226784 -212.718419 
L 75.428428 -212.718419 
L 76.630072 -212.718419 
L 77.831716 -212.718419 
L 79.033361 -212.718419 
L 80.235005 -212.718419 
L 81.436649 -212.718419 
L 82.638293 -212.718419 
L 83.839938 -212.718419 
L 85.041582 -212.718419 
L 86.243226 -212.718419 
L 87.44487 -212.718419 
L 88.646515 -212.718419 
L 89.848159 -212.718419 
L 91.049803 -212.718419 
L 92.251447 -212.718419 
L 93.453092 -212.718419 
L 94.654736 -212.718419 
L 95.85638 -212.718419 
L 97.058024 -212.718419 
L 98.259669 -212.718419 
L 99.461313 -212.718419 
L 100.662957 -212.718419 
L 101.864601 -212.718419 
L 103.066246 -212.718419 
L 104.26789 -212.718419 
L 105.469534 -212.718419 
L 106.671178 -212.718419 
L 107.872823 -212.718419 
L 109.074467 -212.718419 
L 110.276111 -212.718419 
L 111.477755 -212.718419 
L 112.6794 -212.718419 
L 113.881044 -212.718419 
L 115.082688 -212.718419 
L 116.284332 -212.718419 
L 117.485977 -212.718419 
L 118.687621 -212.718419 
L 119.889265 -212.718419 
L 121.090909 -212.718419 
L 122.292554 -212.718419 
L 123.494198 -212.718419 
L 124.695842 -212.718419 
L 125.897486 -212.718419 
L 127.099131 -212.718419 
L 128.300775 -212.718419 
L 129.502419 -212.718419 
L 130.704063 -212.718419 
L 131.905708 -212.718419 
L 133.107352 -212.718419 
L 134.308996 -212.718419 
L 135.51064 -212.718419 
L 136.712285 -212.718419 
L 137.913929 -212.718419 
L 139.115573 -212.718419 
L 140.317217 -212.718419 
L 141.518862 -212.718419 
L 142.720506 -212.718419 
L 143.92215 -212.718419 
L 145.123794 -212.718419 
L 146.325439 -212.718419 
L 147.527083 -212.718419 
L 148.728727 -212.718419 
L 149.930371 -212.718419 
L 151.132016 -212.718419 
L 152.33366 -212.718419 
L 153.535304 -212.718419 
L 154.736948 -212.718419 
L 155.938593 -212.718419 
L 157.140237 -212.718419 
L 158.341881 -212.718419 
L 159.543525 -212.718419 
L 160.74517 -212.718419 
L 161.946814 -212.718419 
L 163.148458 -212.718419 
L 164.350102 -212.718419 
L 165.551747 -212.718419 
L 166.753391 -212.718419 
L 167.955035 -212.718419 
L 169.156679 -212.718419 
L 170.358324 -212.718419 
L 171.559968 -212.718419 
L 172.761612 -212.718419 
L 173.963256 -212.718419 
L 175.164901 -212.718419 
L 176.366545 -212.718419 
L 177.568189 -212.718419 
L 178.769833 -212.718419 
L 179.971478 -212.718419 
L 181.173122 -212.718419 
L 182.374766 -212.718419 
L 183.57641 -212.718419 
L 184.778055 -212.718419 
L 185.979699 -212.718419 
L 187.181343 -212.718419 
L 188.382987 -212.718419 
L 189.584632 -212.718419 
L 190.786276 -212.718419 
L 191.98792 -212.718419 
L 193.189564 -212.718419 
L 194.391209 -212.718419 
L 195.592853 -212.718419 
L 196.794497 -212.718419 
L 197.996141 -212.718419 
L 199.197786 -212.718419 
L 200.39943 -212.718419 
L 201.601074 -212.718419 
L 202.802718 -212.718419 
L 204.004363 -212.718419 
L 205.206007 -212.718419 
L 206.407651 -212.718419 
L 207.609295 -212.718419 
L 208.81094 -212.718419 
L 210.012584 -212.718419 
L 211.214228 -212.718419 
L 212.415872 -212.718419 
L 213.617517 -212.718419 
L 214.819161 -212.718419 
L 216.020805 -212.718419 
L 217.222449 -212.718419 
L 218.424094 -212.718419 
L 219.625738 -212.718419 
L 220.827382 -212.718419 
L 222.029026 -212.718419 
L 223.230671 -212.718419 
L 224.432315 -212.718419 
L 225.633959 -212.718419 
L 226.835603 -212.718419 
L 228.037248 -212.718419 
L 229.238892 -212.718419 
L 230.440536 -212.718419 
L 231.64218 -212.718419 
L 232.843825 -212.718419 
L 234.045469 -212.718419 
L 235.247113 -212.718419 
L 236.448757 -212.718419 
L 237.650402 -212.718419 
L 238.852046 -212.718419 
L 240.05369 -212.718419 
L 241.255334 -212.718419 
L 242.456979 -212.718419 
L 243.658623 -212.718419 
L 244.860267 -212.718419 
L 246.061911 -212.718419 
L 247.263556 -212.718419 
L 248.4652 -212.718419 
L 249.666844 -212.718419 
L 250.868488 -212.718419 
L 252.070133 -212.718419 
L 253.271777 -212.718419 
L 254.473421 -212.718419 
L 255.675065 -212.718419 
L 256.87671 -212.718419 
L 258.078354 -212.718419 
L 259.279998 -212.718419 
L 260.481642 -212.718419 
L 261.683287 -212.718419 
L 262.884931 -212.718419 
L 264.086575 -212.718419 
L 265.288219 -212.718419 
L 266.489864 -212.718419 
L 267.691508 -212.718419 
L 268.893152 -212.718419 
L 270.094796 -212.718419 
L 271.296441 -212.718419 
L 272.498085 -212.718419 
L 273.699729 -212.718419 
L 274.901373 -212.718419 
L 276.103018 -212.718419 
L 277.304662 -212.718419 
L 278.506306 -212.718419 
L 279.70795 -212.718419 
L 280.909595 -212.718419 
L 282.111239 -212.718419 
L 283.312883 -212.718419 
L 284.514527 -212.718419 
L 285.716172 -212.718419 
L 286.917816 -212.718419 
L 288.11946 -212.718419 
L 289.321104 -212.718419 
L 290.522749 -212.718419 
L 291.724393 -212.718419 
L 292.926037 -212.718419 
L 294.127681 -212.718419 
L 295.329326 -212.718419 
L 296.53097 -212.718419 
L 297.732614 -212.718419 
L 298.934258 -212.718419 
L 300.135903 -212.718419 
L 301.337547 -212.718419 
L 302.539191 -212.718419 
L 302.539191 -219.98926 
L 302.539191 -219.98926 
L 301.337547 -220.276358 
L 300.135903 -220.563079 
L 298.934258 -220.848875 
L 297.732614 -221.133228 
L 296.53097 -221.41566 
L 295.329326 -221.695735 
L 294.127681 -221.973065 
L 292.926037 -222.247313 
L 291.724393 -222.518193 
L 290.522749 -222.785478 
L 289.321104 -223.048997 
L 288.11946 -223.308635 
L 286.917816 -223.564336 
L 285.716172 -223.816098 
L 284.514527 -224.063975 
L 283.312883 -224.308068 
L 282.111239 -224.548528 
L 280.909595 -224.785547 
L 279.70795 -225.019355 
L 278.506306 -225.250215 
L 277.304662 -225.478413 
L 276.103018 -225.704258 
L 274.901373 -225.928071 
L 273.699729 -226.150181 
L 272.498085 -226.370916 
L 271.296441 -226.590598 
L 270.094796 -226.809538 
L 268.893152 -227.028028 
L 267.691508 -227.246338 
L 266.489864 -227.464708 
L 265.288219 -227.683348 
L 264.086575 -227.902432 
L 262.884931 -228.122097 
L 261.683287 -228.342441 
L 260.481642 -228.563519 
L 259.279998 -228.785348 
L 258.078354 -229.007906 
L 256.87671 -229.231133 
L 255.675065 -229.454933 
L 254.473421 -229.679181 
L 253.271777 -229.903722 
L 252.070133 -230.128379 
L 250.868488 -230.35296 
L 249.666844 -230.577257 
L 248.4652 -230.80106 
L 247.263556 -231.024156 
L 246.061911 -231.246342 
L 244.860267 -231.467424 
L 243.658623 -231.687229 
L 242.456979 -231.905607 
L 241.255334 -232.122438 
L 240.05369 -232.337635 
L 238.852046 -232.551149 
L 237.650402 -232.762971 
L 236.448757 -232.973135 
L 235.247113 -233.181718 
L 234.045469 -233.388841 
L 232.843825 -233.594669 
L 231.64218 -233.799406 
L 230.440536 -234.003294 
L 229.238892 -234.20661 
L 228.037248 -234.409659 
L 226.835603 -234.612767 
L 225.633959 -234.816278 
L 224.432315 -235.020541 
L 223.230671 -235.225908 
L 222.029026 -235.43272 
L 220.827382 -235.641303 
L 219.625738 -235.851953 
L 218.424094 -236.064933 
L 217.222449 -236.280461 
L 216.020805 -236.498702 
L 214.819161 -236.71976 
L 213.617517 -236.943672 
L 212.415872 -237.170401 
L 211.214228 -237.399831 
L 210.012584 -237.631762 
L 208.81094 -237.865907 
L 207.609295 -238.101893 
L 206.407651 -238.339257 
L 205.206007 -238.577448 
L 204.004363 -238.815834 
L 202.802718 -239.053699 
L 201.601074 -239.290251 
L 200.39943 -239.524632 
L 199.197786 -239.755917 
L 197.996141 -239.983134 
L 196.794497 -240.205264 
L 195.592853 -240.421255 
L 194.391209 -240.630036 
L 193.189564 -240.830523 
L 191.98792 -241.021633 
L 190.786276 -241.2023 
L 189.584632 -241.37148 
L 188.382987 -241.528166 
L 187.181343 -241.671402 
L 185.979699 -241.800287 
L 184.778055 -241.913993 
L 183.57641 -242.011766 
L 182.374766 -242.092939 
L 181.173122 -242.15694 
L 179.971478 -242.203292 
L 178.769833 -242.231625 
L 177.568189 -242.241674 
L 176.366545 -242.23328 
L 175.164901 -242.206398 
L 173.963256 -242.161088 
L 172.761612 -242.097516 
L 171.559968 -242.015955 
L 170.358324 -241.916772 
L 169.156679 -241.800432 
L 167.955035 -241.667485 
L 166.753391 -241.518562 
L 165.551747 -241.354363 
L 164.350102 -241.175655 
L 163.148458 -240.983258 
L 161.946814 -240.778037 
L 160.74517 -240.560892 
L 159.543525 -240.332748 
L 158.341881 -240.094548 
L 157.140237 -239.84724 
L 155.938593 -239.59177 
L 154.736948 -239.329073 
L 153.535304 -239.060064 
L 152.33366 -238.785633 
L 151.132016 -238.506635 
L 149.930371 -238.223884 
L 148.728727 -237.938152 
L 147.527083 -237.650158 
L 146.325439 -237.360572 
L 145.123794 -237.070004 
L 143.92215 -236.779009 
L 142.720506 -236.488081 
L 141.518862 -236.197655 
L 140.317217 -235.908107 
L 139.115573 -235.619756 
L 137.913929 -235.332863 
L 136.712285 -235.047635 
L 135.51064 -234.764227 
L 134.308996 -234.482747 
L 133.107352 -234.203255 
L 131.905708 -233.925771 
L 130.704063 -233.650276 
L 129.502419 -233.376716 
L 128.300775 -233.105009 
L 127.099131 -232.835042 
L 125.897486 -232.566682 
L 124.695842 -232.299776 
L 123.494198 -232.034154 
L 122.292554 -231.769633 
L 121.090909 -231.50602 
L 119.889265 -231.243114 
L 118.687621 -230.980712 
L 117.485977 -230.718605 
L 116.284332 -230.456586 
L 115.082688 -230.194449 
L 113.881044 -229.93199 
L 112.6794 -229.669013 
L 111.477755 -229.405325 
L 110.276111 -229.140742 
L 109.074467 -228.87509 
L 107.872823 -228.608202 
L 106.671178 -228.339927 
L 105.469534 -228.07012 
L 104.26789 -227.798656 
L 103.066246 -227.52542 
L 101.864601 -227.250314 
L 100.662957 -226.973257 
L 99.461313 -226.694185 
L 98.259669 -226.413053 
L 97.058024 -226.129838 
L 95.85638 -225.844535 
L 94.654736 -225.557162 
L 93.453092 -225.267761 
L 92.251447 -224.976396 
L 91.049803 -224.683155 
L 89.848159 -224.388152 
L 88.646515 -224.091527 
L 87.44487 -223.793441 
L 86.243226 -223.494085 
L 85.041582 -223.193672 
L 83.839938 -222.89244 
L 82.638293 -222.590649 
L 81.436649 -222.288583 
L 80.235005 -221.986548 
L 79.033361 -221.684866 
L 77.831716 -221.383879 
L 76.630072 -221.083944 
L 75.428428 -220.785432 
L 74.226784 -220.488724 
L 73.025139 -220.194208 
L 71.823495 -219.902282 
L 70.621851 -219.613341 
L 69.420207 -219.327784 
L 68.218562 -219.046005 
L 67.016918 -218.768392 
L 65.815274 -218.495326 
L 64.61363 -218.227175 
L 63.411985 -217.964291 
z
" id="ma95f2aaf40" style="stroke:#808080;"/>
    </defs>
    <g clip-path="url(#p340db67872)">
     <use style="fill:#808080;fill-opacity:0.25;stroke:#808080;" x="0" xlink:href="#ma95f2aaf40" y="290.483125"/>
    </g>
   </g>
   <g id="PolyCollection_2">
    <defs>
     <path d="M 63.411985 -246.597096 
L 63.411985 -212.718419 
L 64.032017 -212.718419 
L 64.652048 -212.718419 
L 65.272079 -212.718419 
L 65.89211 -212.718419 
L 66.512141 -212.718419 
L 67.132173 -212.718419 
L 67.752204 -212.718419 
L 68.372235 -212.718419 
L 68.992266 -212.718419 
L 69.612297 -212.718419 
L 70.232329 -212.718419 
L 70.85236 -212.718419 
L 71.472391 -212.718419 
L 72.092422 -212.718419 
L 72.712454 -212.718419 
L 73.332485 -212.718419 
L 73.952516 -212.718419 
L 74.572547 -212.718419 
L 75.192578 -212.718419 
L 75.81261 -212.718419 
L 76.432641 -212.718419 
L 77.052672 -212.718419 
L 77.672703 -212.718419 
L 78.292734 -212.718419 
L 78.912766 -212.718419 
L 79.532797 -212.718419 
L 80.152828 -212.718419 
L 80.772859 -212.718419 
L 81.392891 -212.718419 
L 82.012922 -212.718419 
L 82.632953 -212.718419 
L 83.252984 -212.718419 
L 83.873015 -212.718419 
L 84.493047 -212.718419 
L 85.113078 -212.718419 
L 85.733109 -212.718419 
L 86.35314 -212.718419 
L 86.973171 -212.718419 
L 87.593203 -212.718419 
L 88.213234 -212.718419 
L 88.833265 -212.718419 
L 89.453296 -212.718419 
L 90.073328 -212.718419 
L 90.693359 -212.718419 
L 91.31339 -212.718419 
L 91.933421 -212.718419 
L 92.553452 -212.718419 
L 93.173484 -212.718419 
L 93.793515 -212.718419 
L 94.413546 -212.718419 
L 95.033577 -212.718419 
L 95.653608 -212.718419 
L 96.27364 -212.718419 
L 96.893671 -212.718419 
L 97.513702 -212.718419 
L 98.133733 -212.718419 
L 98.753765 -212.718419 
L 99.373796 -212.718419 
L 99.993827 -212.718419 
L 100.613858 -212.718419 
L 101.233889 -212.718419 
L 101.853921 -212.718419 
L 102.473952 -212.718419 
L 103.093983 -212.718419 
L 103.714014 -212.718419 
L 104.334045 -212.718419 
L 104.954077 -212.718419 
L 105.574108 -212.718419 
L 106.194139 -212.718419 
L 106.81417 -212.718419 
L 107.434202 -212.718419 
L 108.054233 -212.718419 
L 108.674264 -212.718419 
L 109.294295 -212.718419 
L 109.914326 -212.718419 
L 110.534358 -212.718419 
L 111.154389 -212.718419 
L 111.77442 -212.718419 
L 112.394451 -212.718419 
L 113.014482 -212.718419 
L 113.634514 -212.718419 
L 114.254545 -212.718419 
L 114.874576 -212.718419 
L 115.494607 -212.718419 
L 116.114639 -212.718419 
L 116.73467 -212.718419 
L 117.354701 -212.718419 
L 117.974732 -212.718419 
L 118.594763 -212.718419 
L 119.214795 -212.718419 
L 119.834826 -212.718419 
L 120.454857 -212.718419 
L 121.074888 -212.718419 
L 121.694919 -212.718419 
L 122.314951 -212.718419 
L 122.934982 -212.718419 
L 123.555013 -212.718419 
L 124.175044 -212.718419 
L 124.795076 -212.718419 
L 125.415107 -212.718419 
L 126.035138 -212.718419 
L 126.655169 -212.718419 
L 127.2752 -212.718419 
L 127.895232 -212.718419 
L 128.515263 -212.718419 
L 129.135294 -212.718419 
L 129.755325 -212.718419 
L 130.375356 -212.718419 
L 130.995388 -212.718419 
L 131.615419 -212.718419 
L 132.23545 -212.718419 
L 132.855481 -212.718419 
L 133.475513 -212.718419 
L 134.095544 -212.718419 
L 134.715575 -212.718419 
L 135.335606 -212.718419 
L 135.955637 -212.718419 
L 136.575669 -212.718419 
L 137.1957 -212.718419 
L 137.815731 -212.718419 
L 138.435762 -212.718419 
L 139.055793 -212.718419 
L 139.675825 -212.718419 
L 140.295856 -212.718419 
L 140.915887 -212.718419 
L 141.535918 -212.718419 
L 142.15595 -212.718419 
L 142.775981 -212.718419 
L 143.396012 -212.718419 
L 144.016043 -212.718419 
L 144.636074 -212.718419 
L 145.256106 -212.718419 
L 145.876137 -212.718419 
L 146.496168 -212.718419 
L 147.116199 -212.718419 
L 147.736231 -212.718419 
L 148.356262 -212.718419 
L 148.976293 -212.718419 
L 149.596324 -212.718419 
L 150.216355 -212.718419 
L 150.836387 -212.718419 
L 151.456418 -212.718419 
L 152.076449 -212.718419 
L 152.69648 -212.718419 
L 153.316511 -212.718419 
L 153.936543 -212.718419 
L 154.556574 -212.718419 
L 155.176605 -212.718419 
L 155.796636 -212.718419 
L 156.416668 -212.718419 
L 157.036699 -212.718419 
L 157.65673 -212.718419 
L 158.276761 -212.718419 
L 158.896792 -212.718419 
L 159.516824 -212.718419 
L 160.136855 -212.718419 
L 160.756886 -212.718419 
L 161.376917 -212.718419 
L 161.996948 -212.718419 
L 162.61698 -212.718419 
L 163.237011 -212.718419 
L 163.857042 -212.718419 
L 164.477073 -212.718419 
L 165.097105 -212.718419 
L 165.717136 -212.718419 
L 166.337167 -212.718419 
L 166.957198 -212.718419 
L 167.577229 -212.718419 
L 168.197261 -212.718419 
L 168.817292 -212.718419 
L 169.437323 -212.718419 
L 170.057354 -212.718419 
L 170.677385 -212.718419 
L 171.297417 -212.718419 
L 171.917448 -212.718419 
L 172.537479 -212.718419 
L 173.15751 -212.718419 
L 173.777542 -212.718419 
L 174.397573 -212.718419 
L 175.017604 -212.718419 
L 175.637635 -212.718419 
L 176.257666 -212.718419 
L 176.877698 -212.718419 
L 177.497729 -212.718419 
L 178.11776 -212.718419 
L 178.737791 -212.718419 
L 179.357822 -212.718419 
L 179.977854 -212.718419 
L 180.597885 -212.718419 
L 181.217916 -212.718419 
L 181.837947 -212.718419 
L 182.457979 -212.718419 
L 183.07801 -212.718419 
L 183.698041 -212.718419 
L 184.318072 -212.718419 
L 184.938103 -212.718419 
L 185.558135 -212.718419 
L 186.178166 -212.718419 
L 186.798197 -212.718419 
L 186.798197 -212.740048 
L 186.798197 -212.740048 
L 186.178166 -212.745696 
L 185.558135 -212.752626 
L 184.938103 -212.761076 
L 184.318072 -212.771315 
L 183.698041 -212.783645 
L 183.07801 -212.798398 
L 182.457979 -212.81594 
L 181.837947 -212.836666 
L 181.217916 -212.860998 
L 180.597885 -212.88938 
L 179.977854 -212.922275 
L 179.357822 -212.960151 
L 178.737791 -213.003481 
L 178.11776 -213.052724 
L 177.497729 -213.108318 
L 176.877698 -213.170665 
L 176.257666 -213.24012 
L 175.637635 -213.316969 
L 175.017604 -213.401422 
L 174.397573 -213.493597 
L 173.777542 -213.593505 
L 173.15751 -213.701042 
L 172.537479 -213.815976 
L 171.917448 -213.937949 
L 171.297417 -214.066469 
L 170.677385 -214.200918 
L 170.057354 -214.340553 
L 169.437323 -214.484528 
L 168.817292 -214.631904 
L 168.197261 -214.781677 
L 167.577229 -214.9328 
L 166.957198 -215.084221 
L 166.337167 -215.234912 
L 165.717136 -215.383912 
L 165.097105 -215.530361 
L 164.477073 -215.67354 
L 163.857042 -215.812912 
L 163.237011 -215.948154 
L 162.61698 -216.079191 
L 161.996948 -216.206221 
L 161.376917 -216.329742 
L 160.756886 -216.450564 
L 160.136855 -216.569816 
L 159.516824 -216.688952 
L 158.896792 -216.809743 
L 158.276761 -216.934263 
L 157.65673 -217.06487 
L 157.036699 -217.20418 
L 156.416668 -217.355036 
L 155.796636 -217.520472 
L 155.176605 -217.70367 
L 154.556574 -217.907924 
L 153.936543 -218.13659 
L 153.316511 -218.393045 
L 152.69648 -218.680641 
L 152.076449 -219.002661 
L 151.456418 -219.36228 
L 150.836387 -219.762521 
L 150.216355 -220.206223 
L 149.596324 -220.696002 
L 148.976293 -221.234221 
L 148.356262 -221.822963 
L 147.736231 -222.464004 
L 147.116199 -223.158791 
L 146.496168 -223.908421 
L 145.876137 -224.713626 
L 145.256106 -225.574752 
L 144.636074 -226.491752 
L 144.016043 -227.464169 
L 143.396012 -228.491131 
L 142.775981 -229.571337 
L 142.15595 -230.703057 
L 141.535918 -231.884126 
L 140.915887 -233.111941 
L 140.295856 -234.383467 
L 139.675825 -235.695238 
L 139.055793 -237.043372 
L 138.435762 -238.423584 
L 137.815731 -239.831208 
L 137.1957 -241.261225 
L 136.575669 -242.708302 
L 135.955637 -244.166832 
L 135.335606 -245.630988 
L 134.715575 -247.094782 
L 134.095544 -248.552134 
L 133.475513 -249.996946 
L 132.855481 -251.423181 
L 132.23545 -252.824951 
L 131.615419 -254.196598 
L 130.995388 -255.532784 
L 130.375356 -256.828576 
L 129.755325 -258.07952 
L 129.135294 -259.281716 
L 128.515263 -260.431877 
L 127.895232 -261.527374 
L 127.2752 -262.566276 
L 126.655169 -263.547359 
L 126.035138 -264.47011 
L 125.415107 -265.334711 
L 124.795076 -266.142002 
L 124.175044 -266.893431 
L 123.555013 -267.590991 
L 122.934982 -268.23714 
L 122.314951 -268.834719 
L 121.694919 -269.38686 
L 121.074888 -269.896887 
L 120.454857 -270.368225 
L 119.834826 -270.804313 
L 119.214795 -271.208517 
L 118.594763 -271.58406 
L 117.974732 -271.933963 
L 117.354701 -272.261 
L 116.73467 -272.567663 
L 116.114639 -272.856157 
L 115.494607 -273.128389 
L 114.874576 -273.38599 
L 114.254545 -273.630338 
L 113.634514 -273.862595 
L 113.014482 -274.083746 
L 112.394451 -274.294654 
L 111.77442 -274.496098 
L 111.154389 -274.688827 
L 110.534358 -274.873596 
L 109.914326 -275.051203 
L 109.294295 -275.222511 
L 108.674264 -275.388463 
L 108.054233 -275.550086 
L 107.434202 -275.708483 
L 106.81417 -275.864811 
L 106.194139 -276.020255 
L 105.574108 -276.175991 
L 104.954077 -276.333143 
L 104.334045 -276.492739 
L 103.714014 -276.655665 
L 103.093983 -276.822616 
L 102.473952 -276.994063 
L 101.853921 -277.170214 
L 101.233889 -277.350992 
L 100.613858 -277.536016 
L 99.993827 -277.724601 
L 99.373796 -277.91576 
L 98.753765 -278.108227 
L 98.133733 -278.30048 
L 97.513702 -278.490782 
L 96.893671 -278.677227 
L 96.27364 -278.857789 
L 95.653608 -279.030382 
L 95.033577 -279.192915 
L 94.413546 -279.343354 
L 93.793515 -279.47977 
L 93.173484 -279.600398 
L 92.553452 -279.703673 
L 91.933421 -279.788273 
L 91.31339 -279.853136 
L 90.693359 -279.897483 
L 90.073328 -279.920813 
L 89.453296 -279.922901 
L 88.833265 -279.90377 
L 88.213234 -279.863661 
L 87.593203 -279.802989 
L 86.973171 -279.72229 
L 86.35314 -279.622155 
L 85.733109 -279.503165 
L 85.113078 -279.365817 
L 84.493047 -279.210448 
L 83.873015 -279.037162 
L 83.252984 -278.845755 
L 82.632953 -278.635652 
L 82.012922 -278.405846 
L 81.392891 -278.154851 
L 80.772859 -277.880668 
L 80.152828 -277.580761 
L 79.532797 -277.252057 
L 78.912766 -276.890959 
L 78.292734 -276.493377 
L 77.672703 -276.054786 
L 77.052672 -275.570289 
L 76.432641 -275.034716 
L 75.81261 -274.442723 
L 75.192578 -273.788918 
L 74.572547 -273.067998 
L 73.952516 -272.274886 
L 73.332485 -271.404888 
L 72.712454 -270.453841 
L 72.092422 -269.418263 
L 71.472391 -268.295496 
L 70.85236 -267.083838 
L 70.232329 -265.782652 
L 69.612297 -264.39247 
L 68.992266 -262.915053 
L 68.372235 -261.353443 
L 67.752204 -259.711967 
L 67.132173 -257.996228 
L 66.512141 -256.213048 
L 65.89211 -254.370389 
L 65.272079 -252.477241 
L 64.652048 -250.543483 
L 64.032017 -248.579719 
L 63.411985 -246.597096 
z
" id="md1b843cb33" style="stroke:#aec7e8;"/>
    </defs>
    <g clip-path="url(#p340db67872)">
     <use style="fill:#aec7e8;fill-opacity:0.25;stroke:#aec7e8;" x="0" xlink:href="#md1b843cb33" y="290.483125"/>
    </g>
   </g>
   <g id="PolyCollection_3">
    <defs>
     <path d="M 90.596055 -212.735653 
L 90.596055 -212.718419 
L 91.661096 -212.718419 
L 92.726136 -212.718419 
L 93.791177 -212.718419 
L 94.856218 -212.718419 
L 95.921259 -212.718419 
L 96.9863 -212.718419 
L 98.051341 -212.718419 
L 99.116382 -212.718419 
L 100.181423 -212.718419 
L 101.246463 -212.718419 
L 102.311504 -212.718419 
L 103.376545 -212.718419 
L 104.441586 -212.718419 
L 105.506627 -212.718419 
L 106.571668 -212.718419 
L 107.636709 -212.718419 
L 108.70175 -212.718419 
L 109.766791 -212.718419 
L 110.831831 -212.718419 
L 111.896872 -212.718419 
L 112.961913 -212.718419 
L 114.026954 -212.718419 
L 115.091995 -212.718419 
L 116.157036 -212.718419 
L 117.222077 -212.718419 
L 118.287118 -212.718419 
L 119.352159 -212.718419 
L 120.417199 -212.718419 
L 121.48224 -212.718419 
L 122.547281 -212.718419 
L 123.612322 -212.718419 
L 124.677363 -212.718419 
L 125.742404 -212.718419 
L 126.807445 -212.718419 
L 127.872486 -212.718419 
L 128.937527 -212.718419 
L 130.002567 -212.718419 
L 131.067608 -212.718419 
L 132.132649 -212.718419 
L 133.19769 -212.718419 
L 134.262731 -212.718419 
L 135.327772 -212.718419 
L 136.392813 -212.718419 
L 137.457854 -212.718419 
L 138.522895 -212.718419 
L 139.587935 -212.718419 
L 140.652976 -212.718419 
L 141.718017 -212.718419 
L 142.783058 -212.718419 
L 143.848099 -212.718419 
L 144.91314 -212.718419 
L 145.978181 -212.718419 
L 147.043222 -212.718419 
L 148.108263 -212.718419 
L 149.173303 -212.718419 
L 150.238344 -212.718419 
L 151.303385 -212.718419 
L 152.368426 -212.718419 
L 153.433467 -212.718419 
L 154.498508 -212.718419 
L 155.563549 -212.718419 
L 156.62859 -212.718419 
L 157.693631 -212.718419 
L 158.758671 -212.718419 
L 159.823712 -212.718419 
L 160.888753 -212.718419 
L 161.953794 -212.718419 
L 163.018835 -212.718419 
L 164.083876 -212.718419 
L 165.148917 -212.718419 
L 166.213958 -212.718419 
L 167.278999 -212.718419 
L 168.344039 -212.718419 
L 169.40908 -212.718419 
L 170.474121 -212.718419 
L 171.539162 -212.718419 
L 172.604203 -212.718419 
L 173.669244 -212.718419 
L 174.734285 -212.718419 
L 175.799326 -212.718419 
L 176.864366 -212.718419 
L 177.929407 -212.718419 
L 178.994448 -212.718419 
L 180.059489 -212.718419 
L 181.12453 -212.718419 
L 182.189571 -212.718419 
L 183.254612 -212.718419 
L 184.319653 -212.718419 
L 185.384694 -212.718419 
L 186.449734 -212.718419 
L 187.514775 -212.718419 
L 188.579816 -212.718419 
L 189.644857 -212.718419 
L 190.709898 -212.718419 
L 191.774939 -212.718419 
L 192.83998 -212.718419 
L 193.905021 -212.718419 
L 194.970062 -212.718419 
L 196.035102 -212.718419 
L 197.100143 -212.718419 
L 198.165184 -212.718419 
L 199.230225 -212.718419 
L 200.295266 -212.718419 
L 201.360307 -212.718419 
L 202.425348 -212.718419 
L 203.490389 -212.718419 
L 204.55543 -212.718419 
L 205.62047 -212.718419 
L 206.685511 -212.718419 
L 207.750552 -212.718419 
L 208.815593 -212.718419 
L 209.880634 -212.718419 
L 210.945675 -212.718419 
L 212.010716 -212.718419 
L 213.075757 -212.718419 
L 214.140798 -212.718419 
L 215.205838 -212.718419 
L 216.270879 -212.718419 
L 217.33592 -212.718419 
L 218.400961 -212.718419 
L 219.466002 -212.718419 
L 220.531043 -212.718419 
L 221.596084 -212.718419 
L 222.661125 -212.718419 
L 223.726166 -212.718419 
L 224.791206 -212.718419 
L 225.856247 -212.718419 
L 226.921288 -212.718419 
L 227.986329 -212.718419 
L 229.05137 -212.718419 
L 230.116411 -212.718419 
L 231.181452 -212.718419 
L 232.246493 -212.718419 
L 233.311534 -212.718419 
L 234.376574 -212.718419 
L 235.441615 -212.718419 
L 236.506656 -212.718419 
L 237.571697 -212.718419 
L 238.636738 -212.718419 
L 239.701779 -212.718419 
L 240.76682 -212.718419 
L 241.831861 -212.718419 
L 242.896901 -212.718419 
L 243.961942 -212.718419 
L 245.026983 -212.718419 
L 246.092024 -212.718419 
L 247.157065 -212.718419 
L 248.222106 -212.718419 
L 249.287147 -212.718419 
L 250.352188 -212.718419 
L 251.417229 -212.718419 
L 252.482269 -212.718419 
L 253.54731 -212.718419 
L 254.612351 -212.718419 
L 255.677392 -212.718419 
L 256.742433 -212.718419 
L 257.807474 -212.718419 
L 258.872515 -212.718419 
L 259.937556 -212.718419 
L 261.002597 -212.718419 
L 262.067637 -212.718419 
L 263.132678 -212.718419 
L 264.197719 -212.718419 
L 265.26276 -212.718419 
L 266.327801 -212.718419 
L 267.392842 -212.718419 
L 268.457883 -212.718419 
L 269.522924 -212.718419 
L 270.587965 -212.718419 
L 271.653005 -212.718419 
L 272.718046 -212.718419 
L 273.783087 -212.718419 
L 274.848128 -212.718419 
L 275.913169 -212.718419 
L 276.97821 -212.718419 
L 278.043251 -212.718419 
L 279.108292 -212.718419 
L 280.173333 -212.718419 
L 281.238373 -212.718419 
L 282.303414 -212.718419 
L 283.368455 -212.718419 
L 284.433496 -212.718419 
L 285.498537 -212.718419 
L 286.563578 -212.718419 
L 287.628619 -212.718419 
L 288.69366 -212.718419 
L 289.758701 -212.718419 
L 290.823741 -212.718419 
L 291.888782 -212.718419 
L 292.953823 -212.718419 
L 294.018864 -212.718419 
L 295.083905 -212.718419 
L 296.148946 -212.718419 
L 297.213987 -212.718419 
L 298.279028 -212.718419 
L 299.344069 -212.718419 
L 300.409109 -212.718419 
L 301.47415 -212.718419 
L 302.539191 -212.718419 
L 302.539191 -234.259527 
L 302.539191 -234.259527 
L 301.47415 -235.458399 
L 300.409109 -236.651037 
L 299.344069 -237.831448 
L 298.279028 -238.993764 
L 297.213987 -240.132323 
L 296.148946 -241.24174 
L 295.083905 -242.316973 
L 294.018864 -243.353388 
L 292.953823 -244.3468 
L 291.888782 -245.293519 
L 290.823741 -246.19037 
L 289.758701 -247.034719 
L 288.69366 -247.824469 
L 287.628619 -248.558061 
L 286.563578 -249.234456 
L 285.498537 -249.853114 
L 284.433496 -250.413957 
L 283.368455 -250.917337 
L 282.303414 -251.363991 
L 281.238373 -251.754995 
L 280.173333 -252.091715 
L 279.108292 -252.375762 
L 278.043251 -252.608946 
L 276.97821 -252.793228 
L 275.913169 -252.930682 
L 274.848128 -253.023458 
L 273.783087 -253.073749 
L 272.718046 -253.083767 
L 271.653005 -253.055718 
L 270.587965 -252.991791 
L 269.522924 -252.894143 
L 268.457883 -252.764898 
L 267.392842 -252.606142 
L 266.327801 -252.419925 
L 265.26276 -252.208273 
L 264.197719 -251.973187 
L 263.132678 -251.71666 
L 262.067637 -251.440684 
L 261.002597 -251.147261 
L 259.937556 -250.838414 
L 258.872515 -250.516192 
L 257.807474 -250.182685 
L 256.742433 -249.84002 
L 255.677392 -249.49037 
L 254.612351 -249.135949 
L 253.54731 -248.77901 
L 252.482269 -248.421835 
L 251.417229 -248.066729 
L 250.352188 -247.716001 
L 249.287147 -247.371948 
L 248.222106 -247.036833 
L 247.157065 -246.712863 
L 246.092024 -246.40216 
L 245.026983 -246.106735 
L 243.961942 -245.828454 
L 242.896901 -245.569009 
L 241.831861 -245.329885 
L 240.76682 -245.11233 
L 239.701779 -244.917321 
L 238.636738 -244.745535 
L 237.571697 -244.597327 
L 236.506656 -244.472704 
L 235.441615 -244.371305 
L 234.376574 -244.292391 
L 233.311534 -244.234835 
L 232.246493 -244.197123 
L 231.181452 -244.177358 
L 230.116411 -244.173274 
L 229.05137 -244.182258 
L 227.986329 -244.201376 
L 226.921288 -244.227414 
L 225.856247 -244.256915 
L 224.791206 -244.286235 
L 223.726166 -244.311593 
L 222.661125 -244.329137 
L 221.596084 -244.335004 
L 220.531043 -244.325387 
L 219.466002 -244.296603 
L 218.400961 -244.245161 
L 217.33592 -244.167823 
L 216.270879 -244.061669 
L 215.205838 -243.924146 
L 214.140798 -243.753125 
L 213.075757 -243.546935 
L 212.010716 -243.304401 
L 210.945675 -243.02486 
L 209.880634 -242.708181 
L 208.815593 -242.354763 
L 207.750552 -241.965526 
L 206.685511 -241.541898 
L 205.62047 -241.085781 
L 204.55543 -240.599522 
L 203.490389 -240.085864 
L 202.425348 -239.5479 
L 201.360307 -238.989018 
L 200.295266 -238.412843 
L 199.230225 -237.823173 
L 198.165184 -237.223925 
L 197.100143 -236.61907 
L 196.035102 -236.012576 
L 194.970062 -235.408349 
L 193.905021 -234.810187 
L 192.83998 -234.221728 
L 191.774939 -233.646404 
L 190.709898 -233.087412 
L 189.644857 -232.547673 
L 188.579816 -232.029809 
L 187.514775 -231.536119 
L 186.449734 -231.068566 
L 185.384694 -230.628761 
L 184.319653 -230.217955 
L 183.254612 -229.837038 
L 182.189571 -229.486539 
L 181.12453 -229.166629 
L 180.059489 -228.877126 
L 178.994448 -228.617509 
L 177.929407 -228.386926 
L 176.864366 -228.184213 
L 175.799326 -228.007912 
L 174.734285 -227.856287 
L 173.669244 -227.727349 
L 172.604203 -227.618883 
L 171.539162 -227.52847 
L 170.474121 -227.453518 
L 169.40908 -227.391292 
L 168.344039 -227.338946 
L 167.278999 -227.293556 
L 166.213958 -227.252151 
L 165.148917 -227.211756 
L 164.083876 -227.169417 
L 163.018835 -227.122242 
L 161.953794 -227.067437 
L 160.888753 -227.002336 
L 159.823712 -226.924434 
L 158.758671 -226.831421 
L 157.693631 -226.721207 
L 156.62859 -226.591951 
L 155.563549 -226.442082 
L 154.498508 -226.270322 
L 153.433467 -226.075696 
L 152.368426 -225.857549 
L 151.303385 -225.615553 
L 150.238344 -225.349708 
L 149.173303 -225.06034 
L 148.108263 -224.748095 
L 147.043222 -224.41393 
L 145.978181 -224.059093 
L 144.91314 -223.685104 
L 143.848099 -223.293731 
L 142.783058 -222.886959 
L 141.718017 -222.466963 
L 140.652976 -222.036065 
L 139.587935 -221.596707 
L 138.522895 -221.151405 
L 137.457854 -220.702714 
L 136.392813 -220.253189 
L 135.327772 -219.805347 
L 134.262731 -219.361632 
L 133.19769 -218.92438 
L 132.132649 -218.49579 
L 131.067608 -218.077895 
L 130.002567 -217.672543 
L 128.937527 -217.281375 
L 127.872486 -216.905813 
L 126.807445 -216.547052 
L 125.742404 -216.206053 
L 124.677363 -215.883544 
L 123.612322 -215.580028 
L 122.547281 -215.295785 
L 121.48224 -215.030889 
L 120.417199 -214.785221 
L 119.352159 -214.558484 
L 118.287118 -214.350227 
L 117.222077 -214.159858 
L 116.157036 -213.986671 
L 115.091995 -213.829866 
L 114.026954 -213.688564 
L 112.961913 -213.561835 
L 111.896872 -213.448712 
L 110.831831 -213.348207 
L 109.766791 -213.259334 
L 108.70175 -213.181111 
L 107.636709 -213.112586 
L 106.571668 -213.052834 
L 105.506627 -213.000974 
L 104.441586 -212.956174 
L 103.376545 -212.91765 
L 102.311504 -212.884678 
L 101.246463 -212.856586 
L 100.181423 -212.832763 
L 99.116382 -212.812653 
L 98.051341 -212.795756 
L 96.9863 -212.781622 
L 95.921259 -212.769855 
L 94.856218 -212.760103 
L 93.791177 -212.752057 
L 92.726136 -212.74545 
L 91.661096 -212.740049 
L 90.596055 -212.735653 
z
" id="m9607e0bc7f" style="stroke:#ffbb78;"/>
    </defs>
    <g clip-path="url(#p340db67872)">
     <use style="fill:#ffbb78;fill-opacity:0.25;stroke:#ffbb78;" x="0" xlink:href="#m9607e0bc7f" y="290.483125"/>
    </g>
   </g>
   <g id="PolyCollection_4">
    <defs>
     <path d="M 63.411985 -215.698804 
L 63.411985 -212.718419 
L 64.61363 -212.718419 
L 65.815274 -212.718419 
L 67.016918 -212.718419 
L 68.218562 -212.718419 
L 69.420207 -212.718419 
L 70.621851 -212.718419 
L 71.823495 -212.718419 
L 73.025139 -212.718419 
L 74.226784 -212.718419 
L 75.428428 -212.718419 
L 76.630072 -212.718419 
L 77.831716 -212.718419 
L 79.033361 -212.718419 
L 80.235005 -212.718419 
L 81.436649 -212.718419 
L 82.638293 -212.718419 
L 83.839938 -212.718419 
L 85.041582 -212.718419 
L 86.243226 -212.718419 
L 87.44487 -212.718419 
L 88.646515 -212.718419 
L 89.848159 -212.718419 
L 91.049803 -212.718419 
L 92.251447 -212.718419 
L 93.453092 -212.718419 
L 94.654736 -212.718419 
L 95.85638 -212.718419 
L 97.058024 -212.718419 
L 98.259669 -212.718419 
L 99.461313 -212.718419 
L 100.662957 -212.718419 
L 101.864601 -212.718419 
L 103.066246 -212.718419 
L 104.26789 -212.718419 
L 105.469534 -212.718419 
L 106.671178 -212.718419 
L 107.872823 -212.718419 
L 109.074467 -212.718419 
L 110.276111 -212.718419 
L 111.477755 -212.718419 
L 112.6794 -212.718419 
L 113.881044 -212.718419 
L 115.082688 -212.718419 
L 116.284332 -212.718419 
L 117.485977 -212.718419 
L 118.687621 -212.718419 
L 119.889265 -212.718419 
L 121.090909 -212.718419 
L 122.292554 -212.718419 
L 123.494198 -212.718419 
L 124.695842 -212.718419 
L 125.897486 -212.718419 
L 127.099131 -212.718419 
L 128.300775 -212.718419 
L 129.502419 -212.718419 
L 130.704063 -212.718419 
L 131.905708 -212.718419 
L 133.107352 -212.718419 
L 134.308996 -212.718419 
L 135.51064 -212.718419 
L 136.712285 -212.718419 
L 137.913929 -212.718419 
L 139.115573 -212.718419 
L 140.317217 -212.718419 
L 141.518862 -212.718419 
L 142.720506 -212.718419 
L 143.92215 -212.718419 
L 145.123794 -212.718419 
L 146.325439 -212.718419 
L 147.527083 -212.718419 
L 148.728727 -212.718419 
L 149.930371 -212.718419 
L 151.132016 -212.718419 
L 152.33366 -212.718419 
L 153.535304 -212.718419 
L 154.736948 -212.718419 
L 155.938593 -212.718419 
L 157.140237 -212.718419 
L 158.341881 -212.718419 
L 159.543525 -212.718419 
L 160.74517 -212.718419 
L 161.946814 -212.718419 
L 163.148458 -212.718419 
L 164.350102 -212.718419 
L 165.551747 -212.718419 
L 166.753391 -212.718419 
L 167.955035 -212.718419 
L 169.156679 -212.718419 
L 170.358324 -212.718419 
L 171.559968 -212.718419 
L 172.761612 -212.718419 
L 173.963256 -212.718419 
L 175.164901 -212.718419 
L 176.366545 -212.718419 
L 177.568189 -212.718419 
L 178.769833 -212.718419 
L 179.971478 -212.718419 
L 181.173122 -212.718419 
L 182.374766 -212.718419 
L 183.57641 -212.718419 
L 184.778055 -212.718419 
L 185.979699 -212.718419 
L 187.181343 -212.718419 
L 188.382987 -212.718419 
L 189.584632 -212.718419 
L 190.786276 -212.718419 
L 191.98792 -212.718419 
L 193.189564 -212.718419 
L 194.391209 -212.718419 
L 195.592853 -212.718419 
L 196.794497 -212.718419 
L 197.996141 -212.718419 
L 199.197786 -212.718419 
L 200.39943 -212.718419 
L 201.601074 -212.718419 
L 202.802718 -212.718419 
L 204.004363 -212.718419 
L 205.206007 -212.718419 
L 206.407651 -212.718419 
L 207.609295 -212.718419 
L 208.81094 -212.718419 
L 210.012584 -212.718419 
L 211.214228 -212.718419 
L 212.415872 -212.718419 
L 213.617517 -212.718419 
L 214.819161 -212.718419 
L 216.020805 -212.718419 
L 217.222449 -212.718419 
L 218.424094 -212.718419 
L 219.625738 -212.718419 
L 220.827382 -212.718419 
L 222.029026 -212.718419 
L 223.230671 -212.718419 
L 224.432315 -212.718419 
L 225.633959 -212.718419 
L 226.835603 -212.718419 
L 228.037248 -212.718419 
L 229.238892 -212.718419 
L 230.440536 -212.718419 
L 231.64218 -212.718419 
L 232.843825 -212.718419 
L 234.045469 -212.718419 
L 235.247113 -212.718419 
L 236.448757 -212.718419 
L 237.650402 -212.718419 
L 238.852046 -212.718419 
L 240.05369 -212.718419 
L 241.255334 -212.718419 
L 242.456979 -212.718419 
L 243.658623 -212.718419 
L 244.860267 -212.718419 
L 246.061911 -212.718419 
L 247.263556 -212.718419 
L 248.4652 -212.718419 
L 249.666844 -212.718419 
L 250.868488 -212.718419 
L 252.070133 -212.718419 
L 253.271777 -212.718419 
L 254.473421 -212.718419 
L 255.675065 -212.718419 
L 256.87671 -212.718419 
L 258.078354 -212.718419 
L 259.279998 -212.718419 
L 260.481642 -212.718419 
L 261.683287 -212.718419 
L 262.884931 -212.718419 
L 264.086575 -212.718419 
L 265.288219 -212.718419 
L 266.489864 -212.718419 
L 267.691508 -212.718419 
L 268.893152 -212.718419 
L 270.094796 -212.718419 
L 271.296441 -212.718419 
L 272.498085 -212.718419 
L 273.699729 -212.718419 
L 274.901373 -212.718419 
L 276.103018 -212.718419 
L 277.304662 -212.718419 
L 278.506306 -212.718419 
L 279.70795 -212.718419 
L 280.909595 -212.718419 
L 282.111239 -212.718419 
L 283.312883 -212.718419 
L 284.514527 -212.718419 
L 285.716172 -212.718419 
L 286.917816 -212.718419 
L 288.11946 -212.718419 
L 289.321104 -212.718419 
L 290.522749 -212.718419 
L 291.724393 -212.718419 
L 292.926037 -212.718419 
L 294.127681 -212.718419 
L 295.329326 -212.718419 
L 296.53097 -212.718419 
L 297.732614 -212.718419 
L 298.934258 -212.718419 
L 300.135903 -212.718419 
L 301.337547 -212.718419 
L 302.539191 -212.718419 
L 302.539191 -220.504077 
L 302.539191 -220.504077 
L 301.337547 -220.919342 
L 300.135903 -221.337415 
L 298.934258 -221.757158 
L 297.732614 -222.177469 
L 296.53097 -222.597293 
L 295.329326 -223.015635 
L 294.127681 -223.431574 
L 292.926037 -223.844264 
L 291.724393 -224.25295 
L 290.522749 -224.656968 
L 289.321104 -225.05575 
L 288.11946 -225.448827 
L 286.917816 -225.835829 
L 285.716172 -226.21648 
L 284.514527 -226.590601 
L 283.312883 -226.958099 
L 282.111239 -227.318961 
L 280.909595 -227.673251 
L 279.70795 -228.021095 
L 278.506306 -228.362674 
L 277.304662 -228.698209 
L 276.103018 -229.027955 
L 274.901373 -229.352184 
L 273.699729 -229.671174 
L 272.498085 -229.985195 
L 271.296441 -230.294499 
L 270.094796 -230.599306 
L 268.893152 -230.899794 
L 267.691508 -231.196087 
L 266.489864 -231.488251 
L 265.288219 -231.776279 
L 264.086575 -232.060091 
L 262.884931 -232.33953 
L 261.683287 -232.614358 
L 260.481642 -232.884258 
L 259.279998 -233.148838 
L 258.078354 -233.407635 
L 256.87671 -233.660125 
L 255.675065 -233.905732 
L 254.473421 -234.14384 
L 253.271777 -234.373811 
L 252.070133 -234.594998 
L 250.868488 -234.806764 
L 249.666844 -235.008502 
L 248.4652 -235.199654 
L 247.263556 -235.379731 
L 246.061911 -235.548332 
L 244.860267 -235.705164 
L 243.658623 -235.850057 
L 242.456979 -235.982983 
L 241.255334 -236.104066 
L 240.05369 -236.213594 
L 238.852046 -236.312025 
L 237.650402 -236.399993 
L 236.448757 -236.478307 
L 235.247113 -236.547946 
L 234.045469 -236.610054 
L 232.843825 -236.665927 
L 231.64218 -236.716998 
L 230.440536 -236.764821 
L 229.238892 -236.811047 
L 228.037248 -236.857401 
L 226.835603 -236.905653 
L 225.633959 -236.957596 
L 224.432315 -237.01501 
L 223.230671 -237.079635 
L 222.029026 -237.153144 
L 220.827382 -237.23711 
L 219.625738 -237.332981 
L 218.424094 -237.442052 
L 217.222449 -237.565445 
L 216.020805 -237.704085 
L 214.819161 -237.858687 
L 213.617517 -238.029737 
L 212.415872 -238.21749 
L 211.214228 -238.421955 
L 210.012584 -238.642901 
L 208.81094 -238.879856 
L 207.609295 -239.132112 
L 206.407651 -239.398738 
L 205.206007 -239.678592 
L 204.004363 -239.970336 
L 202.802718 -240.272458 
L 201.601074 -240.58329 
L 200.39943 -240.901036 
L 199.197786 -241.223792 
L 197.996141 -241.549576 
L 196.794497 -241.876353 
L 195.592853 -242.202056 
L 194.391209 -242.524621 
L 193.189564 -242.842004 
L 191.98792 -243.152204 
L 190.786276 -243.453288 
L 189.584632 -243.743409 
L 188.382987 -244.020819 
L 187.181343 -244.283885 
L 185.979699 -244.531099 
L 184.778055 -244.761086 
L 183.57641 -244.972605 
L 182.374766 -245.164556 
L 181.173122 -245.335973 
L 179.971478 -245.486021 
L 178.769833 -245.613988 
L 177.568189 -245.719276 
L 176.366545 -245.801392 
L 175.164901 -245.859928 
L 173.963256 -245.894556 
L 172.761612 -245.905005 
L 171.559968 -245.891053 
L 170.358324 -245.852511 
L 169.156679 -245.789209 
L 167.955035 -245.700988 
L 166.753391 -245.587687 
L 165.551747 -245.449142 
L 164.350102 -245.285178 
L 163.148458 -245.095608 
L 161.946814 -244.88024 
L 160.74517 -244.638878 
L 159.543525 -244.371334 
L 158.341881 -244.077435 
L 157.140237 -243.757042 
L 155.938593 -243.41006 
L 154.736948 -243.036463 
L 153.535304 -242.636303 
L 152.33366 -242.209737 
L 151.132016 -241.757039 
L 149.930371 -241.278621 
L 148.728727 -240.775047 
L 147.527083 -240.247047 
L 146.325439 -239.695524 
L 145.123794 -239.121568 
L 143.92215 -238.526452 
L 142.720506 -237.911637 
L 141.518862 -237.278764 
L 140.317217 -236.629645 
L 139.115573 -235.966256 
L 137.913929 -235.290712 
L 136.712285 -234.605255 
L 135.51064 -233.912226 
L 134.308996 -233.214042 
L 133.107352 -232.513172 
L 131.905708 -231.812102 
L 130.704063 -231.113313 
L 129.502419 -230.41925 
L 128.300775 -229.732294 
L 127.099131 -229.054739 
L 125.897486 -228.388764 
L 124.695842 -227.736415 
L 123.494198 -227.099584 
L 122.292554 -226.479995 
L 121.090909 -225.879191 
L 119.889265 -225.298528 
L 118.687621 -224.739164 
L 117.485977 -224.202063 
L 116.284332 -223.687991 
L 115.082688 -223.197523 
L 113.881044 -222.731047 
L 112.6794 -222.288774 
L 111.477755 -221.870743 
L 110.276111 -221.476841 
L 109.074467 -221.106802 
L 107.872823 -220.76023 
L 106.671178 -220.436606 
L 105.469534 -220.1353 
L 104.26789 -219.855581 
L 103.066246 -219.596633 
L 101.864601 -219.35756 
L 100.662957 -219.137395 
L 99.461313 -218.935111 
L 98.259669 -218.74963 
L 97.058024 -218.579824 
L 95.85638 -218.42453 
L 94.654736 -218.28255 
L 93.453092 -218.152659 
L 92.251447 -218.033616 
L 91.049803 -217.924166 
L 89.848159 -217.823049 
L 88.646515 -217.729009 
L 87.44487 -217.640801 
L 86.243226 -217.557204 
L 85.041582 -217.477025 
L 83.839938 -217.399115 
L 82.638293 -217.322375 
L 81.436649 -217.245769 
L 80.235005 -217.168335 
L 79.033361 -217.089195 
L 77.831716 -217.007561 
L 76.630072 -216.922748 
L 75.428428 -216.834181 
L 74.226784 -216.741397 
L 73.025139 -216.644051 
L 71.823495 -216.541922 
L 70.621851 -216.434906 
L 69.420207 -216.323021 
L 68.218562 -216.206397 
L 67.016918 -216.085277 
L 65.815274 -215.960001 
L 64.61363 -215.831006 
L 63.411985 -215.698804 
z
" id="m3900be5f7b" style="stroke:#17becf;"/>
    </defs>
    <g clip-path="url(#p340db67872)">
     <use style="fill:#17becf;fill-opacity:0.25;stroke:#17becf;" x="0" xlink:href="#m3900be5f7b" y="290.483125"/>
    </g>
   </g>
   <g id="patch_7">
    <path d="M 51.455625 77.764706 
L 314.495551 77.764706 
" style="fill:none;stroke:#262626;stroke-linecap:square;stroke-linejoin:miter;stroke-width:0.8;"/>
   </g>
   <g id="legend_1">
    <g id="patch_8">
     <path d="M 320.24864 127.564969 
L 436.915515 127.564969 
Q 439.515515 127.564969 439.515515 124.964969 
L 439.515515 16.3 
Q 439.515515 13.7 436.915515 13.7 
L 320.24864 13.7 
Q 317.64864 13.7 317.64864 16.3 
L 317.64864 124.964969 
Q 317.64864 127.564969 320.24864 127.564969 
z
" style="fill:#ffffff;opacity:0.8;stroke:#cccccc;stroke-linejoin:miter;"/>
    </g>
    <g id="text_14">
     <text style="fill:#262626;font-family:DejaVu Sans;font-size:13px;font-style:normal;font-weight:normal;text-anchor:start;" transform="rotate(-0, 352.926374, 28.777969)" x="352.926374" y="28.777969">Lineage</text>
    </g>
    <g id="patch_9">
     <path d="M 322.84864 47.859531 
L 348.84864 47.859531 
L 348.84864 38.759531 
L 322.84864 38.759531 
z
" style="fill:#17becf;fill-opacity:0.25;stroke:#17becf;stroke-linejoin:miter;"/>
    </g>
    <g id="text_15">
     <text style="fill:#262626;font-family:DejaVu Sans;font-size:13px;font-style:normal;font-weight:normal;text-anchor:start;" transform="rotate(-0, 359.24864, 47.859531)" x="359.24864" y="47.859531">Muscle</text>
    </g>
    <g id="patch_10">
     <path d="M 322.84864 66.941094 
L 348.84864 66.941094 
L 348.84864 57.841094 
L 322.84864 57.841094 
z
" style="fill:#ffbb78;fill-opacity:0.25;stroke:#ffbb78;stroke-linejoin:miter;"/>
    </g>
    <g id="text_16">
     <text style="fill:#262626;font-family:DejaVu Sans;font-size:13px;font-style:normal;font-weight:normal;text-anchor:start;" transform="rotate(-0, 359.24864, 66.941094)" x="359.24864" y="66.941094">Primordium</text>
    </g>
    <g id="patch_11">
     <path d="M 322.84864 94.653031 
L 348.84864 94.653031 
L 348.84864 85.553031 
L 322.84864 85.553031 
z
" style="fill:#aec7e8;fill-opacity:0.25;stroke:#aec7e8;stroke-linejoin:miter;"/>
    </g>
    <g id="text_17">
     <text style="fill:#262626;font-family:DejaVu Sans;font-size:13px;font-style:normal;font-weight:normal;" transform="translate(359.24864 86.022656)">Nervous</text>
     <text style="fill:#262626;font-family:DejaVu Sans;font-size:13px;font-style:normal;font-weight:normal;" transform="translate(359.24864 100.579812)">system</text>
    </g>
    <g id="patch_12">
     <path d="M 322.84864 119.661375 
L 348.84864 119.661375 
L 348.84864 110.561375 
L 322.84864 110.561375 
z
" style="fill:#808080;fill-opacity:0.25;stroke:#808080;stroke-linejoin:miter;"/>
    </g>
    <g id="text_18">
     <text style="fill:#262626;font-family:DejaVu Sans;font-size:13px;font-style:normal;font-weight:normal;text-anchor:start;" transform="rotate(-0, 359.24864, 119.661375)" x="359.24864" y="119.661375">Other</text>
    </g>
   </g>
  </g>
 </g>
 <defs>
  <clipPath id="p0d337deaf6">
   <rect height="155.242353" width="263.039926" x="51.455625" y="91.877647"/>
  </clipPath>
  <clipPath id="p340db67872">
   <rect height="70.564706" width="263.039926" x="51.455625" y="7.2"/>
  </clipPath>
 </defs>
</svg>
