<?xml version="1.0" encoding="utf-8" standalone="no"?>
<!DOCTYPE svg PUBLIC "-//W3C//DTD SVG 1.1//EN"
  "http://www.w3.org/Graphics/SVG/1.1/DTD/svg11.dtd">
<!-- Created with matplotlib (https://matplotlib.org/) -->
<svg height="290.483125pt" version="1.1" viewBox="0 0 446.715515 290.483125" width="446.715515pt" xmlns="http://www.w3.org/2000/svg" xmlns:xlink="http://www.w3.org/1999/xlink">
 <defs>
  <style type="text/css">
*{stroke-linecap:butt;stroke-linejoin:round;}
  </style>
 </defs>
 <g id="figure_1">
  <g id="patch_1">
   <path d="M 0 290.483125 
L 446.715515 290.483125 
L 446.715515 0 
L 0 0 
z
" style="fill:#ffffff;"/>
  </g>
  <g id="axes_1">
   <g id="patch_2">
    <path d="M 51.455625 247.12 
L 314.495551 247.12 
L 314.495551 91.877647 
L 51.455625 91.877647 
z
" style="fill:#ffffff;"/>
   </g>
   <g id="matplotlib.axis_1">
    <g id="xtick_1">
     <g id="line2d_1">
      <defs>
       <path d="M 0 0 
L 0 3.5 
" id="m4b6701c3b7" style="stroke:#262626;stroke-width:0.8;"/>
      </defs>
      <g>
       <use style="fill:#262626;stroke:#262626;stroke-width:0.8;" x="63.411985" xlink:href="#m4b6701c3b7" y="247.12"/>
      </g>
     </g>
     <g id="text_1">
      <text style="fill:#262626;font-family:DejaVu Sans;font-size:13px;font-style:normal;font-weight:normal;text-anchor:middle;" transform="rotate(-0, 63.411985, 263.997969)" x="63.411985" y="263.997969">0</text>
     </g>
    </g>
    <g id="xtick_2">
     <g id="line2d_2">
      <g>
       <use style="fill:#262626;stroke:#262626;stroke-width:0.8;" x="110.48427" xlink:href="#m4b6701c3b7" y="247.12"/>
      </g>
     </g>
     <g id="text_2">
      <text style="fill:#262626;font-family:DejaVu Sans;font-size:13px;font-style:normal;font-weight:normal;text-anchor:middle;" transform="rotate(-0, 110.48427, 263.997969)" x="110.48427" y="263.997969">100</text>
     </g>
    </g>
    <g id="xtick_3">
     <g id="line2d_3">
      <g>
       <use style="fill:#262626;stroke:#262626;stroke-width:0.8;" x="157.556555" xlink:href="#m4b6701c3b7" y="247.12"/>
      </g>
     </g>
     <g id="text_3">
      <text style="fill:#262626;font-family:DejaVu Sans;font-size:13px;font-style:normal;font-weight:normal;text-anchor:middle;" transform="rotate(-0, 157.556555, 263.997969)" x="157.556555" y="263.997969">200</text>
     </g>
    </g>
    <g id="xtick_4">
     <g id="line2d_4">
      <g>
       <use style="fill:#262626;stroke:#262626;stroke-width:0.8;" x="204.628839" xlink:href="#m4b6701c3b7" y="247.12"/>
      </g>
     </g>
     <g id="text_4">
      <text style="fill:#262626;font-family:DejaVu Sans;font-size:13px;font-style:normal;font-weight:normal;text-anchor:middle;" transform="rotate(-0, 204.628839, 263.997969)" x="204.628839" y="263.997969">300</text>
     </g>
    </g>
    <g id="xtick_5">
     <g id="line2d_5">
      <g>
       <use style="fill:#262626;stroke:#262626;stroke-width:0.8;" x="251.701124" xlink:href="#m4b6701c3b7" y="247.12"/>
      </g>
     </g>
     <g id="text_5">
      <text style="fill:#262626;font-family:DejaVu Sans;font-size:13px;font-style:normal;font-weight:normal;text-anchor:middle;" transform="rotate(-0, 251.701124, 263.997969)" x="251.701124" y="263.997969">400</text>
     </g>
    </g>
    <g id="xtick_6">
     <g id="line2d_6">
      <g>
       <use style="fill:#262626;stroke:#262626;stroke-width:0.8;" x="298.773408" xlink:href="#m4b6701c3b7" y="247.12"/>
      </g>
     </g>
     <g id="text_6">
      <text style="fill:#262626;font-family:DejaVu Sans;font-size:13px;font-style:normal;font-weight:normal;text-anchor:middle;" transform="rotate(-0, 298.773408, 263.997969)" x="298.773408" y="263.997969">500</text>
     </g>
    </g>
    <g id="text_7">
     <text style="fill:#262626;font-family:DejaVu Sans;font-size:13px;font-style:normal;font-weight:normal;text-anchor:middle;" transform="rotate(-0, 182.975588, 280.579531)" x="182.975588" y="280.579531">Cell order</text>
    </g>
   </g>
   <g id="matplotlib.axis_2">
    <g id="ytick_1">
     <g id="line2d_7">
      <defs>
       <path d="M 0 0 
L -3.5 0 
" id="m0a817bc721" style="stroke:#262626;stroke-width:0.8;"/>
      </defs>
      <g>
       <use style="fill:#262626;stroke:#262626;stroke-width:0.8;" x="51.455625" xlink:href="#m0a817bc721" y="247.12"/>
      </g>
     </g>
     <g id="text_8">
      <text style="fill:#262626;font-family:DejaVu Sans;font-size:13px;font-style:normal;font-weight:normal;text-anchor:end;" transform="rotate(-0, 44.455625, 252.058984)" x="44.455625" y="252.058984">0.0</text>
     </g>
    </g>
    <g id="ytick_2">
     <g id="line2d_8">
      <g>
       <use style="fill:#262626;stroke:#262626;stroke-width:0.8;" x="51.455625" xlink:href="#m0a817bc721" y="216.071529"/>
      </g>
     </g>
     <g id="text_9">
      <text style="fill:#262626;font-family:DejaVu Sans;font-size:13px;font-style:normal;font-weight:normal;text-anchor:end;" transform="rotate(-0, 44.455625, 221.010514)" x="44.455625" y="221.010514">0.2</text>
     </g>
    </g>
    <g id="ytick_3">
     <g id="line2d_9">
      <g>
       <use style="fill:#262626;stroke:#262626;stroke-width:0.8;" x="51.455625" xlink:href="#m0a817bc721" y="185.023059"/>
      </g>
     </g>
     <g id="text_10">
      <text style="fill:#262626;font-family:DejaVu Sans;font-size:13px;font-style:normal;font-weight:normal;text-anchor:end;" transform="rotate(-0, 44.455625, 189.962043)" x="44.455625" y="189.962043">0.4</text>
     </g>
    </g>
    <g id="ytick_4">
     <g id="line2d_10">
      <g>
       <use style="fill:#262626;stroke:#262626;stroke-width:0.8;" x="51.455625" xlink:href="#m0a817bc721" y="153.974588"/>
      </g>
     </g>
     <g id="text_11">
      <text style="fill:#262626;font-family:DejaVu Sans;font-size:13px;font-style:normal;font-weight:normal;text-anchor:end;" transform="rotate(-0, 44.455625, 158.913573)" x="44.455625" y="158.913573">0.6</text>
     </g>
    </g>
    <g id="ytick_5">
     <g id="line2d_11">
      <g>
       <use style="fill:#262626;stroke:#262626;stroke-width:0.8;" x="51.455625" xlink:href="#m0a817bc721" y="122.926118"/>
      </g>
     </g>
     <g id="text_12">
      <text style="fill:#262626;font-family:DejaVu Sans;font-size:13px;font-style:normal;font-weight:normal;text-anchor:end;" transform="rotate(-0, 44.455625, 127.865102)" x="44.455625" y="127.865102">0.8</text>
     </g>
    </g>
    <g id="ytick_6">
     <g id="line2d_12">
      <g>
       <use style="fill:#262626;stroke:#262626;stroke-width:0.8;" x="51.455625" xlink:href="#m0a817bc721" y="91.877647"/>
      </g>
     </g>
     <g id="text_13">
      <text style="fill:#262626;font-family:DejaVu Sans;font-size:13px;font-style:normal;font-weight:normal;text-anchor:end;" transform="rotate(-0, 44.455625, 96.816631)" x="44.455625" y="96.816631">1.0</text>
     </g>
    </g>
    <g id="text_14">
     <text style="fill:#262626;font-family:DejaVu Sans;font-size:13px;font-style:normal;font-weight:normal;text-anchor:middle;" transform="rotate(-90, 17.077969, 169.498824)" x="17.077969" y="169.498824">Estimated rate</text>
    </g>
   </g>
   <g id="line2d_13">
    <path clip-path="url(#p40506d10ad)" d="M 63.411985 222.519761 
L 64.353431 214.135306 
L 65.294877 212.808194 
L 65.7656 212.790161 
L 66.236322 212.333092 
L 67.648491 209.299911 
L 68.119214 208.975681 
L 68.589937 208.382201 
L 69.060659 208.348534 
L 70.002105 207.344073 
L 70.943551 206.646164 
L 73.297165 205.768634 
L 73.767888 205.468185 
L 75.180056 205.248148 
L 75.650779 204.757943 
L 76.121502 204.726778 
L 77.062948 204.286019 
L 77.533671 203.617316 
L 78.475116 203.514292 
L 78.945839 203.465429 
L 79.887285 202.993995 
L 80.358008 202.191619 
L 81.299453 202.114739 
L 81.770176 201.846757 
L 82.711622 201.819188 
L 83.182345 201.311753 
L 83.653068 201.259631 
L 86.948128 199.6823 
L 87.41885 199.079503 
L 88.360296 198.90581 
L 88.831019 198.624124 
L 89.301742 198.488021 
L 89.772465 198.483579 
L 91.184633 198.078871 
L 91.655356 197.798547 
L 92.126079 197.728904 
L 92.596802 197.461743 
L 93.067525 197.03288 
L 94.00897 196.820942 
L 94.479693 196.806212 
L 96.362585 196.242425 
L 101.069813 195.776122 
L 103.89415 195.413087 
L 104.835596 195.283738 
L 105.306319 195.055801 
L 112.367161 194.184474 
L 113.308607 194.005616 
L 115.191498 193.752558 
L 116.603667 193.674944 
L 118.957281 193.417037 
L 120.36945 193.315847 
L 122.252341 192.958184 
L 123.66451 192.813145 
L 124.605955 192.542046 
L 126.018124 192.345462 
L 127.430292 192.128897 
L 128.371738 191.784012 
L 130.254629 191.509638 
L 132.137521 191.273142 
L 133.549689 191.182668 
L 134.961858 191.070925 
L 150.024989 189.182948 
L 152.849326 189.04215 
L 153.790772 188.912416 
L 157.085832 188.580902 
L 162.263783 188.061824 
L 162.734506 187.815278 
L 163.205229 187.807807 
L 164.146674 187.492842 
L 166.500289 187.190478 
L 167.441734 186.924094 
L 168.853903 186.89811 
L 175.914746 185.626774 
L 176.385468 185.595792 
L 177.797637 185.019331 
L 178.26836 184.625494 
L 179.209805 184.522212 
L 181.092697 184.286587 
L 181.56342 183.941839 
L 182.504865 183.818856 
L 182.975588 183.805993 
L 183.446311 183.633114 
L 184.387757 183.522584 
L 184.85848 183.373115 
L 185.329202 183.360928 
L 185.799925 183.127935 
L 187.682817 182.808328 
L 190.507154 182.634255 
L 191.448599 182.37285 
L 192.390045 182.275459 
L 192.860768 182.096284 
L 193.331491 181.793039 
L 194.743659 181.578034 
L 195.214382 181.568828 
L 195.685105 181.034851 
L 198.038719 180.826514 
L 198.509442 180.457404 
L 198.980165 180.245381 
L 199.921611 180.184414 
L 200.863056 179.799602 
L 203.687393 179.105958 
L 205.099562 178.951015 
L 207.923899 178.38154 
L 208.865345 177.407351 
L 209.336068 177.220433 
L 209.80679 176.825119 
L 211.218959 176.299209 
L 212.631128 176.184158 
L 213.10185 175.872437 
L 213.572573 175.837841 
L 214.514019 175.374266 
L 214.984742 175.245166 
L 215.455465 174.891192 
L 216.867633 174.588003 
L 217.338356 174.433165 
L 219.69197 174.312957 
L 221.574862 173.738306 
L 222.516307 173.696559 
L 222.98703 173.278919 
L 223.457753 173.119868 
L 223.928476 173.089837 
L 224.399199 172.86536 
L 224.869922 172.800869 
L 225.811367 172.20436 
L 226.28209 172.036587 
L 226.752813 171.70654 
L 228.164981 171.455028 
L 229.106427 171.421901 
L 230.047873 171.011258 
L 231.460041 170.577715 
L 231.930764 170.020316 
L 232.401487 169.762768 
L 232.87221 169.734277 
L 233.342933 169.549927 
L 234.284378 169.511479 
L 234.755101 169.344312 
L 235.225824 168.791121 
L 235.696547 168.48295 
L 236.637993 168.360689 
L 238.050161 168.029914 
L 240.403775 167.256216 
L 240.874498 167.156146 
L 241.815944 166.744771 
L 242.75739 166.622111 
L 244.169558 165.905052 
L 245.581727 165.54526 
L 246.523172 165.329993 
L 247.464618 165.06482 
L 248.406064 164.899634 
L 248.876787 164.868196 
L 249.34751 164.633928 
L 249.818232 164.616532 
L 250.288955 164.291841 
L 251.701124 164.11596 
L 254.054738 163.308884 
L 255.466907 163.179002 
L 255.937629 162.964825 
L 257.349798 162.809326 
L 259.703412 162.717594 
L 260.644858 162.49271 
L 261.115581 162.060692 
L 262.057026 161.916101 
L 263.939918 161.669659 
L 265.352086 161.218829 
L 265.822809 161.171401 
L 267.234978 160.52929 
L 268.176423 160.492461 
L 268.647146 160.201482 
L 269.588592 160.037196 
L 270.059315 160.00923 
L 270.530038 159.485117 
L 271.471483 159.3605 
L 273.354375 159.3017 
L 274.29582 159.216844 
L 274.766543 158.856061 
L 277.120157 158.376561 
L 277.59088 158.036978 
L 279.473772 157.486377 
L 279.944495 157.44826 
L 280.88594 156.863276 
L 283.239554 156.760562 
L 284.181 156.453334 
L 285.593169 156.254511 
L 286.063892 155.968742 
L 286.534614 155.86953 
L 287.005337 155.553676 
L 287.47606 155.530976 
L 287.946783 155.325822 
L 288.417506 154.77357 
L 288.888229 154.629703 
L 289.358951 154.241062 
L 290.300397 154.090272 
L 290.77112 153.551961 
L 291.712566 153.471983 
L 292.183289 152.305624 
L 292.654011 151.77087 
L 294.06618 151.589457 
L 294.536903 151.331071 
L 295.478348 150.070852 
L 295.949071 150.018741 
L 296.890517 149.742226 
L 297.36124 148.812597 
L 297.831963 148.330437 
L 298.302686 148.328292 
L 298.773408 147.315774 
L 299.244131 146.726051 
L 299.714854 145.409505 
L 300.185577 144.962569 
L 300.6563 144.721685 
L 301.127023 144.606754 
L 301.597745 143.4123 
L 302.068468 143.277331 
L 302.068468 143.277331 
" style="fill:none;stroke:#696969;stroke-linecap:round;stroke-width:2.25;"/>
   </g>
   <g id="line2d_14">
    <path clip-path="url(#p40506d10ad)" d="M 87.324706 247.12 
L 87.324706 91.877647 
" style="fill:none;stroke:#808080;stroke-dasharray:5.55,2.4;stroke-dashoffset:0;stroke-width:1.5;"/>
   </g>
   <g id="line2d_15">
    <path clip-path="url(#p40506d10ad)" d="M 278.626471 247.12 
L 278.626471 91.877647 
" style="fill:none;stroke:#808080;stroke-dasharray:5.55,2.4;stroke-dashoffset:0;stroke-width:1.5;"/>
   </g>
   <g id="line2d_16">
    <path clip-path="url(#p40506d10ad)" d="M 51.455625 199.260342 
L 314.495551 199.260342 
" style="fill:none;stroke:#808080;stroke-dasharray:5.55,2.4;stroke-dashoffset:0;stroke-width:1.5;"/>
   </g>
   <g id="line2d_17">
    <path clip-path="url(#p40506d10ad)" d="M 51.455625 157.807539 
L 314.495551 157.807539 
" style="fill:none;stroke:#808080;stroke-dasharray:5.55,2.4;stroke-dashoffset:0;stroke-width:1.5;"/>
   </g>
   <g id="patch_3">
    <path d="M 51.455625 247.12 
L 51.455625 91.877647 
" style="fill:none;stroke:#262626;stroke-linecap:square;stroke-linejoin:miter;stroke-width:0.8;"/>
   </g>
   <g id="patch_4">
    <path d="M 51.455625 247.12 
L 314.495551 247.12 
" style="fill:none;stroke:#262626;stroke-linecap:square;stroke-linejoin:miter;stroke-width:0.8;"/>
   </g>
   <g id="patch_5">
    <path d="M 301.941373 160.926865 
Q 301.941373 178.535296 301.941373 196.143727 
" style="fill:none;stroke:#ff0000;stroke-linecap:round;"/>
    <path d="M 299.341373 166.126865 
L 301.941373 160.926865 
L 304.541373 166.126865 
" style="fill:none;stroke:#ff0000;stroke-linecap:round;"/>
    <path d="M 304.541373 190.943727 
L 301.941373 196.143727 
L 299.341373 190.943727 
" style="fill:none;stroke:#ff0000;stroke-linecap:round;"/>
   </g>
   <g id="text_15">
    <text style="fill:#262626;font-family:DejaVu Sans;font-size:13px;font-style:normal;font-weight:normal;" transform="translate(313.709444 153.564908)">10% quantile </text>
    <text style="fill:#262626;font-family:DejaVu Sans;font-size:13px;font-style:normal;font-weight:normal;" transform="translate(313.709444 168.122065)">difference </text>
    <text style="fill:#262626;font-family:DejaVu Sans;font-size:13px;font-style:normal;font-weight:normal;" transform="translate(313.709444 182.679221)">(effect size)</text>
   </g>
  </g>
  <g id="axes_2">
   <g id="patch_6">
    <path d="M 51.455625 77.764706 
L 314.495551 77.764706 
L 314.495551 7.2 
L 51.455625 7.2 
z
" style="fill:#ffffff;"/>
   </g>
   <g id="matplotlib.axis_3">
    <g id="xtick_7">
     <g id="line2d_18">
      <g>
       <use style="fill:#262626;stroke:#262626;stroke-width:0.8;" x="63.411985" xlink:href="#m4b6701c3b7" y="77.764706"/>
      </g>
     </g>
    </g>
    <g id="xtick_8">
     <g id="line2d_19">
      <g>
       <use style="fill:#262626;stroke:#262626;stroke-width:0.8;" x="110.48427" xlink:href="#m4b6701c3b7" y="77.764706"/>
      </g>
     </g>
    </g>
    <g id="xtick_9">
     <g id="line2d_20">
      <g>
       <use style="fill:#262626;stroke:#262626;stroke-width:0.8;" x="157.556555" xlink:href="#m4b6701c3b7" y="77.764706"/>
      </g>
     </g>
    </g>
    <g id="xtick_10">
     <g id="line2d_21">
      <g>
       <use style="fill:#262626;stroke:#262626;stroke-width:0.8;" x="204.628839" xlink:href="#m4b6701c3b7" y="77.764706"/>
      </g>
     </g>
    </g>
    <g id="xtick_11">
     <g id="line2d_22">
      <g>
       <use style="fill:#262626;stroke:#262626;stroke-width:0.8;" x="251.701124" xlink:href="#m4b6701c3b7" y="77.764706"/>
      </g>
     </g>
    </g>
    <g id="xtick_12">
     <g id="line2d_23">
      <g>
       <use style="fill:#262626;stroke:#262626;stroke-width:0.8;" x="298.773408" xlink:href="#m4b6701c3b7" y="77.764706"/>
      </g>
     </g>
    </g>
   </g>
   <g id="matplotlib.axis_4">
    <g id="ytick_7"/>
    <g id="ytick_8"/>
   </g>
   <g id="PolyCollection_1">
    <defs>
     <path d="M 63.411985 -213.30574 
L 63.411985 -212.718419 
L 64.61363 -212.718419 
L 65.815274 -212.718419 
L 67.016918 -212.718419 
L 68.218562 -212.718419 
L 69.420207 -212.718419 
L 70.621851 -212.718419 
L 71.823495 -212.718419 
L 73.025139 -212.718419 
L 74.226784 -212.718419 
L 75.428428 -212.718419 
L 76.630072 -212.718419 
L 77.831716 -212.718419 
L 79.033361 -212.718419 
L 80.235005 -212.718419 
L 81.436649 -212.718419 
L 82.638293 -212.718419 
L 83.839938 -212.718419 
L 85.041582 -212.718419 
L 86.243226 -212.718419 
L 87.44487 -212.718419 
L 88.646515 -212.718419 
L 89.848159 -212.718419 
L 91.049803 -212.718419 
L 92.251447 -212.718419 
L 93.453092 -212.718419 
L 94.654736 -212.718419 
L 95.85638 -212.718419 
L 97.058024 -212.718419 
L 98.259669 -212.718419 
L 99.461313 -212.718419 
L 100.662957 -212.718419 
L 101.864601 -212.718419 
L 103.066246 -212.718419 
L 104.26789 -212.718419 
L 105.469534 -212.718419 
L 106.671178 -212.718419 
L 107.872823 -212.718419 
L 109.074467 -212.718419 
L 110.276111 -212.718419 
L 111.477755 -212.718419 
L 112.6794 -212.718419 
L 113.881044 -212.718419 
L 115.082688 -212.718419 
L 116.284332 -212.718419 
L 117.485977 -212.718419 
L 118.687621 -212.718419 
L 119.889265 -212.718419 
L 121.090909 -212.718419 
L 122.292554 -212.718419 
L 123.494198 -212.718419 
L 124.695842 -212.718419 
L 125.897486 -212.718419 
L 127.099131 -212.718419 
L 128.300775 -212.718419 
L 129.502419 -212.718419 
L 130.704063 -212.718419 
L 131.905708 -212.718419 
L 133.107352 -212.718419 
L 134.308996 -212.718419 
L 135.51064 -212.718419 
L 136.712285 -212.718419 
L 137.913929 -212.718419 
L 139.115573 -212.718419 
L 140.317217 -212.718419 
L 141.518862 -212.718419 
L 142.720506 -212.718419 
L 143.92215 -212.718419 
L 145.123794 -212.718419 
L 146.325439 -212.718419 
L 147.527083 -212.718419 
L 148.728727 -212.718419 
L 149.930371 -212.718419 
L 151.132016 -212.718419 
L 152.33366 -212.718419 
L 153.535304 -212.718419 
L 154.736948 -212.718419 
L 155.938593 -212.718419 
L 157.140237 -212.718419 
L 158.341881 -212.718419 
L 159.543525 -212.718419 
L 160.74517 -212.718419 
L 161.946814 -212.718419 
L 163.148458 -212.718419 
L 164.350102 -212.718419 
L 165.551747 -212.718419 
L 166.753391 -212.718419 
L 167.955035 -212.718419 
L 169.156679 -212.718419 
L 170.358324 -212.718419 
L 171.559968 -212.718419 
L 172.761612 -212.718419 
L 173.963256 -212.718419 
L 175.164901 -212.718419 
L 176.366545 -212.718419 
L 177.568189 -212.718419 
L 178.769833 -212.718419 
L 179.971478 -212.718419 
L 181.173122 -212.718419 
L 182.374766 -212.718419 
L 183.57641 -212.718419 
L 184.778055 -212.718419 
L 185.979699 -212.718419 
L 187.181343 -212.718419 
L 188.382987 -212.718419 
L 189.584632 -212.718419 
L 190.786276 -212.718419 
L 191.98792 -212.718419 
L 193.189564 -212.718419 
L 194.391209 -212.718419 
L 195.592853 -212.718419 
L 196.794497 -212.718419 
L 197.996141 -212.718419 
L 199.197786 -212.718419 
L 200.39943 -212.718419 
L 201.601074 -212.718419 
L 202.802718 -212.718419 
L 204.004363 -212.718419 
L 205.206007 -212.718419 
L 206.407651 -212.718419 
L 207.609295 -212.718419 
L 208.81094 -212.718419 
L 210.012584 -212.718419 
L 211.214228 -212.718419 
L 212.415872 -212.718419 
L 213.617517 -212.718419 
L 214.819161 -212.718419 
L 216.020805 -212.718419 
L 217.222449 -212.718419 
L 218.424094 -212.718419 
L 219.625738 -212.718419 
L 220.827382 -212.718419 
L 222.029026 -212.718419 
L 223.230671 -212.718419 
L 224.432315 -212.718419 
L 225.633959 -212.718419 
L 226.835603 -212.718419 
L 228.037248 -212.718419 
L 229.238892 -212.718419 
L 230.440536 -212.718419 
L 231.64218 -212.718419 
L 232.843825 -212.718419 
L 234.045469 -212.718419 
L 235.247113 -212.718419 
L 236.448757 -212.718419 
L 237.650402 -212.718419 
L 238.852046 -212.718419 
L 240.05369 -212.718419 
L 241.255334 -212.718419 
L 242.456979 -212.718419 
L 243.658623 -212.718419 
L 244.860267 -212.718419 
L 246.061911 -212.718419 
L 247.263556 -212.718419 
L 248.4652 -212.718419 
L 249.666844 -212.718419 
L 250.868488 -212.718419 
L 252.070133 -212.718419 
L 253.271777 -212.718419 
L 254.473421 -212.718419 
L 255.675065 -212.718419 
L 256.87671 -212.718419 
L 258.078354 -212.718419 
L 259.279998 -212.718419 
L 260.481642 -212.718419 
L 261.683287 -212.718419 
L 262.884931 -212.718419 
L 264.086575 -212.718419 
L 265.288219 -212.718419 
L 266.489864 -212.718419 
L 267.691508 -212.718419 
L 268.893152 -212.718419 
L 270.094796 -212.718419 
L 271.296441 -212.718419 
L 272.498085 -212.718419 
L 273.699729 -212.718419 
L 274.901373 -212.718419 
L 276.103018 -212.718419 
L 277.304662 -212.718419 
L 278.506306 -212.718419 
L 279.70795 -212.718419 
L 280.909595 -212.718419 
L 282.111239 -212.718419 
L 283.312883 -212.718419 
L 284.514527 -212.718419 
L 285.716172 -212.718419 
L 286.917816 -212.718419 
L 288.11946 -212.718419 
L 289.321104 -212.718419 
L 290.522749 -212.718419 
L 291.724393 -212.718419 
L 292.926037 -212.718419 
L 294.127681 -212.718419 
L 295.329326 -212.718419 
L 296.53097 -212.718419 
L 297.732614 -212.718419 
L 298.934258 -212.718419 
L 300.135903 -212.718419 
L 301.337547 -212.718419 
L 302.539191 -212.718419 
L 302.539191 -246.1208 
L 302.539191 -246.1208 
L 301.337547 -248.392361 
L 300.135903 -250.653159 
L 298.934258 -252.887699 
L 297.732614 -255.081042 
L 296.53097 -257.2191 
L 295.329326 -259.288904 
L 294.127681 -261.278827 
L 292.926037 -263.178767 
L 291.724393 -264.980279 
L 290.522749 -266.676649 
L 289.321104 -268.262917 
L 288.11946 -269.735851 
L 286.917816 -271.093876 
L 285.716172 -272.336954 
L 284.514527 -273.466442 
L 283.312883 -274.484921 
L 282.111239 -275.396005 
L 280.909595 -276.20415 
L 279.70795 -276.914463 
L 278.506306 -277.532513 
L 277.304662 -278.064169 
L 276.103018 -278.515441 
L 274.901373 -278.892361 
L 273.699729 -279.200878 
L 272.498085 -279.446777 
L 271.296441 -279.635629 
L 270.094796 -279.772751 
L 268.893152 -279.863195 
L 267.691508 -279.91174 
L 266.489864 -279.922901 
L 265.288219 -279.900938 
L 264.086575 -279.849868 
L 262.884931 -279.773473 
L 261.683287 -279.675303 
L 260.481642 -279.558671 
L 259.279998 -279.426638 
L 258.078354 -279.28199 
L 256.87671 -279.127206 
L 255.675065 -278.964418 
L 254.473421 -278.795369 
L 253.271777 -278.621363 
L 252.070133 -278.443228 
L 250.868488 -278.261268 
L 249.666844 -278.075234 
L 248.4652 -277.884304 
L 247.263556 -277.687071 
L 246.061911 -277.481553 
L 244.860267 -277.265212 
L 243.658623 -277.034997 
L 242.456979 -276.787402 
L 241.255334 -276.518536 
L 240.05369 -276.224211 
L 238.852046 -275.900043 
L 237.650402 -275.541559 
L 236.448757 -275.144312 
L 235.247113 -274.704001 
L 234.045469 -274.216589 
L 232.843825 -273.678418 
L 231.64218 -273.086318 
L 230.440536 -272.437706 
L 229.238892 -271.730675 
L 228.037248 -270.964068 
L 226.835603 -270.137534 
L 225.633959 -269.251571 
L 224.432315 -268.307545 
L 223.230671 -267.307698 
L 222.029026 -266.255127 
L 220.827382 -265.153748 
L 219.625738 -264.008246 
L 218.424094 -262.823995 
L 217.222449 -261.606975 
L 216.020805 -260.363659 
L 214.819161 -259.100898 
L 213.617517 -257.825787 
L 212.415872 -256.545531 
L 211.214228 -255.267292 
L 210.012584 -253.99805 
L 208.81094 -252.744454 
L 207.609295 -251.512684 
L 206.407651 -250.30832 
L 205.206007 -249.13623 
L 204.004363 -248.000466 
L 202.802718 -246.904192 
L 201.601074 -245.849628 
L 200.39943 -244.838021 
L 199.197786 -243.869647 
L 197.996141 -242.94384 
L 196.794497 -242.059043 
L 195.592853 -241.212895 
L 194.391209 -240.402333 
L 193.189564 -239.623723 
L 191.98792 -238.872996 
L 190.786276 -238.145809 
L 189.584632 -237.4377 
L 188.382987 -236.744251 
L 187.181343 -236.061244 
L 185.979699 -235.3848 
L 184.778055 -234.711515 
L 183.57641 -234.03856 
L 182.374766 -233.36377 
L 181.173122 -232.685695 
L 179.971478 -232.003635 
L 178.769833 -231.317634 
L 177.568189 -230.628453 
L 176.366545 -229.937521 
L 175.164901 -229.246851 
L 173.963256 -228.558953 
L 172.761612 -227.876718 
L 171.559968 -227.203302 
L 170.358324 -226.542004 
L 169.156679 -225.896141 
L 167.955035 -225.268931 
L 166.753391 -224.663386 
L 165.551747 -224.082218 
L 164.350102 -223.52776 
L 163.148458 -223.001903 
L 161.946814 -222.506058 
L 160.74517 -222.041131 
L 159.543525 -221.607516 
L 158.341881 -221.205113 
L 157.140237 -220.833351 
L 155.938593 -220.491227 
L 154.736948 -220.177364 
L 153.535304 -219.890063 
L 152.33366 -219.627369 
L 151.132016 -219.387139 
L 149.930371 -219.167106 
L 148.728727 -218.96495 
L 147.527083 -218.778356 
L 146.325439 -218.605078 
L 145.123794 -218.442988 
L 143.92215 -218.290124 
L 142.720506 -218.144731 
L 141.518862 -218.005296 
L 140.317217 -217.870565 
L 139.115573 -217.739566 
L 137.913929 -217.611609 
L 136.712285 -217.48629 
L 135.51064 -217.363471 
L 134.308996 -217.243264 
L 133.107352 -217.126003 
L 131.905708 -217.012198 
L 130.704063 -216.9025 
L 129.502419 -216.797644 
L 128.300775 -216.698398 
L 127.099131 -216.605509 
L 125.897486 -216.519648 
L 124.695842 -216.441359 
L 123.494198 -216.371018 
L 122.292554 -216.308789 
L 121.090909 -216.254605 
L 119.889265 -216.208148 
L 118.687621 -216.168849 
L 117.485977 -216.135897 
L 116.284332 -216.108264 
L 115.082688 -216.084735 
L 113.881044 -216.063957 
L 112.6794 -216.04449 
L 111.477755 -216.024862 
L 110.276111 -216.003627 
L 109.074467 -215.979428 
L 107.872823 -215.951046 
L 106.671178 -215.917446 
L 105.469534 -215.87782 
L 104.26789 -215.831608 
L 103.066246 -215.778514 
L 101.864601 -215.718509 
L 100.662957 -215.651815 
L 99.461313 -215.57889 
L 98.259669 -215.500387 
L 97.058024 -215.417119 
L 95.85638 -215.330011 
L 94.654736 -215.240053 
L 93.453092 -215.148249 
L 92.251447 -215.055571 
L 91.049803 -214.962923 
L 89.848159 -214.8711 
L 88.646515 -214.780766 
L 87.44487 -214.692438 
L 86.243226 -214.606478 
L 85.041582 -214.523093 
L 83.839938 -214.442349 
L 82.638293 -214.364187 
L 81.436649 -214.288447 
L 80.235005 -214.214891 
L 79.033361 -214.143238 
L 77.831716 -214.073185 
L 76.630072 -214.004441 
L 75.428428 -213.936746 
L 74.226784 -213.869888 
L 73.025139 -213.803725 
L 71.823495 -213.738187 
L 70.621851 -213.673279 
L 69.420207 -213.609083 
L 68.218562 -213.545748 
L 67.016918 -213.483481 
L 65.815274 -213.422535 
L 64.61363 -213.363189 
L 63.411985 -213.30574 
z
" id="meb23cbdb75" style="stroke:#808080;"/>
    </defs>
    <g clip-path="url(#p827e1e2870)">
     <use style="fill:#808080;fill-opacity:0.25;stroke:#808080;" x="0" xlink:href="#meb23cbdb75" y="290.483125"/>
    </g>
   </g>
   <g id="PolyCollection_2">
    <defs>
     <path d="M 63.411985 -239.733186 
L 63.411985 -212.718419 
L 64.61363 -212.718419 
L 65.815274 -212.718419 
L 67.016918 -212.718419 
L 68.218562 -212.718419 
L 69.420207 -212.718419 
L 70.621851 -212.718419 
L 71.823495 -212.718419 
L 73.025139 -212.718419 
L 74.226784 -212.718419 
L 75.428428 -212.718419 
L 76.630072 -212.718419 
L 77.831716 -212.718419 
L 79.033361 -212.718419 
L 80.235005 -212.718419 
L 81.436649 -212.718419 
L 82.638293 -212.718419 
L 83.839938 -212.718419 
L 85.041582 -212.718419 
L 86.243226 -212.718419 
L 87.44487 -212.718419 
L 88.646515 -212.718419 
L 89.848159 -212.718419 
L 91.049803 -212.718419 
L 92.251447 -212.718419 
L 93.453092 -212.718419 
L 94.654736 -212.718419 
L 95.85638 -212.718419 
L 97.058024 -212.718419 
L 98.259669 -212.718419 
L 99.461313 -212.718419 
L 100.662957 -212.718419 
L 101.864601 -212.718419 
L 103.066246 -212.718419 
L 104.26789 -212.718419 
L 105.469534 -212.718419 
L 106.671178 -212.718419 
L 107.872823 -212.718419 
L 109.074467 -212.718419 
L 110.276111 -212.718419 
L 111.477755 -212.718419 
L 112.6794 -212.718419 
L 113.881044 -212.718419 
L 115.082688 -212.718419 
L 116.284332 -212.718419 
L 117.485977 -212.718419 
L 118.687621 -212.718419 
L 119.889265 -212.718419 
L 121.090909 -212.718419 
L 122.292554 -212.718419 
L 123.494198 -212.718419 
L 124.695842 -212.718419 
L 125.897486 -212.718419 
L 127.099131 -212.718419 
L 128.300775 -212.718419 
L 129.502419 -212.718419 
L 130.704063 -212.718419 
L 131.905708 -212.718419 
L 133.107352 -212.718419 
L 134.308996 -212.718419 
L 135.51064 -212.718419 
L 136.712285 -212.718419 
L 137.913929 -212.718419 
L 139.115573 -212.718419 
L 140.317217 -212.718419 
L 141.518862 -212.718419 
L 142.720506 -212.718419 
L 143.92215 -212.718419 
L 145.123794 -212.718419 
L 146.325439 -212.718419 
L 147.527083 -212.718419 
L 148.728727 -212.718419 
L 149.930371 -212.718419 
L 151.132016 -212.718419 
L 152.33366 -212.718419 
L 153.535304 -212.718419 
L 154.736948 -212.718419 
L 155.938593 -212.718419 
L 157.140237 -212.718419 
L 158.341881 -212.718419 
L 159.543525 -212.718419 
L 160.74517 -212.718419 
L 161.946814 -212.718419 
L 163.148458 -212.718419 
L 164.350102 -212.718419 
L 165.551747 -212.718419 
L 166.753391 -212.718419 
L 167.955035 -212.718419 
L 169.156679 -212.718419 
L 170.358324 -212.718419 
L 171.559968 -212.718419 
L 172.761612 -212.718419 
L 173.963256 -212.718419 
L 175.164901 -212.718419 
L 176.366545 -212.718419 
L 177.568189 -212.718419 
L 178.769833 -212.718419 
L 179.971478 -212.718419 
L 181.173122 -212.718419 
L 182.374766 -212.718419 
L 183.57641 -212.718419 
L 184.778055 -212.718419 
L 185.979699 -212.718419 
L 187.181343 -212.718419 
L 188.382987 -212.718419 
L 189.584632 -212.718419 
L 190.786276 -212.718419 
L 191.98792 -212.718419 
L 193.189564 -212.718419 
L 194.391209 -212.718419 
L 195.592853 -212.718419 
L 196.794497 -212.718419 
L 197.996141 -212.718419 
L 199.197786 -212.718419 
L 200.39943 -212.718419 
L 201.601074 -212.718419 
L 202.802718 -212.718419 
L 204.004363 -212.718419 
L 205.206007 -212.718419 
L 206.407651 -212.718419 
L 207.609295 -212.718419 
L 208.81094 -212.718419 
L 210.012584 -212.718419 
L 211.214228 -212.718419 
L 212.415872 -212.718419 
L 213.617517 -212.718419 
L 214.819161 -212.718419 
L 216.020805 -212.718419 
L 217.222449 -212.718419 
L 218.424094 -212.718419 
L 219.625738 -212.718419 
L 220.827382 -212.718419 
L 222.029026 -212.718419 
L 223.230671 -212.718419 
L 224.432315 -212.718419 
L 225.633959 -212.718419 
L 226.835603 -212.718419 
L 228.037248 -212.718419 
L 229.238892 -212.718419 
L 230.440536 -212.718419 
L 231.64218 -212.718419 
L 232.843825 -212.718419 
L 234.045469 -212.718419 
L 235.247113 -212.718419 
L 236.448757 -212.718419 
L 237.650402 -212.718419 
L 238.852046 -212.718419 
L 240.05369 -212.718419 
L 241.255334 -212.718419 
L 242.456979 -212.718419 
L 243.658623 -212.718419 
L 244.860267 -212.718419 
L 246.061911 -212.718419 
L 247.263556 -212.718419 
L 248.4652 -212.718419 
L 249.666844 -212.718419 
L 250.868488 -212.718419 
L 252.070133 -212.718419 
L 253.271777 -212.718419 
L 254.473421 -212.718419 
L 255.675065 -212.718419 
L 256.87671 -212.718419 
L 258.078354 -212.718419 
L 259.279998 -212.718419 
L 260.481642 -212.718419 
L 261.683287 -212.718419 
L 262.884931 -212.718419 
L 264.086575 -212.718419 
L 265.288219 -212.718419 
L 266.489864 -212.718419 
L 267.691508 -212.718419 
L 268.893152 -212.718419 
L 270.094796 -212.718419 
L 271.296441 -212.718419 
L 272.498085 -212.718419 
L 273.699729 -212.718419 
L 274.901373 -212.718419 
L 276.103018 -212.718419 
L 277.304662 -212.718419 
L 278.506306 -212.718419 
L 279.70795 -212.718419 
L 280.909595 -212.718419 
L 282.111239 -212.718419 
L 283.312883 -212.718419 
L 284.514527 -212.718419 
L 285.716172 -212.718419 
L 286.917816 -212.718419 
L 288.11946 -212.718419 
L 289.321104 -212.718419 
L 290.522749 -212.718419 
L 291.724393 -212.718419 
L 292.926037 -212.718419 
L 294.127681 -212.718419 
L 295.329326 -212.718419 
L 296.53097 -212.718419 
L 297.732614 -212.718419 
L 298.934258 -212.718419 
L 300.135903 -212.718419 
L 301.337547 -212.718419 
L 302.539191 -212.718419 
L 302.539191 -213.567266 
L 302.539191 -213.567266 
L 301.337547 -213.614819 
L 300.135903 -213.660702 
L 298.934258 -213.704528 
L 297.732614 -213.745952 
L 296.53097 -213.784675 
L 295.329326 -213.820463 
L 294.127681 -213.853148 
L 292.926037 -213.882639 
L 291.724393 -213.908932 
L 290.522749 -213.93211 
L 289.321104 -213.95235 
L 288.11946 -213.969928 
L 286.917816 -213.985211 
L 285.716172 -213.998665 
L 284.514527 -214.010841 
L 283.312883 -214.022377 
L 282.111239 -214.03398 
L 280.909595 -214.046421 
L 279.70795 -214.060517 
L 278.506306 -214.077113 
L 277.304662 -214.097063 
L 276.103018 -214.121211 
L 274.901373 -214.150367 
L 273.699729 -214.185282 
L 272.498085 -214.226631 
L 271.296441 -214.274988 
L 270.094796 -214.330805 
L 268.893152 -214.394406 
L 267.691508 -214.465966 
L 266.489864 -214.545512 
L 265.288219 -214.632922 
L 264.086575 -214.727932 
L 262.884931 -214.830153 
L 261.683287 -214.939092 
L 260.481642 -215.054179 
L 259.279998 -215.174806 
L 258.078354 -215.300363 
L 256.87671 -215.430286 
L 255.675065 -215.5641 
L 254.473421 -215.701471 
L 253.271777 -215.842247 
L 252.070133 -215.986501 
L 250.868488 -216.134573 
L 249.666844 -216.287096 
L 248.4652 -216.445018 
L 247.263556 -216.609614 
L 246.061911 -216.782488 
L 244.860267 -216.965562 
L 243.658623 -217.161053 
L 242.456979 -217.371438 
L 241.255334 -217.59941 
L 240.05369 -217.847828 
L 238.852046 -218.119648 
L 237.650402 -218.417858 
L 236.448757 -218.745403 
L 235.247113 -219.105112 
L 234.045469 -219.499617 
L 232.843825 -219.931282 
L 231.64218 -220.402128 
L 230.440536 -220.913774 
L 229.238892 -221.467373 
L 228.037248 -222.063569 
L 226.835603 -222.702456 
L 225.633959 -223.383551 
L 224.432315 -224.105785 
L 223.230671 -224.867499 
L 222.029026 -225.666454 
L 220.827382 -226.499864 
L 219.625738 -227.364428 
L 218.424094 -228.256387 
L 217.222449 -229.171582 
L 216.020805 -230.105529 
L 214.819161 -231.053502 
L 213.617517 -232.010618 
L 212.415872 -232.971935 
L 211.214228 -233.932545 
L 210.012584 -234.887676 
L 208.81094 -235.832782 
L 207.609295 -236.763633 
L 206.407651 -237.676407 
L 205.206007 -238.567751 
L 204.004363 -239.434855 
L 202.802718 -240.275492 
L 201.601074 -241.088053 
L 200.39943 -241.871564 
L 199.197786 -242.625682 
L 197.996141 -243.350678 
L 196.794497 -244.047399 
L 195.592853 -244.717213 
L 194.391209 -245.361948 
L 193.189564 -245.983804 
L 191.98792 -246.58527 
L 190.786276 -247.169023 
L 189.584632 -247.737831 
L 188.382987 -248.294452 
L 187.181343 -248.841535 
L 185.979699 -249.381533 
L 184.778055 -249.916621 
L 183.57641 -250.448628 
L 182.374766 -250.978984 
L 181.173122 -251.50868 
L 179.971478 -252.038251 
L 178.769833 -252.567772 
L 177.568189 -253.09687 
L 176.366545 -253.624753 
L 175.164901 -254.150256 
L 173.963256 -254.671893 
L 172.761612 -255.187926 
L 171.559968 -255.69643 
L 170.358324 -256.195373 
L 169.156679 -256.682686 
L 167.955035 -257.156342 
L 166.753391 -257.614419 
L 165.551747 -258.055164 
L 164.350102 -258.477044 
L 163.148458 -258.878788 
L 161.946814 -259.259417 
L 160.74517 -259.618269 
L 159.543525 -259.954998 
L 158.341881 -260.26958 
L 157.140237 -260.562297 
L 155.938593 -260.833714 
L 154.736948 -261.084655 
L 153.535304 -261.316163 
L 152.33366 -261.529464 
L 151.132016 -261.725927 
L 149.930371 -261.907015 
L 148.728727 -262.074247 
L 147.527083 -262.229153 
L 146.325439 -262.373234 
L 145.123794 -262.507927 
L 143.92215 -262.634572 
L 142.720506 -262.754382 
L 141.518862 -262.868423 
L 140.317217 -262.977598 
L 139.115573 -263.082633 
L 137.913929 -263.184075 
L 136.712285 -263.282292 
L 135.51064 -263.377485 
L 134.308996 -263.469697 
L 133.107352 -263.558832 
L 131.905708 -263.644685 
L 130.704063 -263.72696 
L 129.502419 -263.80531 
L 128.300775 -263.879361 
L 127.099131 -263.948746 
L 125.897486 -264.01314 
L 124.695842 -264.07228 
L 123.494198 -264.125995 
L 122.292554 -264.174221 
L 121.090909 -264.217012 
L 119.889265 -264.254547 
L 118.687621 -264.287123 
L 117.485977 -264.315143 
L 116.284332 -264.339095 
L 115.082688 -264.359527 
L 113.881044 -264.377004 
L 112.6794 -264.392072 
L 111.477755 -264.405209 
L 110.276111 -264.416778 
L 109.074467 -264.426973 
L 107.872823 -264.435769 
L 106.671178 -264.442876 
L 105.469534 -264.447688 
L 104.26789 -264.449251 
L 103.066246 -264.446219 
L 101.864601 -264.436837 
L 100.662957 -264.418914 
L 99.461313 -264.38982 
L 98.259669 -264.346482 
L 97.058024 -264.285396 
L 95.85638 -264.202644 
L 94.654736 -264.093927 
L 93.453092 -263.954604 
L 92.251447 -263.779745 
L 91.049803 -263.564191 
L 89.848159 -263.302628 
L 88.646515 -262.989668 
L 87.44487 -262.619941 
L 86.243226 -262.1882 
L 85.041582 -261.689426 
L 83.839938 -261.118945 
L 82.638293 -260.472548 
L 81.436649 -259.746614 
L 80.235005 -258.938228 
L 79.033361 -258.045296 
L 77.831716 -257.06666 
L 76.630072 -256.002182 
L 75.428428 -254.852834 
L 74.226784 -253.620748 
L 73.025139 -252.309258 
L 71.823495 -250.922903 
L 70.621851 -249.467406 
L 69.420207 -247.949628 
L 68.218562 -246.377478 
L 67.016918 -244.759808 
L 65.815274 -243.106268 
L 64.61363 -241.427147 
L 63.411985 -239.733186 
z
" id="mb98c22b345" style="stroke:#aec7e8;"/>
    </defs>
    <g clip-path="url(#p827e1e2870)">
     <use style="fill:#aec7e8;fill-opacity:0.25;stroke:#aec7e8;" x="0" xlink:href="#mb98c22b345" y="290.483125"/>
    </g>
   </g>
   <g id="patch_7">
    <path d="M 51.455625 77.764706 
L 314.495551 77.764706 
" style="fill:none;stroke:#262626;stroke-linecap:square;stroke-linejoin:miter;stroke-width:0.8;"/>
   </g>
   <g id="legend_1">
    <g id="patch_8">
     <path d="M 341.586921 89.401844 
L 436.915515 89.401844 
Q 439.515515 89.401844 439.515515 86.801844 
L 439.515515 16.3 
Q 439.515515 13.7 436.915515 13.7 
L 341.586921 13.7 
Q 338.986921 13.7 338.986921 16.3 
L 338.986921 86.801844 
Q 338.986921 89.401844 341.586921 89.401844 
z
" style="fill:#ffffff;opacity:0.8;stroke:#cccccc;stroke-linejoin:miter;"/>
    </g>
    <g id="text_16">
     <text style="fill:#262626;font-family:DejaVu Sans;font-size:13px;font-style:normal;font-weight:normal;text-anchor:start;" transform="rotate(-0, 363.595515, 28.777969)" x="363.595515" y="28.777969">Lineage</text>
    </g>
    <g id="patch_9">
     <path d="M 344.186921 56.489906 
L 370.186921 56.489906 
L 370.186921 47.389906 
L 344.186921 47.389906 
z
" style="fill:#aec7e8;fill-opacity:0.25;stroke:#aec7e8;stroke-linejoin:miter;"/>
    </g>
    <g id="text_17">
     <text style="fill:#262626;font-family:DejaVu Sans;font-size:13px;font-style:normal;font-weight:normal;" transform="translate(380.586921 47.859531)">Nervous</text>
     <text style="fill:#262626;font-family:DejaVu Sans;font-size:13px;font-style:normal;font-weight:normal;" transform="translate(380.586921 62.416688)">system</text>
    </g>
    <g id="patch_10">
     <path d="M 344.186921 81.49825 
L 370.186921 81.49825 
L 370.186921 72.39825 
L 344.186921 72.39825 
z
" style="fill:#808080;fill-opacity:0.25;stroke:#808080;stroke-linejoin:miter;"/>
    </g>
    <g id="text_18">
     <text style="fill:#262626;font-family:DejaVu Sans;font-size:13px;font-style:normal;font-weight:normal;text-anchor:start;" transform="rotate(-0, 380.586921, 81.49825)" x="380.586921" y="81.49825">Other</text>
    </g>
   </g>
  </g>
 </g>
 <defs>
  <clipPath id="p40506d10ad">
   <rect height="155.242353" width="263.039926" x="51.455625" y="91.877647"/>
  </clipPath>
  <clipPath id="p827e1e2870">
   <rect height="70.564706" width="263.039926" x="51.455625" y="7.2"/>
  </clipPath>
 </defs>
</svg>
