<?xml version="1.0" encoding="utf-8" standalone="no"?>
<!DOCTYPE svg PUBLIC "-//W3C//DTD SVG 1.1//EN"
  "http://www.w3.org/Graphics/SVG/1.1/DTD/svg11.dtd">
<!-- Created with matplotlib (https://matplotlib.org/) -->
<svg height="290.483125pt" version="1.1" viewBox="0 0 446.715515 290.483125" width="446.715515pt" xmlns="http://www.w3.org/2000/svg" xmlns:xlink="http://www.w3.org/1999/xlink">
 <defs>
  <style type="text/css">
*{stroke-linecap:butt;stroke-linejoin:round;}
  </style>
 </defs>
 <g id="figure_1">
  <g id="patch_1">
   <path d="M 0 290.483125 
L 446.715515 290.483125 
L 446.715515 0 
L 0 0 
z
" style="fill:#ffffff;"/>
  </g>
  <g id="axes_1">
   <g id="patch_2">
    <path d="M 51.455625 247.12 
L 314.495551 247.12 
L 314.495551 91.877647 
L 51.455625 91.877647 
z
" style="fill:#ffffff;"/>
   </g>
   <g id="matplotlib.axis_1">
    <g id="xtick_1">
     <g id="line2d_1">
      <defs>
       <path d="M 0 0 
L 0 3.5 
" id="m12bd9f3ccd" style="stroke:#262626;stroke-width:0.8;"/>
      </defs>
      <g>
       <use style="fill:#262626;stroke:#262626;stroke-width:0.8;" x="63.411985" xlink:href="#m12bd9f3ccd" y="247.12"/>
      </g>
     </g>
     <g id="text_1">
      <text style="fill:#262626;font-family:DejaVu Sans;font-size:13px;font-style:normal;font-weight:normal;text-anchor:middle;" transform="rotate(-0, 63.411985, 263.997969)" x="63.411985" y="263.997969">0</text>
     </g>
    </g>
    <g id="xtick_2">
     <g id="line2d_2">
      <g>
       <use style="fill:#262626;stroke:#262626;stroke-width:0.8;" x="143.387639" xlink:href="#m12bd9f3ccd" y="247.12"/>
      </g>
     </g>
     <g id="text_2">
      <text style="fill:#262626;font-family:DejaVu Sans;font-size:13px;font-style:normal;font-weight:normal;text-anchor:middle;" transform="rotate(-0, 143.387639, 263.997969)" x="143.387639" y="263.997969">200</text>
     </g>
    </g>
    <g id="xtick_3">
     <g id="line2d_3">
      <g>
       <use style="fill:#262626;stroke:#262626;stroke-width:0.8;" x="223.363294" xlink:href="#m12bd9f3ccd" y="247.12"/>
      </g>
     </g>
     <g id="text_3">
      <text style="fill:#262626;font-family:DejaVu Sans;font-size:13px;font-style:normal;font-weight:normal;text-anchor:middle;" transform="rotate(-0, 223.363294, 263.997969)" x="223.363294" y="263.997969">400</text>
     </g>
    </g>
    <g id="xtick_4">
     <g id="line2d_4">
      <g>
       <use style="fill:#262626;stroke:#262626;stroke-width:0.8;" x="303.338948" xlink:href="#m12bd9f3ccd" y="247.12"/>
      </g>
     </g>
     <g id="text_4">
      <text style="fill:#262626;font-family:DejaVu Sans;font-size:13px;font-style:normal;font-weight:normal;text-anchor:middle;" transform="rotate(-0, 303.338948, 263.997969)" x="303.338948" y="263.997969">600</text>
     </g>
    </g>
    <g id="text_5">
     <text style="fill:#262626;font-family:DejaVu Sans;font-size:13px;font-style:normal;font-weight:normal;text-anchor:middle;" transform="rotate(-0, 182.975588, 280.579531)" x="182.975588" y="280.579531">Cell order</text>
    </g>
   </g>
   <g id="matplotlib.axis_2">
    <g id="ytick_1">
     <g id="line2d_5">
      <defs>
       <path d="M 0 0 
L -3.5 0 
" id="m07bd7bbf7f" style="stroke:#262626;stroke-width:0.8;"/>
      </defs>
      <g>
       <use style="fill:#262626;stroke:#262626;stroke-width:0.8;" x="51.455625" xlink:href="#m07bd7bbf7f" y="247.12"/>
      </g>
     </g>
     <g id="text_6">
      <text style="fill:#262626;font-family:DejaVu Sans;font-size:13px;font-style:normal;font-weight:normal;text-anchor:end;" transform="rotate(-0, 44.455625, 252.058984)" x="44.455625" y="252.058984">0.0</text>
     </g>
    </g>
    <g id="ytick_2">
     <g id="line2d_6">
      <g>
       <use style="fill:#262626;stroke:#262626;stroke-width:0.8;" x="51.455625" xlink:href="#m07bd7bbf7f" y="216.071529"/>
      </g>
     </g>
     <g id="text_7">
      <text style="fill:#262626;font-family:DejaVu Sans;font-size:13px;font-style:normal;font-weight:normal;text-anchor:end;" transform="rotate(-0, 44.455625, 221.010514)" x="44.455625" y="221.010514">0.2</text>
     </g>
    </g>
    <g id="ytick_3">
     <g id="line2d_7">
      <g>
       <use style="fill:#262626;stroke:#262626;stroke-width:0.8;" x="51.455625" xlink:href="#m07bd7bbf7f" y="185.023059"/>
      </g>
     </g>
     <g id="text_8">
      <text style="fill:#262626;font-family:DejaVu Sans;font-size:13px;font-style:normal;font-weight:normal;text-anchor:end;" transform="rotate(-0, 44.455625, 189.962043)" x="44.455625" y="189.962043">0.4</text>
     </g>
    </g>
    <g id="ytick_4">
     <g id="line2d_8">
      <g>
       <use style="fill:#262626;stroke:#262626;stroke-width:0.8;" x="51.455625" xlink:href="#m07bd7bbf7f" y="153.974588"/>
      </g>
     </g>
     <g id="text_9">
      <text style="fill:#262626;font-family:DejaVu Sans;font-size:13px;font-style:normal;font-weight:normal;text-anchor:end;" transform="rotate(-0, 44.455625, 158.913573)" x="44.455625" y="158.913573">0.6</text>
     </g>
    </g>
    <g id="ytick_5">
     <g id="line2d_9">
      <g>
       <use style="fill:#262626;stroke:#262626;stroke-width:0.8;" x="51.455625" xlink:href="#m07bd7bbf7f" y="122.926118"/>
      </g>
     </g>
     <g id="text_10">
      <text style="fill:#262626;font-family:DejaVu Sans;font-size:13px;font-style:normal;font-weight:normal;text-anchor:end;" transform="rotate(-0, 44.455625, 127.865102)" x="44.455625" y="127.865102">0.8</text>
     </g>
    </g>
    <g id="ytick_6">
     <g id="line2d_10">
      <g>
       <use style="fill:#262626;stroke:#262626;stroke-width:0.8;" x="51.455625" xlink:href="#m07bd7bbf7f" y="91.877647"/>
      </g>
     </g>
     <g id="text_11">
      <text style="fill:#262626;font-family:DejaVu Sans;font-size:13px;font-style:normal;font-weight:normal;text-anchor:end;" transform="rotate(-0, 44.455625, 96.816631)" x="44.455625" y="96.816631">1.0</text>
     </g>
    </g>
    <g id="text_12">
     <text style="fill:#262626;font-family:DejaVu Sans;font-size:13px;font-style:normal;font-weight:normal;text-anchor:middle;" transform="rotate(-90, 17.077969, 169.498824)" x="17.077969" y="169.498824">Estimated rate</text>
    </g>
   </g>
   <g id="line2d_11">
    <path clip-path="url(#p05b9985a15)" d="M 63.411985 227.588599 
L 63.811864 227.444647 
L 64.211742 226.03119 
L 64.61162 217.590013 
L 65.011498 217.47396 
L 65.411377 215.923218 
L 65.811255 215.384815 
L 66.211133 215.319017 
L 66.611011 213.59629 
L 67.01089 213.53677 
L 67.410768 213.093735 
L 67.810646 211.623925 
L 68.610403 211.144828 
L 69.010281 210.965387 
L 69.410159 209.402319 
L 69.810038 208.882295 
L 70.609794 207.262752 
L 71.409551 206.984312 
L 71.809429 206.587671 
L 73.408942 206.333861 
L 74.208699 205.904205 
L 74.608577 205.80996 
L 75.008455 205.580396 
L 75.408333 205.534914 
L 76.20809 204.507266 
L 76.607968 204.458404 
L 77.007846 204.052574 
L 77.807603 203.782291 
L 78.207481 202.72827 
L 79.007238 202.507397 
L 80.206873 202.38456 
L 80.606751 201.977546 
L 81.406507 201.667072 
L 81.806386 201.094168 
L 82.606142 200.98662 
L 83.006021 200.610604 
L 83.805777 200.50948 
L 84.205655 200.306039 
L 84.605534 200.300927 
L 85.005412 199.935143 
L 85.805168 199.868339 
L 86.205047 199.636103 
L 87.404682 199.460751 
L 87.80456 199.295724 
L 88.204438 199.26052 
L 88.604316 198.819165 
L 89.004195 198.740217 
L 89.404073 198.37496 
L 90.203829 198.347239 
L 91.003586 197.386493 
L 92.203221 196.972245 
L 92.603099 196.580525 
L 95.002369 195.688267 
L 95.402247 195.634405 
L 95.802125 195.301353 
L 96.601882 195.053612 
L 97.00176 194.731872 
L 98.201395 194.347229 
L 98.601273 194.23574 
L 99.40103 193.594534 
L 99.800908 193.474184 
L 100.600664 193.030645 
L 102.200178 192.539746 
L 102.600056 192.249234 
L 104.599447 191.514556 
L 104.999325 191.215191 
L 106.19896 191.132625 
L 106.598839 190.846503 
L 106.998717 190.815746 
L 107.798473 190.479813 
L 108.198352 189.948989 
L 109.797865 189.677768 
L 110.597621 189.070014 
L 110.9975 189.057214 
L 111.797256 188.761429 
L 112.996891 188.604689 
L 113.396769 188.370371 
L 113.796647 187.756863 
L 114.196526 187.630267 
L 114.596404 187.28613 
L 114.996282 187.170782 
L 115.796039 186.640081 
L 116.995674 186.232691 
L 117.395552 185.827108 
L 118.195308 185.661072 
L 120.594578 184.542363 
L 122.593969 183.688685 
L 122.993848 183.258533 
L 123.393726 183.072314 
L 126.192874 182.546636 
L 126.99263 182.287641 
L 127.392509 182.163998 
L 127.792387 181.604866 
L 128.192265 181.573788 
L 129.3919 180.939184 
L 130.591535 180.739002 
L 130.991413 180.666908 
L 131.391291 180.400603 
L 132.191048 180.291149 
L 132.590926 180.043005 
L 134.190439 179.809232 
L 135.390074 179.618314 
L 138.189222 178.489039 
L 139.388857 178.363963 
L 140.588492 178.236809 
L 142.188005 178.161107 
L 142.987761 178.003971 
L 143.787518 177.859994 
L 144.587274 177.646635 
L 147.7863 177.12312 
L 149.385813 176.330693 
L 151.785083 176.039094 
L 152.184961 175.590018 
L 152.984718 175.340874 
L 153.784474 175.241298 
L 154.584231 175.000439 
L 155.783866 174.731749 
L 157.383379 174.356503 
L 158.583014 174.255267 
L 158.982892 174.233202 
L 159.38277 173.98396 
L 160.182527 173.856475 
L 160.582405 173.693819 
L 162.181918 173.628404 
L 162.981675 173.496465 
L 163.781431 173.412527 
L 165.780823 172.944618 
L 166.180701 172.718904 
L 166.980457 172.551437 
L 167.380336 172.392609 
L 168.979849 172.220647 
L 170.179484 171.854332 
L 170.579362 171.552689 
L 170.97924 171.524853 
L 171.778997 171.194076 
L 172.578753 171.085205 
L 173.37851 170.992616 
L 174.178266 170.803477 
L 176.577536 170.504607 
L 177.377292 170.369689 
L 178.976806 170.200348 
L 179.376684 170.031739 
L 179.776562 170.014097 
L 180.17644 169.816117 
L 180.976197 169.657054 
L 181.376075 169.408198 
L 181.775953 169.386921 
L 182.975588 168.837637 
L 184.575101 168.690611 
L 184.97498 168.573655 
L 185.374858 168.171529 
L 187.774127 167.796733 
L 188.174006 167.589167 
L 188.973762 167.454041 
L 189.373641 167.306522 
L 190.973154 167.202928 
L 194.572058 166.51763 
L 196.971328 166.333934 
L 198.570841 166.064627 
L 200.170354 165.90846 
L 200.97011 165.595955 
L 201.769867 165.497719 
L 202.569623 165.252458 
L 205.368771 164.974005 
L 207.368163 164.636698 
L 208.167919 163.891874 
L 209.367554 163.758305 
L 209.767432 163.47188 
L 211.366945 162.998625 
L 212.166702 162.932778 
L 212.966459 162.79686 
L 215.365728 162.571461 
L 215.765606 162.315709 
L 217.36512 161.965948 
L 220.564146 161.669287 
L 221.363902 161.411767 
L 222.963415 161.122691 
L 224.16305 161.012023 
L 224.962807 160.890998 
L 226.56232 160.691282 
L 226.962198 160.468096 
L 227.362076 160.393627 
L 228.161833 160.018354 
L 229.361468 159.890115 
L 230.960981 159.604669 
L 231.760737 159.416787 
L 232.560494 159.307781 
L 233.36025 159.273986 
L 235.359642 158.809026 
L 236.559277 158.713675 
L 237.359033 158.199966 
L 238.15879 157.893401 
L 239.358424 157.765566 
L 240.558059 157.371712 
L 244.95672 156.638503 
L 245.756477 156.572828 
L 246.556233 156.163388 
L 248.155746 156.040369 
L 248.955503 155.989999 
L 249.355381 155.673043 
L 249.755259 155.634609 
L 250.155138 155.456562 
L 252.154529 155.257297 
L 253.354164 154.991196 
L 254.953677 154.548256 
L 255.353555 154.540149 
L 255.753434 154.220634 
L 258.552581 153.831646 
L 258.95246 153.452955 
L 259.352338 153.424909 
L 259.752216 153.274031 
L 261.751608 153.052824 
L 262.151486 152.879263 
L 263.351121 152.69763 
L 264.150877 152.521358 
L 265.75039 151.744856 
L 266.150269 151.653033 
L 266.950025 151.150846 
L 268.949416 150.8063 
L 269.349295 150.241423 
L 270.948808 150.046834 
L 271.348686 149.848763 
L 272.148443 149.714856 
L 272.948199 149.469791 
L 273.747956 149.344482 
L 274.147834 149.317438 
L 275.347469 148.913656 
L 275.747347 148.851331 
L 276.147225 147.564285 
L 277.746738 147.368958 
L 279.74613 146.66573 
L 280.545886 146.575062 
L 281.345643 146.359531 
L 282.945156 145.512857 
L 283.345034 144.922424 
L 283.744912 144.758673 
L 284.944547 144.542632 
L 286.144182 144.054514 
L 286.54406 144.019335 
L 286.943939 143.754206 
L 287.343817 143.74393 
L 287.743695 142.947403 
L 288.143573 142.75053 
L 288.543452 142.234214 
L 288.94333 142.199511 
L 289.343208 141.713691 
L 290.142965 141.585076 
L 290.542843 141.40977 
L 291.3426 141.322393 
L 292.142356 140.770941 
L 292.542234 140.267784 
L 292.942113 140.250072 
L 293.341991 139.099439 
L 293.741869 138.620579 
L 294.941504 138.118873 
L 295.341382 136.538892 
L 296.541017 135.714905 
L 296.940895 134.834199 
L 297.740652 134.187176 
L 298.14053 133.298895 
L 298.940287 132.281147 
L 299.340165 131.470694 
L 299.740043 129.549791 
L 300.139922 125.782156 
L 300.5398 125.575576 
L 300.939678 121.819669 
L 301.339556 121.539382 
L 302.139313 114.796709 
L 302.139313 114.796709 
" style="fill:none;stroke:#696969;stroke-linecap:round;stroke-width:2.25;"/>
   </g>
   <g id="line2d_12">
    <path clip-path="url(#p05b9985a15)" d="M 87.324706 247.12 
L 87.324706 91.877647 
" style="fill:none;stroke:#808080;stroke-dasharray:5.55,2.4;stroke-dashoffset:0;stroke-width:1.5;"/>
   </g>
   <g id="line2d_13">
    <path clip-path="url(#p05b9985a15)" d="M 278.626471 247.12 
L 278.626471 91.877647 
" style="fill:none;stroke:#808080;stroke-dasharray:5.55,2.4;stroke-dashoffset:0;stroke-width:1.5;"/>
   </g>
   <g id="line2d_14">
    <path clip-path="url(#p05b9985a15)" d="M 51.455625 199.478383 
L 314.495551 199.478383 
" style="fill:none;stroke:#808080;stroke-dasharray:5.55,2.4;stroke-dashoffset:0;stroke-width:1.5;"/>
   </g>
   <g id="line2d_15">
    <path clip-path="url(#p05b9985a15)" d="M 51.455625 147.154351 
L 314.495551 147.154351 
" style="fill:none;stroke:#808080;stroke-dasharray:5.55,2.4;stroke-dashoffset:0;stroke-width:1.5;"/>
   </g>
   <g id="patch_3">
    <path d="M 51.455625 247.12 
L 51.455625 91.877647 
" style="fill:none;stroke:#262626;stroke-linecap:square;stroke-linejoin:miter;stroke-width:0.8;"/>
   </g>
   <g id="patch_4">
    <path d="M 51.455625 247.12 
L 314.495551 247.12 
" style="fill:none;stroke:#262626;stroke-linecap:square;stroke-linejoin:miter;stroke-width:0.8;"/>
   </g>
   <g id="patch_5">
    <path d="M 301.941373 150.274776 
Q 301.941373 173.317825 301.941373 196.360874 
" style="fill:none;stroke:#ff0000;stroke-linecap:round;"/>
    <path d="M 299.341373 155.474776 
L 301.941373 150.274776 
L 304.541373 155.474776 
" style="fill:none;stroke:#ff0000;stroke-linecap:round;"/>
    <path d="M 304.541373 191.160874 
L 301.941373 196.360874 
L 299.341373 191.160874 
" style="fill:none;stroke:#ff0000;stroke-linecap:round;"/>
   </g>
   <g id="text_13">
    <text style="fill:#262626;font-family:DejaVu Sans;font-size:13px;font-style:normal;font-weight:normal;" transform="translate(311.93833 149.434458)">10% quantile </text>
    <text style="fill:#262626;font-family:DejaVu Sans;font-size:13px;font-style:normal;font-weight:normal;" transform="translate(311.93833 163.991614)">difference </text>
    <text style="fill:#262626;font-family:DejaVu Sans;font-size:13px;font-style:normal;font-weight:normal;" transform="translate(311.93833 178.54877)">(effect size)</text>
   </g>
  </g>
  <g id="axes_2">
   <g id="patch_6">
    <path d="M 51.455625 77.764706 
L 314.495551 77.764706 
L 314.495551 7.2 
L 51.455625 7.2 
z
" style="fill:#ffffff;"/>
   </g>
   <g id="matplotlib.axis_3">
    <g id="xtick_5">
     <g id="line2d_16">
      <g>
       <use style="fill:#262626;stroke:#262626;stroke-width:0.8;" x="63.411985" xlink:href="#m12bd9f3ccd" y="77.764706"/>
      </g>
     </g>
    </g>
    <g id="xtick_6">
     <g id="line2d_17">
      <g>
       <use style="fill:#262626;stroke:#262626;stroke-width:0.8;" x="143.387639" xlink:href="#m12bd9f3ccd" y="77.764706"/>
      </g>
     </g>
    </g>
    <g id="xtick_7">
     <g id="line2d_18">
      <g>
       <use style="fill:#262626;stroke:#262626;stroke-width:0.8;" x="223.363294" xlink:href="#m12bd9f3ccd" y="77.764706"/>
      </g>
     </g>
    </g>
    <g id="xtick_8">
     <g id="line2d_19">
      <g>
       <use style="fill:#262626;stroke:#262626;stroke-width:0.8;" x="303.338948" xlink:href="#m12bd9f3ccd" y="77.764706"/>
      </g>
     </g>
    </g>
   </g>
   <g id="matplotlib.axis_4">
    <g id="ytick_7"/>
    <g id="ytick_8"/>
   </g>
   <g id="PolyCollection_1">
    <defs>
     <path d="M 63.411985 -214.315643 
L 63.411985 -212.718419 
L 64.61363 -212.718419 
L 65.815274 -212.718419 
L 67.016918 -212.718419 
L 68.218562 -212.718419 
L 69.420207 -212.718419 
L 70.621851 -212.718419 
L 71.823495 -212.718419 
L 73.025139 -212.718419 
L 74.226784 -212.718419 
L 75.428428 -212.718419 
L 76.630072 -212.718419 
L 77.831716 -212.718419 
L 79.033361 -212.718419 
L 80.235005 -212.718419 
L 81.436649 -212.718419 
L 82.638293 -212.718419 
L 83.839938 -212.718419 
L 85.041582 -212.718419 
L 86.243226 -212.718419 
L 87.44487 -212.718419 
L 88.646515 -212.718419 
L 89.848159 -212.718419 
L 91.049803 -212.718419 
L 92.251447 -212.718419 
L 93.453092 -212.718419 
L 94.654736 -212.718419 
L 95.85638 -212.718419 
L 97.058024 -212.718419 
L 98.259669 -212.718419 
L 99.461313 -212.718419 
L 100.662957 -212.718419 
L 101.864601 -212.718419 
L 103.066246 -212.718419 
L 104.26789 -212.718419 
L 105.469534 -212.718419 
L 106.671178 -212.718419 
L 107.872823 -212.718419 
L 109.074467 -212.718419 
L 110.276111 -212.718419 
L 111.477755 -212.718419 
L 112.6794 -212.718419 
L 113.881044 -212.718419 
L 115.082688 -212.718419 
L 116.284332 -212.718419 
L 117.485977 -212.718419 
L 118.687621 -212.718419 
L 119.889265 -212.718419 
L 121.090909 -212.718419 
L 122.292554 -212.718419 
L 123.494198 -212.718419 
L 124.695842 -212.718419 
L 125.897486 -212.718419 
L 127.099131 -212.718419 
L 128.300775 -212.718419 
L 129.502419 -212.718419 
L 130.704063 -212.718419 
L 131.905708 -212.718419 
L 133.107352 -212.718419 
L 134.308996 -212.718419 
L 135.51064 -212.718419 
L 136.712285 -212.718419 
L 137.913929 -212.718419 
L 139.115573 -212.718419 
L 140.317217 -212.718419 
L 141.518862 -212.718419 
L 142.720506 -212.718419 
L 143.92215 -212.718419 
L 145.123794 -212.718419 
L 146.325439 -212.718419 
L 147.527083 -212.718419 
L 148.728727 -212.718419 
L 149.930371 -212.718419 
L 151.132016 -212.718419 
L 152.33366 -212.718419 
L 153.535304 -212.718419 
L 154.736948 -212.718419 
L 155.938593 -212.718419 
L 157.140237 -212.718419 
L 158.341881 -212.718419 
L 159.543525 -212.718419 
L 160.74517 -212.718419 
L 161.946814 -212.718419 
L 163.148458 -212.718419 
L 164.350102 -212.718419 
L 165.551747 -212.718419 
L 166.753391 -212.718419 
L 167.955035 -212.718419 
L 169.156679 -212.718419 
L 170.358324 -212.718419 
L 171.559968 -212.718419 
L 172.761612 -212.718419 
L 173.963256 -212.718419 
L 175.164901 -212.718419 
L 176.366545 -212.718419 
L 177.568189 -212.718419 
L 178.769833 -212.718419 
L 179.971478 -212.718419 
L 181.173122 -212.718419 
L 182.374766 -212.718419 
L 183.57641 -212.718419 
L 184.778055 -212.718419 
L 185.979699 -212.718419 
L 187.181343 -212.718419 
L 188.382987 -212.718419 
L 189.584632 -212.718419 
L 190.786276 -212.718419 
L 191.98792 -212.718419 
L 193.189564 -212.718419 
L 194.391209 -212.718419 
L 195.592853 -212.718419 
L 196.794497 -212.718419 
L 197.996141 -212.718419 
L 199.197786 -212.718419 
L 200.39943 -212.718419 
L 201.601074 -212.718419 
L 202.802718 -212.718419 
L 204.004363 -212.718419 
L 205.206007 -212.718419 
L 206.407651 -212.718419 
L 207.609295 -212.718419 
L 208.81094 -212.718419 
L 210.012584 -212.718419 
L 211.214228 -212.718419 
L 212.415872 -212.718419 
L 213.617517 -212.718419 
L 214.819161 -212.718419 
L 216.020805 -212.718419 
L 217.222449 -212.718419 
L 218.424094 -212.718419 
L 219.625738 -212.718419 
L 220.827382 -212.718419 
L 222.029026 -212.718419 
L 223.230671 -212.718419 
L 224.432315 -212.718419 
L 225.633959 -212.718419 
L 226.835603 -212.718419 
L 228.037248 -212.718419 
L 229.238892 -212.718419 
L 230.440536 -212.718419 
L 231.64218 -212.718419 
L 232.843825 -212.718419 
L 234.045469 -212.718419 
L 235.247113 -212.718419 
L 236.448757 -212.718419 
L 237.650402 -212.718419 
L 238.852046 -212.718419 
L 240.05369 -212.718419 
L 241.255334 -212.718419 
L 242.456979 -212.718419 
L 243.658623 -212.718419 
L 244.860267 -212.718419 
L 246.061911 -212.718419 
L 247.263556 -212.718419 
L 248.4652 -212.718419 
L 249.666844 -212.718419 
L 250.868488 -212.718419 
L 252.070133 -212.718419 
L 253.271777 -212.718419 
L 254.473421 -212.718419 
L 255.675065 -212.718419 
L 256.87671 -212.718419 
L 258.078354 -212.718419 
L 259.279998 -212.718419 
L 260.481642 -212.718419 
L 261.683287 -212.718419 
L 262.884931 -212.718419 
L 264.086575 -212.718419 
L 265.288219 -212.718419 
L 266.489864 -212.718419 
L 267.691508 -212.718419 
L 268.893152 -212.718419 
L 270.094796 -212.718419 
L 271.296441 -212.718419 
L 272.498085 -212.718419 
L 273.699729 -212.718419 
L 274.901373 -212.718419 
L 276.103018 -212.718419 
L 277.304662 -212.718419 
L 278.506306 -212.718419 
L 279.70795 -212.718419 
L 280.909595 -212.718419 
L 282.111239 -212.718419 
L 283.312883 -212.718419 
L 284.514527 -212.718419 
L 285.716172 -212.718419 
L 286.917816 -212.718419 
L 288.11946 -212.718419 
L 289.321104 -212.718419 
L 290.522749 -212.718419 
L 291.724393 -212.718419 
L 292.926037 -212.718419 
L 294.127681 -212.718419 
L 295.329326 -212.718419 
L 296.53097 -212.718419 
L 297.732614 -212.718419 
L 298.934258 -212.718419 
L 300.135903 -212.718419 
L 301.337547 -212.718419 
L 302.539191 -212.718419 
L 302.539191 -223.330203 
L 302.539191 -223.330203 
L 301.337547 -224.08724 
L 300.135903 -224.865125 
L 298.934258 -225.661492 
L 297.732614 -226.473793 
L 296.53097 -227.299321 
L 295.329326 -228.13524 
L 294.127681 -228.978616 
L 292.926037 -229.82645 
L 291.724393 -230.675711 
L 290.522749 -231.523373 
L 289.321104 -232.36645 
L 288.11946 -233.202033 
L 286.917816 -234.027319 
L 285.716172 -234.839648 
L 284.514527 -235.636533 
L 283.312883 -236.415682 
L 282.111239 -237.175028 
L 280.909595 -237.912746 
L 279.70795 -238.627266 
L 278.506306 -239.317288 
L 277.304662 -239.981787 
L 276.103018 -240.620014 
L 274.901373 -241.231491 
L 273.699729 -241.816004 
L 272.498085 -242.373591 
L 271.296441 -242.90452 
L 270.094796 -243.409275 
L 268.893152 -243.888525 
L 267.691508 -244.343096 
L 266.489864 -244.773948 
L 265.288219 -245.182135 
L 264.086575 -245.568777 
L 262.884931 -245.935029 
L 261.683287 -246.282046 
L 260.481642 -246.610953 
L 259.279998 -246.922819 
L 258.078354 -247.21863 
L 256.87671 -247.499265 
L 255.675065 -247.765482 
L 254.473421 -248.017899 
L 253.271777 -248.256987 
L 252.070133 -248.483063 
L 250.868488 -248.696291 
L 249.666844 -248.896684 
L 248.4652 -249.084111 
L 247.263556 -249.258312 
L 246.061911 -249.41891 
L 244.860267 -249.565432 
L 243.658623 -249.697324 
L 242.456979 -249.81398 
L 241.255334 -249.914759 
L 240.05369 -249.999011 
L 238.852046 -250.066097 
L 237.650402 -250.115414 
L 236.448757 -250.146411 
L 235.247113 -250.158605 
L 234.045469 -250.151602 
L 232.843825 -250.125099 
L 231.64218 -250.0789 
L 230.440536 -250.012913 
L 229.238892 -249.927158 
L 228.037248 -249.821758 
L 226.835603 -249.696938 
L 225.633959 -249.553015 
L 224.432315 -249.390388 
L 223.230671 -249.209524 
L 222.029026 -249.010948 
L 220.827382 -248.795226 
L 219.625738 -248.562954 
L 218.424094 -248.314742 
L 217.222449 -248.051204 
L 216.020805 -247.77295 
L 214.819161 -247.480575 
L 213.617517 -247.174654 
L 212.415872 -246.855741 
L 211.214228 -246.524368 
L 210.012584 -246.181049 
L 208.81094 -245.826285 
L 207.609295 -245.46057 
L 206.407651 -245.084404 
L 205.206007 -244.698299 
L 204.004363 -244.302797 
L 202.802718 -243.898475 
L 201.601074 -243.485963 
L 200.39943 -243.065947 
L 199.197786 -242.639186 
L 197.996141 -242.20651 
L 196.794497 -241.768828 
L 195.592853 -241.327129 
L 194.391209 -240.882475 
L 193.189564 -240.435999 
L 191.98792 -239.988892 
L 190.786276 -239.542393 
L 189.584632 -239.097769 
L 188.382987 -238.656302 
L 187.181343 -238.219262 
L 185.979699 -237.787893 
L 184.778055 -237.363383 
L 183.57641 -236.946851 
L 182.374766 -236.539319 
L 181.173122 -236.141695 
L 179.971478 -235.754759 
L 178.769833 -235.379147 
L 177.568189 -235.015342 
L 176.366545 -234.663667 
L 175.164901 -234.324285 
L 173.963256 -233.9972 
L 172.761612 -233.682264 
L 171.559968 -233.379191 
L 170.358324 -233.087563 
L 169.156679 -232.806859 
L 167.955035 -232.536466 
L 166.753391 -232.275703 
L 165.551747 -232.023849 
L 164.350102 -231.780161 
L 163.148458 -231.5439 
L 161.946814 -231.314349 
L 160.74517 -231.090841 
L 159.543525 -230.872767 
L 158.341881 -230.659598 
L 157.140237 -230.450891 
L 155.938593 -230.2463 
L 154.736948 -230.045577 
L 153.535304 -229.848569 
L 152.33366 -229.655219 
L 151.132016 -229.465552 
L 149.930371 -229.279667 
L 148.728727 -229.097719 
L 147.527083 -228.919905 
L 146.325439 -228.746442 
L 145.123794 -228.577551 
L 143.92215 -228.413431 
L 142.720506 -228.254243 
L 141.518862 -228.10009 
L 140.317217 -227.950996 
L 139.115573 -227.806895 
L 137.913929 -227.667614 
L 136.712285 -227.532863 
L 135.51064 -227.402231 
L 134.308996 -227.275181 
L 133.107352 -227.151053 
L 131.905708 -227.029067 
L 130.704063 -226.908331 
L 129.502419 -226.787856 
L 128.300775 -226.66657 
L 127.099131 -226.54334 
L 125.897486 -226.416986 
L 124.695842 -226.286312 
L 123.494198 -226.150127 
L 122.292554 -226.007271 
L 121.090909 -225.856638 
L 119.889265 -225.697207 
L 118.687621 -225.528057 
L 117.485977 -225.348393 
L 116.284332 -225.157567 
L 115.082688 -224.955089 
L 113.881044 -224.740639 
L 112.6794 -224.514081 
L 111.477755 -224.275462 
L 110.276111 -224.025013 
L 109.074467 -223.763146 
L 107.872823 -223.490447 
L 106.671178 -223.207662 
L 105.469534 -222.915685 
L 104.26789 -222.615534 
L 103.066246 -222.30834 
L 101.864601 -221.995316 
L 100.662957 -221.67774 
L 99.461313 -221.356926 
L 98.259669 -221.034206 
L 97.058024 -220.710902 
L 95.85638 -220.388309 
L 94.654736 -220.06767 
L 93.453092 -219.750162 
L 92.251447 -219.436879 
L 91.049803 -219.128822 
L 89.848159 -218.826887 
L 88.646515 -218.531859 
L 87.44487 -218.244409 
L 86.243226 -217.965094 
L 85.041582 -217.694357 
L 83.839938 -217.432531 
L 82.638293 -217.17985 
L 81.436649 -216.936448 
L 80.235005 -216.702377 
L 79.033361 -216.477612 
L 77.831716 -216.262063 
L 76.630072 -216.055585 
L 75.428428 -215.85799 
L 74.226784 -215.669055 
L 73.025139 -215.488535 
L 71.823495 -215.316167 
L 70.621851 -215.151683 
L 69.420207 -214.994812 
L 68.218562 -214.845286 
L 67.016918 -214.702847 
L 65.815274 -214.567247 
L 64.61363 -214.438253 
L 63.411985 -214.315643 
z
" id="m2babf45d53" style="stroke:#808080;"/>
    </defs>
    <g clip-path="url(#pd14b639a5e)">
     <use style="fill:#808080;fill-opacity:0.25;stroke:#808080;" x="0" xlink:href="#m2babf45d53" y="290.483125"/>
    </g>
   </g>
   <g id="PolyCollection_2">
    <defs>
     <path d="M 79.697334 -212.734596 
L 79.697334 -212.718419 
L 80.817142 -212.718419 
L 81.936951 -212.718419 
L 83.056759 -212.718419 
L 84.176567 -212.718419 
L 85.296376 -212.718419 
L 86.416184 -212.718419 
L 87.535992 -212.718419 
L 88.655801 -212.718419 
L 89.775609 -212.718419 
L 90.895417 -212.718419 
L 92.015225 -212.718419 
L 93.135034 -212.718419 
L 94.254842 -212.718419 
L 95.37465 -212.718419 
L 96.494459 -212.718419 
L 97.614267 -212.718419 
L 98.734075 -212.718419 
L 99.853884 -212.718419 
L 100.973692 -212.718419 
L 102.0935 -212.718419 
L 103.213309 -212.718419 
L 104.333117 -212.718419 
L 105.452925 -212.718419 
L 106.572734 -212.718419 
L 107.692542 -212.718419 
L 108.81235 -212.718419 
L 109.932159 -212.718419 
L 111.051967 -212.718419 
L 112.171775 -212.718419 
L 113.291584 -212.718419 
L 114.411392 -212.718419 
L 115.5312 -212.718419 
L 116.651009 -212.718419 
L 117.770817 -212.718419 
L 118.890625 -212.718419 
L 120.010434 -212.718419 
L 121.130242 -212.718419 
L 122.25005 -212.718419 
L 123.369859 -212.718419 
L 124.489667 -212.718419 
L 125.609475 -212.718419 
L 126.729284 -212.718419 
L 127.849092 -212.718419 
L 128.9689 -212.718419 
L 130.088709 -212.718419 
L 131.208517 -212.718419 
L 132.328325 -212.718419 
L 133.448134 -212.718419 
L 134.567942 -212.718419 
L 135.68775 -212.718419 
L 136.807559 -212.718419 
L 137.927367 -212.718419 
L 139.047175 -212.718419 
L 140.166984 -212.718419 
L 141.286792 -212.718419 
L 142.4066 -212.718419 
L 143.526409 -212.718419 
L 144.646217 -212.718419 
L 145.766025 -212.718419 
L 146.885834 -212.718419 
L 148.005642 -212.718419 
L 149.12545 -212.718419 
L 150.245259 -212.718419 
L 151.365067 -212.718419 
L 152.484875 -212.718419 
L 153.604684 -212.718419 
L 154.724492 -212.718419 
L 155.8443 -212.718419 
L 156.964109 -212.718419 
L 158.083917 -212.718419 
L 159.203725 -212.718419 
L 160.323534 -212.718419 
L 161.443342 -212.718419 
L 162.56315 -212.718419 
L 163.682958 -212.718419 
L 164.802767 -212.718419 
L 165.922575 -212.718419 
L 167.042383 -212.718419 
L 168.162192 -212.718419 
L 169.282 -212.718419 
L 170.401808 -212.718419 
L 171.521617 -212.718419 
L 172.641425 -212.718419 
L 173.761233 -212.718419 
L 174.881042 -212.718419 
L 176.00085 -212.718419 
L 177.120658 -212.718419 
L 178.240467 -212.718419 
L 179.360275 -212.718419 
L 180.480083 -212.718419 
L 181.599892 -212.718419 
L 182.7197 -212.718419 
L 183.839508 -212.718419 
L 184.959317 -212.718419 
L 186.079125 -212.718419 
L 187.198933 -212.718419 
L 188.318742 -212.718419 
L 189.43855 -212.718419 
L 190.558358 -212.718419 
L 191.678167 -212.718419 
L 192.797975 -212.718419 
L 193.917783 -212.718419 
L 195.037592 -212.718419 
L 196.1574 -212.718419 
L 197.277208 -212.718419 
L 198.397017 -212.718419 
L 199.516825 -212.718419 
L 200.636633 -212.718419 
L 201.756442 -212.718419 
L 202.87625 -212.718419 
L 203.996058 -212.718419 
L 205.115867 -212.718419 
L 206.235675 -212.718419 
L 207.355483 -212.718419 
L 208.475292 -212.718419 
L 209.5951 -212.718419 
L 210.714908 -212.718419 
L 211.834717 -212.718419 
L 212.954525 -212.718419 
L 214.074333 -212.718419 
L 215.194142 -212.718419 
L 216.31395 -212.718419 
L 217.433758 -212.718419 
L 218.553567 -212.718419 
L 219.673375 -212.718419 
L 220.793183 -212.718419 
L 221.912992 -212.718419 
L 223.0328 -212.718419 
L 224.152608 -212.718419 
L 225.272417 -212.718419 
L 226.392225 -212.718419 
L 227.512033 -212.718419 
L 228.631842 -212.718419 
L 229.75165 -212.718419 
L 230.871458 -212.718419 
L 231.991267 -212.718419 
L 233.111075 -212.718419 
L 234.230883 -212.718419 
L 235.350691 -212.718419 
L 236.4705 -212.718419 
L 237.590308 -212.718419 
L 238.710116 -212.718419 
L 239.829925 -212.718419 
L 240.949733 -212.718419 
L 242.069541 -212.718419 
L 243.18935 -212.718419 
L 244.309158 -212.718419 
L 245.428966 -212.718419 
L 246.548775 -212.718419 
L 247.668583 -212.718419 
L 248.788391 -212.718419 
L 249.9082 -212.718419 
L 251.028008 -212.718419 
L 252.147816 -212.718419 
L 253.267625 -212.718419 
L 254.387433 -212.718419 
L 255.507241 -212.718419 
L 256.62705 -212.718419 
L 257.746858 -212.718419 
L 258.866666 -212.718419 
L 259.986475 -212.718419 
L 261.106283 -212.718419 
L 262.226091 -212.718419 
L 263.3459 -212.718419 
L 264.465708 -212.718419 
L 265.585516 -212.718419 
L 266.705325 -212.718419 
L 267.825133 -212.718419 
L 268.944941 -212.718419 
L 270.06475 -212.718419 
L 271.184558 -212.718419 
L 272.304366 -212.718419 
L 273.424175 -212.718419 
L 274.543983 -212.718419 
L 275.663791 -212.718419 
L 276.7836 -212.718419 
L 277.903408 -212.718419 
L 279.023216 -212.718419 
L 280.143025 -212.718419 
L 281.262833 -212.718419 
L 282.382641 -212.718419 
L 283.50245 -212.718419 
L 284.622258 -212.718419 
L 285.742066 -212.718419 
L 286.861875 -212.718419 
L 287.981683 -212.718419 
L 289.101491 -212.718419 
L 290.2213 -212.718419 
L 291.341108 -212.718419 
L 292.460916 -212.718419 
L 293.580725 -212.718419 
L 294.700533 -212.718419 
L 295.820341 -212.718419 
L 296.94015 -212.718419 
L 298.059958 -212.718419 
L 299.179766 -212.718419 
L 300.299575 -212.718419 
L 301.419383 -212.718419 
L 302.539191 -212.718419 
L 302.539191 -262.222568 
L 302.539191 -262.222568 
L 301.419383 -264.237489 
L 300.299575 -266.172344 
L 299.179766 -268.01489 
L 298.059958 -269.753666 
L 296.94015 -271.378148 
L 295.820341 -272.878878 
L 294.700533 -274.247586 
L 293.580725 -275.477271 
L 292.460916 -276.56228 
L 291.341108 -277.498347 
L 290.2213 -278.282614 
L 289.101491 -278.913624 
L 287.981683 -279.391298 
L 286.861875 -279.716877 
L 285.742066 -279.892858 
L 284.622258 -279.922901 
L 283.50245 -279.811725 
L 282.382641 -279.564995 
L 281.262833 -279.189197 
L 280.143025 -278.691502 
L 279.023216 -278.079641 
L 277.903408 -277.361766 
L 276.7836 -276.546325 
L 275.663791 -275.641936 
L 274.543983 -274.657274 
L 273.424175 -273.600967 
L 272.304366 -272.481498 
L 271.184558 -271.307134 
L 270.06475 -270.085848 
L 268.944941 -268.825276 
L 267.825133 -267.532668 
L 266.705325 -266.214866 
L 265.585516 -264.878288 
L 264.465708 -263.528918 
L 263.3459 -262.172317 
L 262.226091 -260.813628 
L 261.106283 -259.457599 
L 259.986475 -258.1086 
L 258.866666 -256.770649 
L 257.746858 -255.447437 
L 256.62705 -254.142352 
L 255.507241 -252.8585 
L 254.387433 -251.598726 
L 253.267625 -250.365627 
L 252.147816 -249.161565 
L 251.028008 -247.988674 
L 249.9082 -246.848857 
L 248.788391 -245.74379 
L 247.668583 -244.674908 
L 246.548775 -243.643405 
L 245.428966 -242.650213 
L 244.309158 -241.695998 
L 243.18935 -240.781141 
L 242.069541 -239.905733 
L 240.949733 -239.069563 
L 239.829925 -238.272116 
L 238.710116 -237.512572 
L 237.590308 -236.789812 
L 236.4705 -236.10243 
L 235.350691 -235.448751 
L 234.230883 -234.826855 
L 233.111075 -234.234608 
L 231.991267 -233.6697 
L 230.871458 -233.129684 
L 229.75165 -232.612024 
L 228.631842 -232.114142 
L 227.512033 -231.633472 
L 226.392225 -231.167511 
L 225.272417 -230.713866 
L 224.152608 -230.270309 
L 223.0328 -229.834817 
L 221.912992 -229.405615 
L 220.793183 -228.981212 
L 219.673375 -228.560426 
L 218.553567 -228.142409 
L 217.433758 -227.726654 
L 216.31395 -227.313006 
L 215.194142 -226.901656 
L 214.074333 -226.493128 
L 212.954525 -226.088263 
L 211.834717 -225.688192 
L 210.714908 -225.294304 
L 209.5951 -224.908209 
L 208.475292 -224.531693 
L 207.355483 -224.16668 
L 206.235675 -223.815177 
L 205.115867 -223.479232 
L 203.996058 -223.160878 
L 202.87625 -222.862093 
L 201.756442 -222.584749 
L 200.636633 -222.330567 
L 199.516825 -222.10108 
L 198.397017 -221.897598 
L 197.277208 -221.721168 
L 196.1574 -221.572556 
L 195.037592 -221.452218 
L 193.917783 -221.360287 
L 192.797975 -221.296562 
L 191.678167 -221.260501 
L 190.558358 -221.251221 
L 189.43855 -221.267508 
L 188.318742 -221.307823 
L 187.198933 -221.370323 
L 186.079125 -221.452884 
L 184.959317 -221.553121 
L 183.839508 -221.668427 
L 182.7197 -221.796004 
L 181.599892 -221.932901 
L 180.480083 -222.076059 
L 179.360275 -222.222348 
L 178.240467 -222.368618 
L 177.120658 -222.511742 
L 176.00085 -222.648658 
L 174.881042 -222.776419 
L 173.761233 -222.892232 
L 172.641425 -222.993499 
L 171.521617 -223.077854 
L 170.401808 -223.143193 
L 169.282 -223.187705 
L 168.162192 -223.209894 
L 167.042383 -223.208593 
L 165.922575 -223.182978 
L 164.802767 -223.132569 
L 163.682958 -223.057232 
L 162.56315 -222.957169 
L 161.443342 -222.832901 
L 160.323534 -222.685253 
L 159.203725 -222.515329 
L 158.083917 -222.324478 
L 156.964109 -222.114269 
L 155.8443 -221.886448 
L 154.724492 -221.642907 
L 153.604684 -221.38564 
L 152.484875 -221.116711 
L 151.365067 -220.838211 
L 150.245259 -220.552222 
L 149.12545 -220.260787 
L 148.005642 -219.965878 
L 146.885834 -219.669366 
L 145.766025 -219.373001 
L 144.646217 -219.078392 
L 143.526409 -218.786992 
L 142.4066 -218.500091 
L 141.286792 -218.218805 
L 140.166984 -217.944082 
L 139.047175 -217.676699 
L 137.927367 -217.41727 
L 136.807559 -217.166258 
L 135.68775 -216.923982 
L 134.567942 -216.690634 
L 133.448134 -216.466295 
L 132.328325 -216.250948 
L 131.208517 -216.044496 
L 130.088709 -215.846779 
L 128.9689 -215.657586 
L 127.849092 -215.476673 
L 126.729284 -215.303775 
L 125.609475 -215.138617 
L 124.489667 -214.980921 
L 123.369859 -214.830419 
L 122.25005 -214.686855 
L 121.130242 -214.549989 
L 120.010434 -214.419604 
L 118.890625 -214.295499 
L 117.770817 -214.177496 
L 116.651009 -214.065435 
L 115.5312 -213.95917 
L 114.411392 -213.858572 
L 113.291584 -213.763518 
L 112.171775 -213.673891 
L 111.051967 -213.58958 
L 109.932159 -213.51047 
L 108.81235 -213.436442 
L 107.692542 -213.367371 
L 106.572734 -213.303126 
L 105.452925 -213.243562 
L 104.333117 -213.188526 
L 103.213309 -213.137852 
L 102.0935 -213.091365 
L 100.973692 -213.048879 
L 99.853884 -213.010198 
L 98.734075 -212.975121 
L 97.614267 -212.94344 
L 96.494459 -212.914941 
L 95.37465 -212.889411 
L 94.254842 -212.866638 
L 93.135034 -212.846408 
L 92.015225 -212.828515 
L 90.895417 -212.812757 
L 89.775609 -212.798939 
L 88.655801 -212.786876 
L 87.535992 -212.776389 
L 86.416184 -212.767314 
L 85.296376 -212.759495 
L 84.176567 -212.752788 
L 83.056759 -212.747061 
L 81.936951 -212.742191 
L 80.817142 -212.738069 
L 79.697334 -212.734596 
z
" id="m40f177efca" style="stroke:#b5bd61;"/>
    </defs>
    <g clip-path="url(#pd14b639a5e)">
     <use style="fill:#b5bd61;fill-opacity:0.25;stroke:#b5bd61;" x="0" xlink:href="#m40f177efca" y="290.483125"/>
    </g>
   </g>
   <g id="PolyCollection_3">
    <defs>
     <path d="M 63.411985 -224.587991 
L 63.411985 -212.718419 
L 64.380476 -212.718419 
L 65.348966 -212.718419 
L 66.317457 -212.718419 
L 67.285947 -212.718419 
L 68.254438 -212.718419 
L 69.222928 -212.718419 
L 70.191419 -212.718419 
L 71.159909 -212.718419 
L 72.1284 -212.718419 
L 73.09689 -212.718419 
L 74.065381 -212.718419 
L 75.033871 -212.718419 
L 76.002362 -212.718419 
L 76.970852 -212.718419 
L 77.939342 -212.718419 
L 78.907833 -212.718419 
L 79.876323 -212.718419 
L 80.844814 -212.718419 
L 81.813304 -212.718419 
L 82.781795 -212.718419 
L 83.750285 -212.718419 
L 84.718776 -212.718419 
L 85.687266 -212.718419 
L 86.655757 -212.718419 
L 87.624247 -212.718419 
L 88.592738 -212.718419 
L 89.561228 -212.718419 
L 90.529719 -212.718419 
L 91.498209 -212.718419 
L 92.4667 -212.718419 
L 93.43519 -212.718419 
L 94.403681 -212.718419 
L 95.372171 -212.718419 
L 96.340662 -212.718419 
L 97.309152 -212.718419 
L 98.277643 -212.718419 
L 99.246133 -212.718419 
L 100.214624 -212.718419 
L 101.183114 -212.718419 
L 102.151604 -212.718419 
L 103.120095 -212.718419 
L 104.088585 -212.718419 
L 105.057076 -212.718419 
L 106.025566 -212.718419 
L 106.994057 -212.718419 
L 107.962547 -212.718419 
L 108.931038 -212.718419 
L 109.899528 -212.718419 
L 110.868019 -212.718419 
L 111.836509 -212.718419 
L 112.805 -212.718419 
L 113.77349 -212.718419 
L 114.741981 -212.718419 
L 115.710471 -212.718419 
L 116.678962 -212.718419 
L 117.647452 -212.718419 
L 118.615943 -212.718419 
L 119.584433 -212.718419 
L 120.552924 -212.718419 
L 121.521414 -212.718419 
L 122.489905 -212.718419 
L 123.458395 -212.718419 
L 124.426885 -212.718419 
L 125.395376 -212.718419 
L 126.363866 -212.718419 
L 127.332357 -212.718419 
L 128.300847 -212.718419 
L 129.269338 -212.718419 
L 130.237828 -212.718419 
L 131.206319 -212.718419 
L 132.174809 -212.718419 
L 133.1433 -212.718419 
L 134.11179 -212.718419 
L 135.080281 -212.718419 
L 136.048771 -212.718419 
L 137.017262 -212.718419 
L 137.985752 -212.718419 
L 138.954243 -212.718419 
L 139.922733 -212.718419 
L 140.891224 -212.718419 
L 141.859714 -212.718419 
L 142.828205 -212.718419 
L 143.796695 -212.718419 
L 144.765186 -212.718419 
L 145.733676 -212.718419 
L 146.702167 -212.718419 
L 147.670657 -212.718419 
L 148.639147 -212.718419 
L 149.607638 -212.718419 
L 150.576128 -212.718419 
L 151.544619 -212.718419 
L 152.513109 -212.718419 
L 153.4816 -212.718419 
L 154.45009 -212.718419 
L 155.418581 -212.718419 
L 156.387071 -212.718419 
L 157.355562 -212.718419 
L 158.324052 -212.718419 
L 159.292543 -212.718419 
L 160.261033 -212.718419 
L 161.229524 -212.718419 
L 162.198014 -212.718419 
L 163.166505 -212.718419 
L 164.134995 -212.718419 
L 165.103486 -212.718419 
L 166.071976 -212.718419 
L 167.040467 -212.718419 
L 168.008957 -212.718419 
L 168.977448 -212.718419 
L 169.945938 -212.718419 
L 170.914429 -212.718419 
L 171.882919 -212.718419 
L 172.851409 -212.718419 
L 173.8199 -212.718419 
L 174.78839 -212.718419 
L 175.756881 -212.718419 
L 176.725371 -212.718419 
L 177.693862 -212.718419 
L 178.662352 -212.718419 
L 179.630843 -212.718419 
L 180.599333 -212.718419 
L 181.567824 -212.718419 
L 182.536314 -212.718419 
L 183.504805 -212.718419 
L 184.473295 -212.718419 
L 185.441786 -212.718419 
L 186.410276 -212.718419 
L 187.378767 -212.718419 
L 188.347257 -212.718419 
L 189.315748 -212.718419 
L 190.284238 -212.718419 
L 191.252729 -212.718419 
L 192.221219 -212.718419 
L 193.18971 -212.718419 
L 194.1582 -212.718419 
L 195.12669 -212.718419 
L 196.095181 -212.718419 
L 197.063671 -212.718419 
L 198.032162 -212.718419 
L 199.000652 -212.718419 
L 199.969143 -212.718419 
L 200.937633 -212.718419 
L 201.906124 -212.718419 
L 202.874614 -212.718419 
L 203.843105 -212.718419 
L 204.811595 -212.718419 
L 205.780086 -212.718419 
L 206.748576 -212.718419 
L 207.717067 -212.718419 
L 208.685557 -212.718419 
L 209.654048 -212.718419 
L 210.622538 -212.718419 
L 211.591029 -212.718419 
L 212.559519 -212.718419 
L 213.52801 -212.718419 
L 214.4965 -212.718419 
L 215.464991 -212.718419 
L 216.433481 -212.718419 
L 217.401972 -212.718419 
L 218.370462 -212.718419 
L 219.338952 -212.718419 
L 220.307443 -212.718419 
L 221.275933 -212.718419 
L 222.244424 -212.718419 
L 223.212914 -212.718419 
L 224.181405 -212.718419 
L 225.149895 -212.718419 
L 226.118386 -212.718419 
L 227.086876 -212.718419 
L 228.055367 -212.718419 
L 229.023857 -212.718419 
L 229.992348 -212.718419 
L 230.960838 -212.718419 
L 231.929329 -212.718419 
L 232.897819 -212.718419 
L 233.86631 -212.718419 
L 234.8348 -212.718419 
L 235.803291 -212.718419 
L 236.771781 -212.718419 
L 237.740272 -212.718419 
L 238.708762 -212.718419 
L 239.677253 -212.718419 
L 240.645743 -212.718419 
L 241.614234 -212.718419 
L 242.582724 -212.718419 
L 243.551214 -212.718419 
L 244.519705 -212.718419 
L 245.488195 -212.718419 
L 246.456686 -212.718419 
L 247.425176 -212.718419 
L 248.393667 -212.718419 
L 249.362157 -212.718419 
L 250.330648 -212.718419 
L 251.299138 -212.718419 
L 252.267629 -212.718419 
L 253.236119 -212.718419 
L 254.20461 -212.718419 
L 255.1731 -212.718419 
L 256.141591 -212.718419 
L 256.141591 -212.737773 
L 256.141591 -212.737773 
L 255.1731 -212.742504 
L 254.20461 -212.748265 
L 253.236119 -212.755251 
L 252.267629 -212.763685 
L 251.299138 -212.773823 
L 250.330648 -212.785955 
L 249.362157 -212.800409 
L 248.393667 -212.817556 
L 247.425176 -212.83781 
L 246.456686 -212.861629 
L 245.488195 -212.889521 
L 244.519705 -212.922043 
L 243.551214 -212.959801 
L 242.582724 -213.003451 
L 241.614234 -213.053699 
L 240.645743 -213.111296 
L 239.677253 -213.17704 
L 238.708762 -213.251767 
L 237.740272 -213.33635 
L 236.771781 -213.431687 
L 235.803291 -213.538699 
L 234.8348 -213.658317 
L 233.86631 -213.791477 
L 232.897819 -213.939099 
L 231.929329 -214.102088 
L 230.960838 -214.281309 
L 229.992348 -214.477585 
L 229.023857 -214.691677 
L 228.055367 -214.924272 
L 227.086876 -215.175978 
L 226.118386 -215.447306 
L 225.149895 -215.738663 
L 224.181405 -216.050349 
L 223.212914 -216.382547 
L 222.244424 -216.735328 
L 221.275933 -217.108644 
L 220.307443 -217.502341 
L 219.338952 -217.91616 
L 218.370462 -218.349752 
L 217.401972 -218.80269 
L 216.433481 -219.274486 
L 215.464991 -219.764609 
L 214.4965 -220.272507 
L 213.52801 -220.797626 
L 212.559519 -221.339432 
L 211.591029 -221.897431 
L 210.622538 -222.471188 
L 209.654048 -223.06034 
L 208.685557 -223.66461 
L 207.717067 -224.283813 
L 206.748576 -224.917856 
L 205.780086 -225.566738 
L 204.811595 -226.230537 
L 203.843105 -226.909392 
L 202.874614 -227.603487 
L 201.906124 -228.313018 
L 200.937633 -229.038165 
L 199.969143 -229.779056 
L 199.000652 -230.53573 
L 198.032162 -231.308101 
L 197.063671 -232.095923 
L 196.095181 -232.898752 
L 195.12669 -233.715925 
L 194.1582 -234.546534 
L 193.18971 -235.38941 
L 192.221219 -236.24312 
L 191.252729 -237.105972 
L 190.284238 -237.976024 
L 189.315748 -238.851112 
L 188.347257 -239.728883 
L 187.378767 -240.606837 
L 186.410276 -241.482376 
L 185.441786 -242.35286 
L 184.473295 -243.215669 
L 183.504805 -244.068264 
L 182.536314 -244.908248 
L 181.567824 -245.733425 
L 180.599333 -246.541855 
L 179.630843 -247.3319 
L 178.662352 -248.102262 
L 177.693862 -248.852009 
L 176.725371 -249.580595 
L 175.756881 -250.287859 
L 174.78839 -250.974016 
L 173.8199 -251.639636 
L 172.851409 -252.285611 
L 171.882919 -252.913109 
L 170.914429 -253.523523 
L 169.945938 -254.118405 
L 168.977448 -254.699405 
L 168.008957 -255.2682 
L 167.040467 -255.826422 
L 166.071976 -256.37559 
L 165.103486 -256.917048 
L 164.134995 -257.451901 
L 163.166505 -257.980963 
L 162.198014 -258.504716 
L 161.229524 -259.023275 
L 160.261033 -259.536367 
L 159.292543 -260.043314 
L 158.324052 -260.543039 
L 157.355562 -261.034073 
L 156.387071 -261.514578 
L 155.418581 -261.982377 
L 154.45009 -262.434997 
L 153.4816 -262.869714 
L 152.513109 -263.283607 
L 151.544619 -263.67362 
L 150.576128 -264.036626 
L 149.607638 -264.369485 
L 148.639147 -264.669118 
L 147.670657 -264.932566 
L 146.702167 -265.157053 
L 145.733676 -265.34005 
L 144.765186 -265.47932 
L 143.796695 -265.572975 
L 142.828205 -265.619512 
L 141.859714 -265.617853 
L 140.891224 -265.567362 
L 139.922733 -265.467872 
L 138.954243 -265.319688 
L 137.985752 -265.123587 
L 137.017262 -264.880807 
L 136.048771 -264.593033 
L 135.080281 -264.262361 
L 134.11179 -263.891269 
L 133.1433 -263.482572 
L 132.174809 -263.039369 
L 131.206319 -262.56499 
L 130.237828 -262.062936 
L 129.269338 -261.536811 
L 128.300847 -260.990262 
L 127.332357 -260.426909 
L 126.363866 -259.85028 
L 125.395376 -259.263752 
L 124.426885 -258.670486 
L 123.458395 -258.07338 
L 122.489905 -257.475017 
L 121.521414 -256.877631 
L 120.552924 -256.283075 
L 119.584433 -255.692799 
L 118.615943 -255.107846 
L 117.647452 -254.528847 
L 116.678962 -253.956034 
L 115.710471 -253.389266 
L 114.741981 -252.828053 
L 113.77349 -252.271604 
L 112.805 -251.718868 
L 111.836509 -251.168592 
L 110.868019 -250.61938 
L 109.899528 -250.069752 
L 108.931038 -249.518212 
L 107.962547 -248.963304 
L 106.994057 -248.403679 
L 106.025566 -247.838145 
L 105.057076 -247.26572 
L 104.088585 -246.685673 
L 103.120095 -246.097559 
L 102.151604 -245.501242 
L 101.183114 -244.896911 
L 100.214624 -244.285078 
L 99.246133 -243.666577 
L 98.277643 -243.042543 
L 97.309152 -242.41438 
L 96.340662 -241.783733 
L 95.372171 -241.152432 
L 94.403681 -240.522447 
L 93.43519 -239.895831 
L 92.4667 -239.274656 
L 91.498209 -238.660955 
L 90.529719 -238.056659 
L 89.561228 -237.463537 
L 88.592738 -236.883144 
L 87.624247 -236.316769 
L 86.655757 -235.765393 
L 85.687266 -235.229659 
L 84.718776 -234.709844 
L 83.750285 -234.20585 
L 82.781795 -233.717198 
L 81.813304 -233.243041 
L 80.844814 -232.782183 
L 79.876323 -232.333109 
L 78.907833 -231.894026 
L 77.939342 -231.462914 
L 76.970852 -231.037579 
L 76.002362 -230.615718 
L 75.033871 -230.194982 
L 74.065381 -229.773045 
L 73.09689 -229.34767 
L 72.1284 -228.916774 
L 71.159909 -228.478489 
L 70.191419 -228.031216 
L 69.222928 -227.573672 
L 68.254438 -227.104927 
L 67.285947 -226.624432 
L 66.317457 -226.132038 
L 65.348966 -225.628 
L 64.380476 -225.112972 
L 63.411985 -224.587991 
z
" id="m08e9e4c5bf" style="stroke:#ffbb78;"/>
    </defs>
    <g clip-path="url(#pd14b639a5e)">
     <use style="fill:#ffbb78;fill-opacity:0.25;stroke:#ffbb78;" x="0" xlink:href="#m08e9e4c5bf" y="290.483125"/>
    </g>
   </g>
   <g id="PolyCollection_4">
    <defs>
     <path d="M 63.411985 -238.205095 
L 63.411985 -212.718419 
L 64.61363 -212.718419 
L 65.815274 -212.718419 
L 67.016918 -212.718419 
L 68.218562 -212.718419 
L 69.420207 -212.718419 
L 70.621851 -212.718419 
L 71.823495 -212.718419 
L 73.025139 -212.718419 
L 74.226784 -212.718419 
L 75.428428 -212.718419 
L 76.630072 -212.718419 
L 77.831716 -212.718419 
L 79.033361 -212.718419 
L 80.235005 -212.718419 
L 81.436649 -212.718419 
L 82.638293 -212.718419 
L 83.839938 -212.718419 
L 85.041582 -212.718419 
L 86.243226 -212.718419 
L 87.44487 -212.718419 
L 88.646515 -212.718419 
L 89.848159 -212.718419 
L 91.049803 -212.718419 
L 92.251447 -212.718419 
L 93.453092 -212.718419 
L 94.654736 -212.718419 
L 95.85638 -212.718419 
L 97.058024 -212.718419 
L 98.259669 -212.718419 
L 99.461313 -212.718419 
L 100.662957 -212.718419 
L 101.864601 -212.718419 
L 103.066246 -212.718419 
L 104.26789 -212.718419 
L 105.469534 -212.718419 
L 106.671178 -212.718419 
L 107.872823 -212.718419 
L 109.074467 -212.718419 
L 110.276111 -212.718419 
L 111.477755 -212.718419 
L 112.6794 -212.718419 
L 113.881044 -212.718419 
L 115.082688 -212.718419 
L 116.284332 -212.718419 
L 117.485977 -212.718419 
L 118.687621 -212.718419 
L 119.889265 -212.718419 
L 121.090909 -212.718419 
L 122.292554 -212.718419 
L 123.494198 -212.718419 
L 124.695842 -212.718419 
L 125.897486 -212.718419 
L 127.099131 -212.718419 
L 128.300775 -212.718419 
L 129.502419 -212.718419 
L 130.704063 -212.718419 
L 131.905708 -212.718419 
L 133.107352 -212.718419 
L 134.308996 -212.718419 
L 135.51064 -212.718419 
L 136.712285 -212.718419 
L 137.913929 -212.718419 
L 139.115573 -212.718419 
L 140.317217 -212.718419 
L 141.518862 -212.718419 
L 142.720506 -212.718419 
L 143.92215 -212.718419 
L 145.123794 -212.718419 
L 146.325439 -212.718419 
L 147.527083 -212.718419 
L 148.728727 -212.718419 
L 149.930371 -212.718419 
L 151.132016 -212.718419 
L 152.33366 -212.718419 
L 153.535304 -212.718419 
L 154.736948 -212.718419 
L 155.938593 -212.718419 
L 157.140237 -212.718419 
L 158.341881 -212.718419 
L 159.543525 -212.718419 
L 160.74517 -212.718419 
L 161.946814 -212.718419 
L 163.148458 -212.718419 
L 164.350102 -212.718419 
L 165.551747 -212.718419 
L 166.753391 -212.718419 
L 167.955035 -212.718419 
L 169.156679 -212.718419 
L 170.358324 -212.718419 
L 171.559968 -212.718419 
L 172.761612 -212.718419 
L 173.963256 -212.718419 
L 175.164901 -212.718419 
L 176.366545 -212.718419 
L 177.568189 -212.718419 
L 178.769833 -212.718419 
L 179.971478 -212.718419 
L 181.173122 -212.718419 
L 182.374766 -212.718419 
L 183.57641 -212.718419 
L 184.778055 -212.718419 
L 185.979699 -212.718419 
L 187.181343 -212.718419 
L 188.382987 -212.718419 
L 189.584632 -212.718419 
L 190.786276 -212.718419 
L 191.98792 -212.718419 
L 193.189564 -212.718419 
L 194.391209 -212.718419 
L 195.592853 -212.718419 
L 196.794497 -212.718419 
L 197.996141 -212.718419 
L 199.197786 -212.718419 
L 200.39943 -212.718419 
L 201.601074 -212.718419 
L 202.802718 -212.718419 
L 204.004363 -212.718419 
L 205.206007 -212.718419 
L 206.407651 -212.718419 
L 207.609295 -212.718419 
L 208.81094 -212.718419 
L 210.012584 -212.718419 
L 211.214228 -212.718419 
L 212.415872 -212.718419 
L 213.617517 -212.718419 
L 214.819161 -212.718419 
L 216.020805 -212.718419 
L 217.222449 -212.718419 
L 218.424094 -212.718419 
L 219.625738 -212.718419 
L 220.827382 -212.718419 
L 222.029026 -212.718419 
L 223.230671 -212.718419 
L 224.432315 -212.718419 
L 225.633959 -212.718419 
L 226.835603 -212.718419 
L 228.037248 -212.718419 
L 229.238892 -212.718419 
L 230.440536 -212.718419 
L 231.64218 -212.718419 
L 232.843825 -212.718419 
L 234.045469 -212.718419 
L 235.247113 -212.718419 
L 236.448757 -212.718419 
L 237.650402 -212.718419 
L 238.852046 -212.718419 
L 240.05369 -212.718419 
L 241.255334 -212.718419 
L 242.456979 -212.718419 
L 243.658623 -212.718419 
L 244.860267 -212.718419 
L 246.061911 -212.718419 
L 247.263556 -212.718419 
L 248.4652 -212.718419 
L 249.666844 -212.718419 
L 250.868488 -212.718419 
L 252.070133 -212.718419 
L 253.271777 -212.718419 
L 254.473421 -212.718419 
L 255.675065 -212.718419 
L 256.87671 -212.718419 
L 258.078354 -212.718419 
L 259.279998 -212.718419 
L 260.481642 -212.718419 
L 261.683287 -212.718419 
L 262.884931 -212.718419 
L 264.086575 -212.718419 
L 265.288219 -212.718419 
L 266.489864 -212.718419 
L 267.691508 -212.718419 
L 268.893152 -212.718419 
L 270.094796 -212.718419 
L 271.296441 -212.718419 
L 272.498085 -212.718419 
L 273.699729 -212.718419 
L 274.901373 -212.718419 
L 276.103018 -212.718419 
L 277.304662 -212.718419 
L 278.506306 -212.718419 
L 279.70795 -212.718419 
L 280.909595 -212.718419 
L 282.111239 -212.718419 
L 283.312883 -212.718419 
L 284.514527 -212.718419 
L 285.716172 -212.718419 
L 286.917816 -212.718419 
L 288.11946 -212.718419 
L 289.321104 -212.718419 
L 290.522749 -212.718419 
L 291.724393 -212.718419 
L 292.926037 -212.718419 
L 294.127681 -212.718419 
L 295.329326 -212.718419 
L 296.53097 -212.718419 
L 297.732614 -212.718419 
L 298.934258 -212.718419 
L 300.135903 -212.718419 
L 301.337547 -212.718419 
L 302.539191 -212.718419 
L 302.539191 -213.826795 
L 302.539191 -213.826795 
L 301.337547 -213.929456 
L 300.135903 -214.039735 
L 298.934258 -214.157993 
L 297.732614 -214.284585 
L 296.53097 -214.419856 
L 295.329326 -214.564132 
L 294.127681 -214.717721 
L 292.926037 -214.880905 
L 291.724393 -215.053937 
L 290.522749 -215.237033 
L 289.321104 -215.430372 
L 288.11946 -215.634088 
L 286.917816 -215.848264 
L 285.716172 -216.072931 
L 284.514527 -216.308063 
L 283.312883 -216.553571 
L 282.111239 -216.809305 
L 280.909595 -217.075046 
L 279.70795 -217.35051 
L 278.506306 -217.635344 
L 277.304662 -217.929127 
L 276.103018 -218.231373 
L 274.901373 -218.54153 
L 273.699729 -218.858987 
L 272.498085 -219.183074 
L 271.296441 -219.513072 
L 270.094796 -219.848214 
L 268.893152 -220.187695 
L 267.691508 -220.530682 
L 266.489864 -220.876313 
L 265.288219 -221.223718 
L 264.086575 -221.572017 
L 262.884931 -221.920338 
L 261.683287 -222.267819 
L 260.481642 -222.613622 
L 259.279998 -222.956941 
L 258.078354 -223.29701 
L 256.87671 -223.633108 
L 255.675065 -223.964573 
L 254.473421 -224.290801 
L 253.271777 -224.611256 
L 252.070133 -224.925471 
L 250.868488 -225.233053 
L 249.666844 -225.533685 
L 248.4652 -225.827125 
L 247.263556 -226.113206 
L 246.061911 -226.391834 
L 244.860267 -226.662985 
L 243.658623 -226.9267 
L 242.456979 -227.18308 
L 241.255334 -227.432281 
L 240.05369 -227.674504 
L 238.852046 -227.909991 
L 237.650402 -228.139014 
L 236.448757 -228.361866 
L 235.247113 -228.578856 
L 234.045469 -228.790295 
L 232.843825 -228.996492 
L 231.64218 -229.197742 
L 230.440536 -229.394321 
L 229.238892 -229.586479 
L 228.037248 -229.774428 
L 226.835603 -229.958345 
L 225.633959 -230.138357 
L 224.432315 -230.314547 
L 223.230671 -230.486945 
L 222.029026 -230.655527 
L 220.827382 -230.820216 
L 219.625738 -230.980879 
L 218.424094 -231.137334 
L 217.222449 -231.289347 
L 216.020805 -231.436635 
L 214.819161 -231.578876 
L 213.617517 -231.715707 
L 212.415872 -231.846735 
L 211.214228 -231.971538 
L 210.012584 -232.089676 
L 208.81094 -232.200698 
L 207.609295 -232.304147 
L 206.407651 -232.399569 
L 205.206007 -232.486523 
L 204.004363 -232.564585 
L 202.802718 -232.63336 
L 201.601074 -232.692487 
L 200.39943 -232.741649 
L 199.197786 -232.780579 
L 197.996141 -232.809067 
L 196.794497 -232.826969 
L 195.592853 -232.834208 
L 194.391209 -232.830786 
L 193.189564 -232.816781 
L 191.98792 -232.79236 
L 190.786276 -232.757773 
L 189.584632 -232.713363 
L 188.382987 -232.659562 
L 187.181343 -232.596894 
L 185.979699 -232.525973 
L 184.778055 -232.447501 
L 183.57641 -232.362268 
L 182.374766 -232.271143 
L 181.173122 -232.175074 
L 179.971478 -232.07508 
L 178.769833 -231.972243 
L 177.568189 -231.867704 
L 176.366545 -231.762649 
L 175.164901 -231.658306 
L 173.963256 -231.55593 
L 172.761612 -231.456797 
L 171.559968 -231.362191 
L 170.358324 -231.273396 
L 169.156679 -231.191681 
L 167.955035 -231.118297 
L 166.753391 -231.054459 
L 165.551747 -231.001343 
L 164.350102 -230.960073 
L 163.148458 -230.931716 
L 161.946814 -230.917272 
L 160.74517 -230.91767 
L 159.543525 -230.933762 
L 158.341881 -230.966318 
L 157.140237 -231.016023 
L 155.938593 -231.083478 
L 154.736948 -231.169194 
L 153.535304 -231.273599 
L 152.33366 -231.397032 
L 151.132016 -231.539751 
L 149.930371 -231.701936 
L 148.728727 -231.883688 
L 147.527083 -232.085038 
L 146.325439 -232.305953 
L 145.123794 -232.546336 
L 143.92215 -232.806036 
L 142.720506 -233.084854 
L 141.518862 -233.382544 
L 140.317217 -233.698821 
L 139.115573 -234.033366 
L 137.913929 -234.385827 
L 136.712285 -234.755825 
L 135.51064 -235.142951 
L 134.308996 -235.546773 
L 133.107352 -235.966831 
L 131.905708 -236.402636 
L 130.704063 -236.853669 
L 129.502419 -237.319376 
L 128.300775 -237.799159 
L 127.099131 -238.292377 
L 125.897486 -238.798328 
L 124.695842 -239.316252 
L 123.494198 -239.84531 
L 122.292554 -240.384582 
L 121.090909 -240.933054 
L 119.889265 -241.489604 
L 118.687621 -242.052998 
L 117.485977 -242.621876 
L 116.284332 -243.194741 
L 115.082688 -243.769955 
L 113.881044 -244.345732 
L 112.6794 -244.920129 
L 111.477755 -245.491046 
L 110.276111 -246.056227 
L 109.074467 -246.613258 
L 107.872823 -247.159573 
L 106.671178 -247.692464 
L 105.469534 -248.209087 
L 104.26789 -248.706481 
L 103.066246 -249.181581 
L 101.864601 -249.631239 
L 100.662957 -250.052248 
L 99.461313 -250.441365 
L 98.259669 -250.795345 
L 97.058024 -251.110964 
L 95.85638 -251.385057 
L 94.654736 -251.614549 
L 93.453092 -251.796492 
L 92.251447 -251.928099 
L 91.049803 -252.006779 
L 89.848159 -252.030174 
L 88.646515 -251.996188 
L 87.44487 -251.903026 
L 86.243226 -251.749216 
L 85.041582 -251.53364 
L 83.839938 -251.255555 
L 82.638293 -250.914616 
L 81.436649 -250.510886 
L 80.235005 -250.04485 
L 79.033361 -249.517421 
L 77.831716 -248.929936 
L 76.630072 -248.284159 
L 75.428428 -247.582261 
L 74.226784 -246.826813 
L 73.025139 -246.020764 
L 71.823495 -245.167412 
L 70.621851 -244.270378 
L 69.420207 -243.333572 
L 68.218562 -242.361155 
L 67.016918 -241.357501 
L 65.815274 -240.327149 
L 64.61363 -239.274766 
L 63.411985 -238.205095 
z
" id="mcedf1d9f0d" style="stroke:#17becf;"/>
    </defs>
    <g clip-path="url(#pd14b639a5e)">
     <use style="fill:#17becf;fill-opacity:0.25;stroke:#17becf;" x="0" xlink:href="#mcedf1d9f0d" y="290.483125"/>
    </g>
   </g>
   <g id="patch_7">
    <path d="M 51.455625 77.764706 
L 314.495551 77.764706 
" style="fill:none;stroke:#262626;stroke-linecap:square;stroke-linejoin:miter;stroke-width:0.8;"/>
   </g>
   <g id="legend_1">
    <g id="patch_8">
     <path d="M 320.24864 113.007812 
L 436.915515 113.007812 
Q 439.515515 113.007812 439.515515 110.407813 
L 439.515515 16.3 
Q 439.515515 13.7 436.915515 13.7 
L 320.24864 13.7 
Q 317.64864 13.7 317.64864 16.3 
L 317.64864 110.407813 
Q 317.64864 113.007812 320.24864 113.007812 
z
" style="fill:#ffffff;opacity:0.8;stroke:#cccccc;stroke-linejoin:miter;"/>
    </g>
    <g id="text_14">
     <text style="fill:#262626;font-family:DejaVu Sans;font-size:13px;font-style:normal;font-weight:normal;text-anchor:start;" transform="rotate(-0, 352.926374, 28.777969)" x="352.926374" y="28.777969">Lineage</text>
    </g>
    <g id="patch_9">
     <path d="M 322.84864 47.859531 
L 348.84864 47.859531 
L 348.84864 38.759531 
L 322.84864 38.759531 
z
" style="fill:#17becf;fill-opacity:0.25;stroke:#17becf;stroke-linejoin:miter;"/>
    </g>
    <g id="text_15">
     <text style="fill:#262626;font-family:DejaVu Sans;font-size:13px;font-style:normal;font-weight:normal;text-anchor:start;" transform="rotate(-0, 359.24864, 47.859531)" x="359.24864" y="47.859531">Muscle</text>
    </g>
    <g id="patch_10">
     <path d="M 322.84864 66.941094 
L 348.84864 66.941094 
L 348.84864 57.841094 
L 322.84864 57.841094 
z
" style="fill:#ffbb78;fill-opacity:0.25;stroke:#ffbb78;stroke-linejoin:miter;"/>
    </g>
    <g id="text_16">
     <text style="fill:#262626;font-family:DejaVu Sans;font-size:13px;font-style:normal;font-weight:normal;text-anchor:start;" transform="rotate(-0, 359.24864, 66.941094)" x="359.24864" y="66.941094">Primordium</text>
    </g>
    <g id="patch_11">
     <path d="M 322.84864 86.022656 
L 348.84864 86.022656 
L 348.84864 76.922656 
L 322.84864 76.922656 
z
" style="fill:#b5bd61;fill-opacity:0.25;stroke:#b5bd61;stroke-linejoin:miter;"/>
    </g>
    <g id="text_17">
     <text style="fill:#262626;font-family:DejaVu Sans;font-size:13px;font-style:normal;font-weight:normal;text-anchor:start;" transform="rotate(-0, 359.24864, 86.022656)" x="359.24864" y="86.022656">Midgut</text>
    </g>
    <g id="patch_12">
     <path d="M 322.84864 105.104219 
L 348.84864 105.104219 
L 348.84864 96.004219 
L 322.84864 96.004219 
z
" style="fill:#808080;fill-opacity:0.25;stroke:#808080;stroke-linejoin:miter;"/>
    </g>
    <g id="text_18">
     <text style="fill:#262626;font-family:DejaVu Sans;font-size:13px;font-style:normal;font-weight:normal;text-anchor:start;" transform="rotate(-0, 359.24864, 105.104219)" x="359.24864" y="105.104219">Other</text>
    </g>
   </g>
  </g>
 </g>
 <defs>
  <clipPath id="p05b9985a15">
   <rect height="155.242353" width="263.039926" x="51.455625" y="91.877647"/>
  </clipPath>
  <clipPath id="pd14b639a5e">
   <rect height="70.564706" width="263.039926" x="51.455625" y="7.2"/>
  </clipPath>
 </defs>
</svg>
